{
.appVersion = "1213";
copyright = "Copyright 2011 The Dosis Project Authors (impallari@gmail.com)";
customParameters = (
{
name = license;
value = "This Font Software is licensed under the SIL Open Font License, Version 1.1. This license is available with a FAQ at: http://scripts.sil.org/OFL";
},
{
name = licenseURL;
value = "http://scripts.sil.org/OFL";
},
{
name = trademark;
value = "Dosis is a trademark of EdgarTolentino, PabloImpallari, IginoMarini.";
},
{
name = fsType;
value = (
);
},
{
name = "Disable Last Change";
value = 1;
},
{
name = "Use Line Breaks";
value = 1;
},
{
name = "Use Typo Metrics";
value = 1;
},
{
name = vendorID;
value = IMPA;
}
);
date = "2018-10-24 00:29:40 +0000";
designer = "EdgarTolentino, PabloImpallari, IginoMarini";
designerURL = "http://www.impallari.com";
familyName = Dosis;
features = (
{
code = "feature liga;
  feature salt;
  feature ss01;
  feature ss02;
  feature ss03;
  feature ss04;
  feature ss05;
  feature lnum;
  feature frac;
";
name = aalt;
},
{
code = "sub f i by fi;
  sub f l by fl;
";
name = liga;
},
{
code = "sub a by a.ss01;
    sub b by b.ss02;
    sub g by g.ss03;
    sub m by m.ss04;
    sub n by n.ss04;
    sub q by q.ss02;
    sub r by r.ss04;
    sub u by u.ss04;  
";
name = salt;
},
{
code = "sub a by a.ss01;
";
name = ss01;
},
{
code = "sub b by b.ss02;
    sub q by q.ss02;
";
name = ss02;
},
{
code = "sub g by g.ss03;
";
name = ss03;
},
{
code = "sub m by m.ss04;
    sub n by n.ss04;
    sub r by r.ss04;    
";
name = ss04;
},
{
code = "sub u by u.ss04;
";
name = ss05;
},
{
code = "sub one by one.lnum;
";
name = lnum;
},
{
code = "sub one slash two by onehalf;
    sub one slash three by onethird;
    sub one slash four by onequarter;
    sub one slash eight by oneeighth;   
    sub two slash three by twothirds;          
    sub three slash four by threequarters;
    sub three slash eight by threeeighths;    
    sub five slash eight by fiveeighths;
    sub seven slash eight by seveneighths;

glyphs = (
{
color = 10;
glyphname = A;
layers = (
{
anchors = (
{
name = bottom;
position = "{261, 0}";
},
{
name = ogonek;
position = "{462, 11}";
},
{
name = top;
position = "{261, 731}";
}
);
background = {
paths = (
{
closed = 1;
nodes = (
"460 13 LINE SMOOTH",
"463 4 OFFCURVE",
"469 0 OFFCURVE",
"476 0 CURVE SMOOTH",
"486 0 OFFCURVE",
"496 8 OFFCURVE",
"496 17 CURVE SMOOTH",
"496 19 OFFCURVE",
"495 20 OFFCURVE",
"495 22 CURVE SMOOTH",
"280 723 LINE SMOOTH",
"277 732 OFFCURVE",
"269 737 OFFCURVE",
"261 737 CURVE SMOOTH",
"253 737 OFFCURVE",
"246 733 OFFCURVE",
"243 723 CURVE SMOOTH",
"26 22 LINE SMOOTH",
"25 20 OFFCURVE",
"25 18 OFFCURVE",
"25 16 CURVE SMOOTH",
"25 6 OFFCURVE",
"34 0 OFFCURVE",
"43 0 CURVE SMOOTH",
"51 0 OFFCURVE",
"58 4 OFFCURVE",
"61 13 CURVE SMOOTH",
"111 177 LINE",
"409 177 LINE"
);
},
{
closed = 1;
nodes = (
"261 661 LINE",
"398 213 LINE",
"122 213 LINE"
);
}
);
};
hints = (
{
horizontal = 1;
place = "{177, 36}";
type = Stem;
},
{
horizontal = 1;
place = "{0, 21}";
target = up;
type = BottomGhost;
},
{
horizontal = 1;
place = "{737, -20}";
target = down;
type = TopGhost;
}
);
layerId = UUID0;
paths = (
{
closed = 1;
nodes = (
"51 0 OFFCURVE",
"58 4 OFFCURVE",
"61 13 CURVE SMOOTH",
"111 177 LINE",
"409 177 LINE",
"460 13 LINE SMOOTH",
"463 4 OFFCURVE",
"469 0 OFFCURVE",
"476 0 CURVE SMOOTH",
"486 0 OFFCURVE",
"496 8 OFFCURVE",
"496 17 CURVE SMOOTH",
"496 19 OFFCURVE",
"496 20 OFFCURVE",
"495 22 CURVE",
"280 723 LINE SMOOTH",
"277 732 OFFCURVE",
"269 737 OFFCURVE",
"261 737 CURVE SMOOTH",
"253 737 OFFCURVE",
"246 733 OFFCURVE",
"243 723 CURVE SMOOTH",
"26 22 LINE",
"25 20 OFFCURVE",
"25 18 OFFCURVE",
"25 16 CURVE SMOOTH",
"25 6 OFFCURVE",
"34 0 OFFCURVE",
"43 0 CURVE SMOOTH"
);
},
{
closed = 1;
nodes = (
"261 661 LINE",
"398 213 LINE",
"122 213 LINE"
);
}
);
width = 521;
},
{
anchors = (
{
name = bottom;
position = "{295, 0}";
},
{
name = ogonek;
position = "{530, 10}";
},
{
name = top;
position = "{295, 731}";
}
);
background = {
paths = (
{
closed = 1;
nodes = (
"494 13 LINE SMOOTH",
"497 4 OFFCURVE",
"503 0 OFFCURVE",
"510 0 CURVE SMOOTH",
"520 0 OFFCURVE",
"530 8 OFFCURVE",
"530 17 CURVE SMOOTH",
"530 19 OFFCURVE",
"529 20 OFFCURVE",
"529 22 CURVE SMOOTH",
"314 723 LINE SMOOTH",
"311 732 OFFCURVE",
"303 737 OFFCURVE",
"295 737 CURVE SMOOTH",
"287 737 OFFCURVE",
"280 733 OFFCURVE",
"277 723 CURVE SMOOTH",
"60 22 LINE SMOOTH",
"59 20 OFFCURVE",
"59 18 OFFCURVE",
"59 16 CURVE SMOOTH",
"59 6 OFFCURVE",
"68 0 OFFCURVE",
"77 0 CURVE SMOOTH",
"85 0 OFFCURVE",
"92 4 OFFCURVE",
"95 13 CURVE SMOOTH",
"145 177 LINE",
"443 177 LINE"
);
},
{
closed = 1;
nodes = (
"295 661 LINE",
"432 213 LINE",
"156 213 LINE"
);
}
);
};
hints = (
{
horizontal = 1;
place = "{154, 120}";
type = Stem;
},
{
horizontal = 1;
place = "{0, 21}";
target = up;
type = BottomGhost;
},
{
horizontal = 1;
place = "{737, -20}";
target = down;
type = TopGhost;
}
);
layerId = "228CC867-ECE3-4F82-B853-1E58141B916C";
paths = (
{
closed = 1;
nodes = (
"129 0 OFFCURVE",
"149 8 OFFCURVE",
"155 29 CURVE SMOOTH",
"189 154 LINE",
"400 154 LINE",
"434 29 LINE SMOOTH",
"440 8 OFFCURVE",
"460 0 OFFCURVE",
"485 0 CURVE SMOOTH",
"528 0 OFFCURVE",
"585 27 OFFCURVE",
"585 64 CURVE SMOOTH",
"585 67 OFFCURVE",
"584 71 OFFCURVE",
"583 75 CURVE",
"396 685 LINE SMOOTH",
"385 720 OFFCURVE",
"340 737 OFFCURVE",
"294 737 CURVE SMOOTH",
"248 737 OFFCURVE",
"203 720 OFFCURVE",
"192 685 CURVE SMOOTH",
"6 75 LINE",
"5 71 OFFCURVE",
"4 67 OFFCURVE",
"4 64 CURVE SMOOTH",
"4 27 OFFCURVE",
"61 0 OFFCURVE",
"104 0 CURVE SMOOTH"
);
},
{
closed = 1;
nodes = (
"294 542 LINE",
"367 274 LINE",
"221 274 LINE"
);
}
);
width = 589;
},
{
layerId = "F5CF7C91-484B-43F2-91EC-BD73E27C7962";
paths = (
{
closed = 1;
nodes = (
"4 38 OFFCURVE",
"69 0 OFFCURVE",
"104 0 QCURVE SMOOTH",
"147 0 OFFCURVE",
"155 29 QCURVE SMOOTH",
"189 154 LINE",
"400 154 LINE",
"434 29 LINE SMOOTH",
"442 0 OFFCURVE",
"485 0 QCURVE SMOOTH",
"520 0 OFFCURVE",
"585 38 OFFCURVE",
"585 64 QCURVE SMOOTH",
"585 67 OFFCURVE",
"583 75 QCURVE",
"396 685 LINE SMOOTH",
"388 710 OFFCURVE",
"331 737 OFFCURVE",
"257 737 OFFCURVE",
"200 710 OFFCURVE",
"192 685 QCURVE SMOOTH",
"6 75 LINE",
"4 67 OFFCURVE",
"4 64 QCURVE SMOOTH"
);
},
{
closed = 1;
nodes = (
"294 542 LINE",
"367 274 LINE",
"221 274 LINE"
);
}
);
userData = {
assembly = "SVTCA[0]\011/* SetFreedomAndProjectionVectorToAxis */
PUSHB[ ]\011/* 3 values pushed */
21 1 0 
CALL[ ]\011/* CallFunction */
PUSHB[ ]\011/* 1 value pushed */
14 
SHP[1]\011/* ShiftPointByLastPoint */
PUSHB[ ]\011/* 3 values pushed */
6 3 0 
CALL[ ]\011/* CallFunction */
PUSHB[ ]\011/* 5 values pushed */
26 4 0 16 4 
CALL[ ]\011/* CallFunction */
PUSHB[ ]\011/* 5 values pushed */
18 24 21 6 13 
CALL[ ]\011/* CallFunction */
PUSHB[ ]\011/* 2 values pushed */
18 5 
MIRP[01001]\011/* MoveIndirectRelPt */
SVTCA[1]\011/* SetFreedomAndProjectionVectorToAxis */
PUSHB[ ]\011/* 1 value pushed */
27 
MDAP[1]\011/* MoveDirectAbsPt */
PUSHB[ ]\011/* 2 values pushed */
28 1 
CALL[ ]\011/* CallFunction */
SVTCA[0]\011/* SetFreedomAndProjectionVectorToAxis */
PUSHB[ ]\011/* 2 values pushed */
18 21 
SRP1[ ]\011/* SetRefPoint1 */
SRP2[ ]\011/* SetRefPoint2 */
PUSHB[ ]\011/* 2 values pushed */
11 0 
IP[ ]\011/* InterpolatePts */
IP[ ]\011/* InterpolatePts */
IUP[0]\011/* InterpolateUntPts */
IUP[1]\011/* InterpolateUntPts */";
};
width = 589;
},
{
layerId = "4CEE6D0C-6158-494B-B4A5-6E5394691F1E";
paths = (
{
closed = 1;
nodes = (
"25 0 OFFCURVE",
"43 0 QCURVE SMOOTH",
"57 0 OFFCURVE",
"61 13 QCURVE SMOOTH",
"111 177 LINE",
"409 177 LINE",
"460 13 LINE SMOOTH",
"464 0 OFFCURVE",
"476 0 QCURVE SMOOTH",
"484 0 OFFCURVE",
"496 10 OFFCURVE",
"496 17 QCURVE SMOOTH",
"496 18 OFFCURVE",
"495 21 OFFCURVE",
"495 22 QCURVE",
"280 723 LINE",
"275 737 OFFCURVE",
"247 737 OFFCURVE",
"243 723 QCURVE SMOOTH",
"26 22 LINE",
"25 20 OFFCURVE",
"25 16 QCURVE SMOOTH"
);
},
{
closed = 1;
nodes = (
"261 661 LINE",
"398 213 LINE",
"122 213 LINE"
);
}
);
userData = {
assembly = "SVTCA[0]\011/* SetFreedomAndProjectionVectorToAxis */
PUSHB[ ]\011/* 3 values pushed */
20 1 0 
CALL[ ]\011/* CallFunction */
PUSHB[ ]\011/* 1 value pushed */
13 
SHP[1]\011/* ShiftPointByLastPoint */
PUSHB[ ]\011/* 3 values pushed */
5 3 0 
CALL[ ]\011/* CallFunction */
PUSHB[ ]\011/* 5 values pushed */
17 22 20 5 13 
CALL[ ]\011/* CallFunction */
PUSHB[ ]\011/* 1 value pushed */
23 
SHP[1]\011/* ShiftPointByLastPoint */
PUSHB[ ]\011/* 2 values pushed */
17 4 
MIRP[01001]\011/* MoveIndirectRelPt */
PUSHB[ ]\011/* 1 value pushed */
16 
SHP[0]\011/* ShiftPointByLastPoint */
SVTCA[1]\011/* SetFreedomAndProjectionVectorToAxis */
PUSHB[ ]\011/* 1 value pushed */
25 
MDAP[1]\011/* MoveDirectAbsPt */
PUSHB[ ]\011/* 1 value pushed */
15 
MDRP[10110]\011/* MoveDirectRelPt */
PUSHB[ ]\011/* 2 values pushed */
10 10 
MIRP[01001]\011/* MoveIndirectRelPt */
PUSHB[ ]\011/* 1 value pushed */
7 
SHP[0]\011/* ShiftPointByLastPoint */
PUSHB[ ]\011/* 3 values pushed */
15 10 10 
CALL[ ]\011/* CallFunction */
PUSHB[ ]\011/* 4 values pushed */
0 15 0 9 
CALL[ ]\011/* CallFunction */
PUSHB[ ]\011/* 2 values pushed */
26 1 
CALL[ ]\011/* CallFunction */
PUSHB[ ]\011/* 1 value pushed */
54 
SMD[ ]\011/* SetMinimumDistance */
PUSHW[ ]\011/* 3 values pushed */
15596 -5021 21 
CALL[ ]\011/* CallFunction */
SPVFS[ ]\011/* SetPVectorFromStack */
SFVTPV[ ]\011/* SetFVectorToPVector */
PUSHB[ ]\011/* 1 value pushed */
2 
SRP0[ ]\011/* SetRefPoint0 */
PUSHB[ ]\011/* 1 value pushed */
3 
MDRP[00000]\011/* MoveDirectRelPt */
PUSHB[ ]\011/* 2 values pushed */
18 5 
MIRP[11001]\011/* MoveIndirectRelPt */
PUSHB[ ]\011/* 1 value pushed */
24 
MDRP[00000]\011/* MoveDirectRelPt */
PUSHW[ ]\011/* 3 values pushed */
-15645 -4865 21 
CALL[ ]\011/* CallFunction */
SPVFS[ ]\011/* SetPVectorFromStack */
SFVTCA[1]\011/* SetFVectorToAxis */
PUSHB[ ]\011/* 1 value pushed */
16 
MDAP[0]\011/* MoveDirectAbsPt */
PUSHB[ ]\011/* 2 values pushed */
18 24 
SFVTL[0]\011/* SetFVectorToLine */
PUSHB[ ]\011/* 1 value pushed */
24 
MDRP[00000]\011/* MoveDirectRelPt */
SFVTCA[0]\011/* SetFVectorToAxis */
PUSHB[ ]\011/* 2 values pushed */
7 4 
MIRP[11001]\011/* MoveIndirectRelPt */
SFVTPV[ ]\011/* SetFVectorToPVector */
PUSHB[ ]\011/* 1 value pushed */
6 
MDRP[00000]\011/* MoveDirectRelPt */
SFVTCA[1]\011/* SetFVectorToAxis */
PUSHB[ ]\011/* 1 value pushed */
18 
SRP0[ ]\011/* SetRefPoint0 */
PUSHB[ ]\011/* 4 values pushed */
17 18 24 19 
CALL[ ]\011/* CallFunction */
PUSHB[ ]\011/* 4 values pushed */
22 18 24 19 
CALL[ ]\011/* CallFunction */
PUSHB[ ]\011/* 1 value pushed */
24 
SRP0[ ]\011/* SetRefPoint0 */
PUSHB[ ]\011/* 4 values pushed */
23 24 16 19 
CALL[ ]\011/* CallFunction */
SPVTCA[1]\011/* SetPVectorToAxis */
SVTCA[0]\011/* SetFreedomAndProjectionVectorToAxis */
PUSHB[ ]\011/* 6 values pushed */
2 3 6 7 18 24 
MDAP[0]\011/* MoveDirectAbsPt */
MDAP[0]\011/* MoveDirectAbsPt */
MDAP[0]\011/* MoveDirectAbsPt */
MDAP[0]\011/* MoveDirectAbsPt */
MDAP[0]\011/* MoveDirectAbsPt */
MDAP[0]\011/* MoveDirectAbsPt */
SVTCA[1]\011/* SetFreedomAndProjectionVectorToAxis */
NPUSHB[ ]\011/* 9 values pushed */
2 3 6 16 17 18 22 23 24 
MDAP[0]\011/* MoveDirectAbsPt */
MDAP[0]\011/* MoveDirectAbsPt */
MDAP[0]\011/* MoveDirectAbsPt */
MDAP[0]\011/* MoveDirectAbsPt */
MDAP[0]\011/* MoveDirectAbsPt */
MDAP[0]\011/* MoveDirectAbsPt */
MDAP[0]\011/* MoveDirectAbsPt */
MDAP[0]\011/* MoveDirectAbsPt */
MDAP[0]\011/* MoveDirectAbsPt */
PUSHB[ ]\011/* 1 value pushed */
64 
SMD[ ]\011/* SetMinimumDistance */
SVTCA[0]\011/* SetFreedomAndProjectionVectorToAxis */
IUP[0]\011/* InterpolateUntPts */
IUP[1]\011/* InterpolateUntPts */";
};
width = 521;
}
);
leftKerningGroup = A;
rightKerningGroup = A;
unicode = 0041;
},
{
color = 10;
glyphname = Aacute;
layers = (
{
components = (
{
name = A;
},
{
name = acutecomb;
transform = "{1, 0, 0, 1, 194, 259}";
}
);
hints = (
{
horizontal = 1;
place = "{177, 36}";
type = Stem;
},
{
horizontal = 1;
place = "{0, 21}";
target = up;
type = BottomGhost;
},
{
horizontal = 1;
place = "{737, -20}";
target = down;
type = TopGhost;
},
{
horizontal = 1;
place = "{953, -20}";
target = down;
type = TopGhost;
}
);
layerId = UUID0;
width = 521;
},
{
components = (
{
name = A;
},
{
name = acutecomb;
transform = "{1, 0, 0, 1, 219, 239}";
}
);
hints = (
{
place = "{221, 221}";
type = Stem;
},
{
horizontal = 1;
place = "{154, 120}";
type = Stem;
},
{
horizontal = 1;
place = "{0, 21}";
target = up;
type = BottomGhost;
},
{
horizontal = 1;
place = "{737, -20}";
target = down;
type = TopGhost;
},
{
horizontal = 1;
place = "{959, -20}";
target = down;
type = TopGhost;
}
);
layerId = "228CC867-ECE3-4F82-B853-1E58141B916C";
width = 589;
},
{
layerId = "F5CF7C91-484B-43F2-91EC-BD73E27C7962";
paths = (
{
closed = 1;
nodes = (
"4 38 OFFCURVE",
"69 0 OFFCURVE",
"104 0 QCURVE SMOOTH",
"147 0 OFFCURVE",
"155 29 QCURVE SMOOTH",
"189 154 LINE",
"400 154 LINE",
"434 29 LINE SMOOTH",
"442 0 OFFCURVE",
"485 0 QCURVE SMOOTH",
"520 0 OFFCURVE",
"585 38 OFFCURVE",
"585 64 QCURVE SMOOTH",
"585 67 OFFCURVE",
"583 75 QCURVE",
"396 685 LINE SMOOTH",
"388 710 OFFCURVE",
"331 737 OFFCURVE",
"257 737 OFFCURVE",
"200 710 OFFCURVE",
"192 685 QCURVE SMOOTH",
"6 75 LINE",
"4 67 OFFCURVE",
"4 64 QCURVE SMOOTH"
);
},
{
closed = 1;
nodes = (
"294 542 LINE",
"367 274 LINE",
"221 274 LINE"
);
},
{
closed = 1;
nodes = (
"221 835 OFFCURVE",
"248 798 OFFCURVE",
"267 798 QCURVE SMOOTH",
"272 798 OFFCURVE",
"282 802 QCURVE",
"422 867 LINE SMOOTH",
"442 877 OFFCURVE",
"442 901 QCURVE SMOOTH",
"442 922 OFFCURVE",
"414 959 OFFCURVE",
"395 959 QCURVE SMOOTH",
"388 959 OFFCURVE",
"381 956 QCURVE SMOOTH",
"241 891 LINE SMOOTH",
"221 881 OFFCURVE",
"221 856 QCURVE SMOOTH"
);
}
);
userData = {
assembly = "SVTCA[0]\011/* SetFreedomAndProjectionVectorToAxis */
PUSHB[ ]\011/* 3 values pushed */
21 1 0 
CALL[ ]\011/* CallFunction */
PUSHB[ ]\011/* 1 value pushed */
14 
SHP[1]\011/* ShiftPointByLastPoint */
PUSHB[ ]\011/* 3 values pushed */
6 3 0 
CALL[ ]\011/* CallFunction */
PUSHB[ ]\011/* 5 values pushed */
26 4 0 16 4 
CALL[ ]\011/* CallFunction */
PUSHB[ ]\011/* 5 values pushed */
18 24 21 6 13 
CALL[ ]\011/* CallFunction */
PUSHB[ ]\011/* 2 values pushed */
18 5 
MIRP[01001]\011/* MoveIndirectRelPt */
SVTCA[1]\011/* SetFreedomAndProjectionVectorToAxis */
PUSHB[ ]\011/* 1 value pushed */
43 
MDAP[1]\011/* MoveDirectAbsPt */
PUSHB[ ]\011/* 2 values pushed */
44 1 
CALL[ ]\011/* CallFunction */
SVTCA[0]\011/* SetFreedomAndProjectionVectorToAxis */
PUSHB[ ]\011/* 2 values pushed */
18 21 
SRP1[ ]\011/* SetRefPoint1 */
SRP2[ ]\011/* SetRefPoint2 */
PUSHB[ ]\011/* 2 values pushed */
11 0 
IP[ ]\011/* InterpolatePts */
IP[ ]\011/* InterpolatePts */
IUP[0]\011/* InterpolateUntPts */
IUP[1]\011/* InterpolateUntPts */";
};
width = 589;
},
{
layerId = "4CEE6D0C-6158-494B-B4A5-6E5394691F1E";
paths = (
{
closed = 1;
nodes = (
"25 0 OFFCURVE",
"43 0 QCURVE SMOOTH",
"57 0 OFFCURVE",
"61 13 QCURVE SMOOTH",
"111 177 LINE",
"409 177 LINE",
"460 13 LINE SMOOTH",
"464 0 OFFCURVE",
"476 0 QCURVE SMOOTH",
"484 0 OFFCURVE",
"496 10 OFFCURVE",
"496 17 QCURVE SMOOTH",
"496 18 OFFCURVE",
"495 21 OFFCURVE",
"495 22 QCURVE",
"280 723 LINE",
"275 737 OFFCURVE",
"247 737 OFFCURVE",
"243 723 QCURVE SMOOTH",
"26 22 LINE",
"25 20 OFFCURVE",
"25 16 QCURVE SMOOTH"
);
},
{
closed = 1;
nodes = (
"261 661 LINE",
"398 213 LINE",
"122 213 LINE"
);
},
{
closed = 1;
nodes = (
"194 871 OFFCURVE",
"205 860 OFFCURVE",
"213 860 QCURVE SMOOTH",
"218 860 OFFCURVE",
"222 863 QCURVE",
"317 917 LINE SMOOTH",
"327 923 OFFCURVE",
"327 935 QCURVE SMOOTH",
"327 953 OFFCURVE",
"311 953 QCURVE SMOOTH",
"308 953 OFFCURVE",
"304 951 QCURVE",
"202 891 LINE",
"194 887 OFFCURVE",
"194 878 QCURVE SMOOTH"
);
}
);
userData = {
assembly = "SVTCA[0]\011/* SetFreedomAndProjectionVectorToAxis */
PUSHB[ ]\011/* 3 values pushed */
20 1 0 
CALL[ ]\011/* CallFunction */
PUSHB[ ]\011/* 1 value pushed */
13 
SHP[1]\011/* ShiftPointByLastPoint */
PUSHB[ ]\011/* 3 values pushed */
5 3 0 
CALL[ ]\011/* CallFunction */
PUSHB[ ]\011/* 5 values pushed */
17 22 20 5 13 
CALL[ ]\011/* CallFunction */
PUSHB[ ]\011/* 1 value pushed */
23 
SHP[1]\011/* ShiftPointByLastPoint */
PUSHB[ ]\011/* 2 values pushed */
17 4 
MIRP[01001]\011/* MoveIndirectRelPt */
PUSHB[ ]\011/* 1 value pushed */
16 
SHP[0]\011/* ShiftPointByLastPoint */
SVTCA[1]\011/* SetFreedomAndProjectionVectorToAxis */
PUSHB[ ]\011/* 1 value pushed */
40 
MDAP[1]\011/* MoveDirectAbsPt */
PUSHB[ ]\011/* 1 value pushed */
15 
MDRP[10110]\011/* MoveDirectRelPt */
PUSHB[ ]\011/* 2 values pushed */
10 10 
MIRP[01001]\011/* MoveIndirectRelPt */
PUSHB[ ]\011/* 1 value pushed */
7 
SHP[0]\011/* ShiftPointByLastPoint */
PUSHB[ ]\011/* 3 values pushed */
15 10 10 
CALL[ ]\011/* CallFunction */
PUSHB[ ]\011/* 4 values pushed */
0 15 0 9 
CALL[ ]\011/* CallFunction */
PUSHB[ ]\011/* 2 values pushed */
41 1 
CALL[ ]\011/* CallFunction */
PUSHB[ ]\011/* 1 value pushed */
54 
SMD[ ]\011/* SetMinimumDistance */
PUSHW[ ]\011/* 3 values pushed */
15596 -5021 21 
CALL[ ]\011/* CallFunction */
SPVFS[ ]\011/* SetPVectorFromStack */
SFVTPV[ ]\011/* SetFVectorToPVector */
PUSHB[ ]\011/* 1 value pushed */
2 
SRP0[ ]\011/* SetRefPoint0 */
PUSHB[ ]\011/* 1 value pushed */
3 
MDRP[00000]\011/* MoveDirectRelPt */
PUSHB[ ]\011/* 2 values pushed */
18 5 
MIRP[11001]\011/* MoveIndirectRelPt */
PUSHB[ ]\011/* 1 value pushed */
24 
MDRP[00000]\011/* MoveDirectRelPt */
PUSHW[ ]\011/* 3 values pushed */
-15645 -4865 21 
CALL[ ]\011/* CallFunction */
SPVFS[ ]\011/* SetPVectorFromStack */
SFVTCA[1]\011/* SetFVectorToAxis */
PUSHB[ ]\011/* 1 value pushed */
16 
MDAP[0]\011/* MoveDirectAbsPt */
PUSHB[ ]\011/* 2 values pushed */
18 24 
SFVTL[0]\011/* SetFVectorToLine */
PUSHB[ ]\011/* 1 value pushed */
24 
MDRP[00000]\011/* MoveDirectRelPt */
SFVTCA[0]\011/* SetFVectorToAxis */
PUSHB[ ]\011/* 2 values pushed */
7 4 
MIRP[11001]\011/* MoveIndirectRelPt */
SFVTPV[ ]\011/* SetFVectorToPVector */
PUSHB[ ]\011/* 1 value pushed */
6 
MDRP[00000]\011/* MoveDirectRelPt */
SFVTCA[1]\011/* SetFVectorToAxis */
PUSHB[ ]\011/* 1 value pushed */
18 
SRP0[ ]\011/* SetRefPoint0 */
PUSHB[ ]\011/* 4 values pushed */
17 18 24 19 
CALL[ ]\011/* CallFunction */
PUSHB[ ]\011/* 4 values pushed */
22 18 24 19 
CALL[ ]\011/* CallFunction */
PUSHB[ ]\011/* 1 value pushed */
24 
SRP0[ ]\011/* SetRefPoint0 */
PUSHB[ ]\011/* 4 values pushed */
23 24 16 19 
CALL[ ]\011/* CallFunction */
SPVTCA[1]\011/* SetPVectorToAxis */
SVTCA[0]\011/* SetFreedomAndProjectionVectorToAxis */
PUSHB[ ]\011/* 6 values pushed */
2 3 6 7 18 24 
MDAP[0]\011/* MoveDirectAbsPt */
MDAP[0]\011/* MoveDirectAbsPt */
MDAP[0]\011/* MoveDirectAbsPt */
MDAP[0]\011/* MoveDirectAbsPt */
MDAP[0]\011/* MoveDirectAbsPt */
MDAP[0]\011/* MoveDirectAbsPt */
SVTCA[1]\011/* SetFreedomAndProjectionVectorToAxis */
NPUSHB[ ]\011/* 9 values pushed */
2 3 6 16 17 18 22 23 24 
MDAP[0]\011/* MoveDirectAbsPt */
MDAP[0]\011/* MoveDirectAbsPt */
MDAP[0]\011/* MoveDirectAbsPt */
MDAP[0]\011/* MoveDirectAbsPt */
MDAP[0]\011/* MoveDirectAbsPt */
MDAP[0]\011/* MoveDirectAbsPt */
MDAP[0]\011/* MoveDirectAbsPt */
MDAP[0]\011/* MoveDirectAbsPt */
MDAP[0]\011/* MoveDirectAbsPt */
PUSHB[ ]\011/* 1 value pushed */
64 
SMD[ ]\011/* SetMinimumDistance */
SVTCA[0]\011/* SetFreedomAndProjectionVectorToAxis */
IUP[0]\011/* InterpolateUntPts */
IUP[1]\011/* InterpolateUntPts */";
};
width = 521;
}
);
leftKerningGroup = A;
rightKerningGroup = A;
unicode = 00C1;
},
{
color = 10;
glyphname = Abreve;
layers = (
{
components = (
{
name = A;
},
{
name = brevecomb;
transform = "{1, 0, 0, 1, 152, 259}";
}
);
hints = (
{
place = "{151, 32}";
type = Stem;
},
{
place = "{336, 33}";
type = Stem;
},
{
horizontal = 1;
place = "{860, 109}";
type = Stem;
},
{
horizontal = 1;
place = "{860, 26}";
type = Stem;
},
{
horizontal = 1;
place = "{177, 36}";
type = Stem;
},
{
horizontal = 1;
place = "{0, 21}";
target = up;
type = BottomGhost;
},
{
horizontal = 1;
place = "{737, -20}";
target = down;
type = TopGhost;
}
);
layerId = UUID0;
width = 521;
},
{
components = (
{
name = A;
},
{
name = brevecomb;
transform = "{1, 0, 0, 1, 175, 239}";
}
);
hints = (
{
place = "{155, 80}";
type = Stem;
},
{
horizontal = 1;
place = "{154, 120}";
type = Stem;
},
{
horizontal = 1;
place = "{824, 66}";
type = Stem;
},
{
horizontal = 1;
place = "{824, 139}";
type = Stem;
},
{
horizontal = 1;
place = "{0, 21}";
target = up;
type = BottomGhost;
},
{
horizontal = 1;
place = "{737, -20}";
target = down;
type = TopGhost;
}
);
layerId = "228CC867-ECE3-4F82-B853-1E58141B916C";
width = 589;
},
{
layerId = "F5CF7C91-484B-43F2-91EC-BD73E27C7962";
paths = (
{
closed = 1;
nodes = (
"4 38 OFFCURVE",
"69 0 OFFCURVE",
"104 0 QCURVE SMOOTH",
"147 0 OFFCURVE",
"155 29 QCURVE SMOOTH",
"189 154 LINE",
"400 154 LINE",
"434 29 LINE SMOOTH",
"442 0 OFFCURVE",
"485 0 QCURVE SMOOTH",
"520 0 OFFCURVE",
"585 38 OFFCURVE",
"585 64 QCURVE SMOOTH",
"585 67 OFFCURVE",
"583 75 QCURVE",
"396 685 LINE SMOOTH",
"388 710 OFFCURVE",
"331 737 OFFCURVE",
"257 737 OFFCURVE",
"200 710 OFFCURVE",
"192 685 QCURVE SMOOTH",
"6 75 LINE",
"4 67 OFFCURVE",
"4 64 QCURVE SMOOTH"
);
},
{
closed = 1;
nodes = (
"155 908 OFFCURVE",
"241 824 OFFCURVE",
"349 824 OFFCURVE",
"434 908 OFFCURVE",
"434 963 QCURVE",
"354 963 LINE",
"354 932 OFFCURVE",
"317 890 OFFCURVE",
"295 890 QCURVE SMOOTH",
"272 890 OFFCURVE",
"235 932 OFFCURVE",
"235 963 QCURVE",
"155 963 LINE"
);
},
{
closed = 1;
nodes = (
"294 542 LINE",
"367 274 LINE",
"221 274 LINE"
);
}
);
userData = {
assembly = "SVTCA[0]\011/* SetFreedomAndProjectionVectorToAxis */
PUSHB[ ]\011/* 3 values pushed */
21 1 0 
CALL[ ]\011/* CallFunction */
PUSHB[ ]\011/* 1 value pushed */
14 
SHP[1]\011/* ShiftPointByLastPoint */
PUSHB[ ]\011/* 3 values pushed */
6 3 0 
CALL[ ]\011/* CallFunction */
PUSHB[ ]\011/* 5 values pushed */
39 4 0 16 4 
CALL[ ]\011/* CallFunction */
PUSHB[ ]\011/* 5 values pushed */
18 37 21 6 13 
CALL[ ]\011/* CallFunction */
PUSHB[ ]\011/* 2 values pushed */
18 5 
MIRP[01001]\011/* MoveIndirectRelPt */
PUSHB[ ]\011/* 1 value pushed */
35 
MDAP[1]\011/* MoveDirectAbsPt */
PUSHB[ ]\011/* 5 values pushed */
28 5 0 11 4 
CALL[ ]\011/* CallFunction */
PUSHB[ ]\011/* 3 values pushed */
28 35 10 
CALL[ ]\011/* CallFunction */
PUSHB[ ]\011/* 4 values pushed */
64 28 24 9 
CALL[ ]\011/* CallFunction */
PUSHB[ ]\011/* 1 value pushed */
31 
SHP[0]\011/* ShiftPointByLastPoint */
SVTCA[1]\011/* SetFreedomAndProjectionVectorToAxis */
PUSHB[ ]\011/* 1 value pushed */
40 
MDAP[1]\011/* MoveDirectAbsPt */
PUSHB[ ]\011/* 1 value pushed */
24 
MDRP[10110]\011/* MoveDirectRelPt */
PUSHB[ ]\011/* 5 values pushed */
25 7 0 50 4 
CALL[ ]\011/* CallFunction */
PUSHB[ ]\011/* 1 value pushed */
25 
SRP0[ ]\011/* SetRefPoint0 */
PUSHB[ ]\011/* 2 values pushed */
31 1 
CALL[ ]\011/* CallFunction */
PUSHB[ ]\011/* 5 values pushed */
32 7 0 50 4 
CALL[ ]\011/* CallFunction */
PUSHB[ ]\011/* 2 values pushed */
41 1 
CALL[ ]\011/* CallFunction */
PUSHB[ ]\011/* 2 values pushed */
25 24 
SRP1[ ]\011/* SetRefPoint1 */
SRP2[ ]\011/* SetRefPoint2 */
PUSHB[ ]\011/* 2 values pushed */
18 37 
IP[ ]\011/* InterpolatePts */
IP[ ]\011/* InterpolatePts */
PUSHB[ ]\011/* 1 value pushed */
31 
SRP1[ ]\011/* SetRefPoint1 */
PUSHB[ ]\011/* 5 values pushed */
5 6 34 35 39 
DEPTH[ ]\011/* GetDepthStack */
SLOOP[ ]\011/* SetLoopVariable */
IP[ ]\011/* InterpolatePts */
PUSHB[ ]\011/* 1 value pushed */
32 
SRP2[ ]\011/* SetRefPoint2 */
PUSHB[ ]\011/* 2 values pushed */
17 38 
IP[ ]\011/* InterpolatePts */
IP[ ]\011/* InterpolatePts */
SVTCA[0]\011/* SetFreedomAndProjectionVectorToAxis */
PUSHB[ ]\011/* 2 values pushed */
18 21 
SRP1[ ]\011/* SetRefPoint1 */
SRP2[ ]\011/* SetRefPoint2 */
PUSHB[ ]\011/* 2 values pushed */
11 0 
IP[ ]\011/* InterpolatePts */
IP[ ]\011/* InterpolatePts */
IUP[0]\011/* InterpolateUntPts */
IUP[1]\011/* InterpolateUntPts */";
};
width = 589;
},
{
layerId = "4CEE6D0C-6158-494B-B4A5-6E5394691F1E";
paths = (
{
closed = 1;
nodes = (
"25 0 OFFCURVE",
"43 0 QCURVE SMOOTH",
"57 0 OFFCURVE",
"61 13 QCURVE SMOOTH",
"111 177 LINE",
"409 177 LINE",
"460 13 LINE SMOOTH",
"464 0 OFFCURVE",
"476 0 QCURVE SMOOTH",
"484 0 OFFCURVE",
"496 10 OFFCURVE",
"496 17 QCURVE SMOOTH",
"496 18 OFFCURVE",
"495 21 OFFCURVE",
"495 22 QCURVE",
"280 723 LINE",
"275 737 OFFCURVE",
"247 737 OFFCURVE",
"243 723 QCURVE SMOOTH",
"26 22 LINE",
"25 20 OFFCURVE",
"25 16 QCURVE SMOOTH"
);
},
{
closed = 1;
nodes = (
"261 661 LINE",
"398 213 LINE",
"122 213 LINE"
);
},
{
closed = 1;
nodes = (
"151 925 OFFCURVE",
"216 860 OFFCURVE",
"260 860 QCURVE SMOOTH",
"303 860 OFFCURVE",
"369 925 OFFCURVE",
"369 969 QCURVE",
"336 969 LINE",
"336 935 OFFCURVE",
"291 886 OFFCURVE",
"260 886 QCURVE SMOOTH",
"228 886 OFFCURVE",
"183 935 OFFCURVE",
"183 969 QCURVE",
"151 969 LINE"
);
}
);
userData = {
assembly = "SVTCA[0]\011/* SetFreedomAndProjectionVectorToAxis */
PUSHB[ ]\011/* 3 values pushed */
20 1 0 
CALL[ ]\011/* CallFunction */
PUSHB[ ]\011/* 1 value pushed */
13 
SHP[1]\011/* ShiftPointByLastPoint */
PUSHB[ ]\011/* 3 values pushed */
5 3 0 
CALL[ ]\011/* CallFunction */
PUSHB[ ]\011/* 5 values pushed */
17 22 20 5 13 
CALL[ ]\011/* CallFunction */
PUSHB[ ]\011/* 1 value pushed */
23 
SHP[1]\011/* ShiftPointByLastPoint */
PUSHB[ ]\011/* 2 values pushed */
17 4 
MIRP[01001]\011/* MoveIndirectRelPt */
PUSHB[ ]\011/* 1 value pushed */
16 
SHP[0]\011/* ShiftPointByLastPoint */
PUSHB[ ]\011/* 1 value pushed */
36 
MDAP[1]\011/* MoveDirectAbsPt */
PUSHB[ ]\011/* 5 values pushed */
29 5 0 70 4 
CALL[ ]\011/* CallFunction */
PUSHB[ ]\011/* 3 values pushed */
29 36 10 
CALL[ ]\011/* CallFunction */
PUSHB[ ]\011/* 4 values pushed */
64 29 33 9 
CALL[ ]\011/* CallFunction */
PUSHB[ ]\011/* 1 value pushed */
25 
SHP[0]\011/* ShiftPointByLastPoint */
SVTCA[1]\011/* SetFreedomAndProjectionVectorToAxis */
PUSHB[ ]\011/* 1 value pushed */
39 
MDAP[1]\011/* MoveDirectAbsPt */
PUSHB[ ]\011/* 1 value pushed */
25 
MDRP[10110]\011/* MoveDirectRelPt */
PUSHB[ ]\011/* 2 values pushed */
26 11 
MIRP[01001]\011/* MoveIndirectRelPt */
PUSHB[ ]\011/* 1 value pushed */
26 
SRP0[ ]\011/* SetRefPoint0 */
PUSHB[ ]\011/* 2 values pushed */
32 1 
CALL[ ]\011/* CallFunction */
PUSHB[ ]\011/* 2 values pushed */
33 11 
MIRP[01001]\011/* MoveIndirectRelPt */
PUSHB[ ]\011/* 1 value pushed */
33 
SRP0[ ]\011/* SetRefPoint0 */
PUSHB[ ]\011/* 2 values pushed */
15 1 
CALL[ ]\011/* CallFunction */
PUSHB[ ]\011/* 2 values pushed */
10 10 
MIRP[01001]\011/* MoveIndirectRelPt */
PUSHB[ ]\011/* 1 value pushed */
7 
SHP[0]\011/* ShiftPointByLastPoint */
PUSHB[ ]\011/* 3 values pushed */
15 10 10 
CALL[ ]\011/* CallFunction */
PUSHB[ ]\011/* 4 values pushed */
0 15 0 9 
CALL[ ]\011/* CallFunction */
PUSHB[ ]\011/* 2 values pushed */
40 1 
CALL[ ]\011/* CallFunction */
PUSHB[ ]\011/* 1 value pushed */
54 
SMD[ ]\011/* SetMinimumDistance */
PUSHW[ ]\011/* 3 values pushed */
15596 -5021 21 
CALL[ ]\011/* CallFunction */
SPVFS[ ]\011/* SetPVectorFromStack */
SFVTPV[ ]\011/* SetFVectorToPVector */
PUSHB[ ]\011/* 1 value pushed */
2 
SRP0[ ]\011/* SetRefPoint0 */
PUSHB[ ]\011/* 1 value pushed */
3 
MDRP[00000]\011/* MoveDirectRelPt */
PUSHB[ ]\011/* 2 values pushed */
18 5 
MIRP[11001]\011/* MoveIndirectRelPt */
PUSHB[ ]\011/* 1 value pushed */
24 
MDRP[00000]\011/* MoveDirectRelPt */
PUSHW[ ]\011/* 3 values pushed */
-15645 -4865 21 
CALL[ ]\011/* CallFunction */
SPVFS[ ]\011/* SetPVectorFromStack */
SFVTCA[1]\011/* SetFVectorToAxis */
PUSHB[ ]\011/* 1 value pushed */
16 
MDAP[0]\011/* MoveDirectAbsPt */
PUSHB[ ]\011/* 2 values pushed */
18 24 
SFVTL[0]\011/* SetFVectorToLine */
PUSHB[ ]\011/* 1 value pushed */
24 
MDRP[00000]\011/* MoveDirectRelPt */
SFVTCA[0]\011/* SetFVectorToAxis */
PUSHB[ ]\011/* 2 values pushed */
7 4 
MIRP[11001]\011/* MoveIndirectRelPt */
SFVTPV[ ]\011/* SetFVectorToPVector */
PUSHB[ ]\011/* 1 value pushed */
6 
MDRP[00000]\011/* MoveDirectRelPt */
SFVTCA[1]\011/* SetFVectorToAxis */
PUSHB[ ]\011/* 1 value pushed */
18 
SRP0[ ]\011/* SetRefPoint0 */
PUSHB[ ]\011/* 4 values pushed */
17 18 24 19 
CALL[ ]\011/* CallFunction */
PUSHB[ ]\011/* 4 values pushed */
22 18 24 19 
CALL[ ]\011/* CallFunction */
PUSHB[ ]\011/* 1 value pushed */
24 
SRP0[ ]\011/* SetRefPoint0 */
PUSHB[ ]\011/* 4 values pushed */
23 24 16 19 
CALL[ ]\011/* CallFunction */
SPVTCA[1]\011/* SetPVectorToAxis */
SVTCA[0]\011/* SetFreedomAndProjectionVectorToAxis */
PUSHB[ ]\011/* 6 values pushed */
2 3 6 7 18 24 
MDAP[0]\011/* MoveDirectAbsPt */
MDAP[0]\011/* MoveDirectAbsPt */
MDAP[0]\011/* MoveDirectAbsPt */
MDAP[0]\011/* MoveDirectAbsPt */
MDAP[0]\011/* MoveDirectAbsPt */
MDAP[0]\011/* MoveDirectAbsPt */
SVTCA[1]\011/* SetFreedomAndProjectionVectorToAxis */
NPUSHB[ ]\011/* 9 values pushed */
2 3 6 16 17 18 22 23 24 
MDAP[0]\011/* MoveDirectAbsPt */
MDAP[0]\011/* MoveDirectAbsPt */
MDAP[0]\011/* MoveDirectAbsPt */
MDAP[0]\011/* MoveDirectAbsPt */
MDAP[0]\011/* MoveDirectAbsPt */
MDAP[0]\011/* MoveDirectAbsPt */
MDAP[0]\011/* MoveDirectAbsPt */
MDAP[0]\011/* MoveDirectAbsPt */
MDAP[0]\011/* MoveDirectAbsPt */
PUSHB[ ]\011/* 1 value pushed */
64 
SMD[ ]\011/* SetMinimumDistance */
PUSHB[ ]\011/* 2 values pushed */
32 26 
SRP1[ ]\011/* SetRefPoint1 */
SRP2[ ]\011/* SetRefPoint2 */
PUSHB[ ]\011/* 1 value pushed */
36 
IP[ ]\011/* InterpolatePts */
SVTCA[0]\011/* SetFreedomAndProjectionVectorToAxis */
IUP[0]\011/* InterpolateUntPts */
IUP[1]\011/* InterpolateUntPts */";
};
width = 521;
}
);
leftKerningGroup = A;
rightKerningGroup = A;
unicode = 0102;
},
{
color = 10;
glyphname = Acircumflex;
layers = (
{
components = (
{
name = A;
},
{
name = circumflexcomb;
transform = "{1, 0, 0, 1, 131, 259}";
}
);
hints = (
{
horizontal = 1;
place = "{177, 36}";
type = Stem;
},
{
horizontal = 1;
place = "{0, 21}";
target = up;
type = BottomGhost;
},
{
horizontal = 1;
place = "{737, -20}";
target = down;
type = TopGhost;
},
{
horizontal = 1;
place = "{953, -20}";
target = down;
type = TopGhost;
}
);
layerId = UUID0;
width = 521;
},
{
components = (
{
name = A;
},
{
name = circumflexcomb;
transform = "{1, 0, 0, 1, 159, 238}";
}
);
hints = (
{
horizontal = 1;
place = "{0, 21}";
target = up;
type = BottomGhost;
},
{
horizontal = 1;
place = "{737, -20}";
target = down;
type = TopGhost;
},
{
horizontal = 1;
place = "{959, -20}";
target = down;
type = TopGhost;
}
);
layerId = "228CC867-ECE3-4F82-B853-1E58141B916C";
width = 589;
},
{
layerId = "F5CF7C91-484B-43F2-91EC-BD73E27C7962";
paths = (
{
closed = 1;
nodes = (
"4 38 OFFCURVE",
"69 0 OFFCURVE",
"104 0 QCURVE SMOOTH",
"147 0 OFFCURVE",
"155 29 QCURVE SMOOTH",
"189 154 LINE",
"400 154 LINE",
"434 29 LINE SMOOTH",
"442 0 OFFCURVE",
"485 0 QCURVE SMOOTH",
"520 0 OFFCURVE",
"585 38 OFFCURVE",
"585 64 QCURVE SMOOTH",
"585 67 OFFCURVE",
"583 75 QCURVE",
"396 685 LINE SMOOTH",
"388 710 OFFCURVE",
"331 737 OFFCURVE",
"257 737 OFFCURVE",
"200 710 OFFCURVE",
"192 685 QCURVE SMOOTH",
"6 75 LINE",
"4 67 OFFCURVE",
"4 64 QCURVE SMOOTH"
);
},
{
closed = 1;
nodes = (
"148 836 OFFCURVE",
"166 808 OFFCURVE",
"179 808 QCURVE SMOOTH",
"184 808 OFFCURVE",
"190 811 QCURVE SMOOTH",
"294 867 LINE",
"398 811 LINE SMOOTH",
"404 808 OFFCURVE",
"409 808 QCURVE SMOOTH",
"422 808 OFFCURVE",
"440 836 OFFCURVE",
"440 854 QCURVE SMOOTH",
"440 884 OFFCURVE",
"415 898 QCURVE SMOOTH",
"311 954 LINE SMOOTH",
"301 959 OFFCURVE",
"287 959 OFFCURVE",
"277 954 QCURVE SMOOTH",
"173 898 LINE SMOOTH",
"148 884 OFFCURVE",
"148 854 QCURVE SMOOTH"
);
},
{
closed = 1;
nodes = (
"294 542 LINE",
"367 274 LINE",
"221 274 LINE"
);
}
);
userData = {
assembly = "SVTCA[0]\011/* SetFreedomAndProjectionVectorToAxis */
PUSHB[ ]\011/* 3 values pushed */
21 1 0 
CALL[ ]\011/* CallFunction */
PUSHB[ ]\011/* 1 value pushed */
14 
SHP[1]\011/* ShiftPointByLastPoint */
PUSHB[ ]\011/* 3 values pushed */
6 3 0 
CALL[ ]\011/* CallFunction */
PUSHB[ ]\011/* 5 values pushed */
47 4 0 16 4 
CALL[ ]\011/* CallFunction */
PUSHB[ ]\011/* 5 values pushed */
18 45 21 6 13 
CALL[ ]\011/* CallFunction */
PUSHB[ ]\011/* 2 values pushed */
18 5 
MIRP[01001]\011/* MoveIndirectRelPt */
PUSHB[ ]\011/* 1 value pushed */
39 
MDAP[1]\011/* MoveDirectAbsPt */
PUSHB[ ]\011/* 5 values pushed */
29 5 0 19 4 
CALL[ ]\011/* CallFunction */
PUSHB[ ]\011/* 3 values pushed */
39 29 10 
CALL[ ]\011/* CallFunction */
PUSHB[ ]\011/* 4 values pushed */
0 39 42 9 
CALL[ ]\011/* CallFunction */
PUSHB[ ]\011/* 1 value pushed */
36 
SHP[0]\011/* ShiftPointByLastPoint */
SVTCA[1]\011/* SetFreedomAndProjectionVectorToAxis */
PUSHB[ ]\011/* 1 value pushed */
48 
MDAP[1]\011/* MoveDirectAbsPt */
PUSHB[ ]\011/* 2 values pushed */
49 1 
CALL[ ]\011/* CallFunction */
SVTCA[0]\011/* SetFreedomAndProjectionVectorToAxis */
PUSHB[ ]\011/* 2 values pushed */
18 21 
SRP1[ ]\011/* SetRefPoint1 */
SRP2[ ]\011/* SetRefPoint2 */
PUSHB[ ]\011/* 2 values pushed */
11 0 
IP[ ]\011/* InterpolatePts */
IP[ ]\011/* InterpolatePts */
IUP[0]\011/* InterpolateUntPts */
IUP[1]\011/* InterpolateUntPts */";
};
width = 589;
},
{
layerId = "4CEE6D0C-6158-494B-B4A5-6E5394691F1E";
paths = (
{
closed = 1;
nodes = (
"25 0 OFFCURVE",
"43 0 QCURVE SMOOTH",
"57 0 OFFCURVE",
"61 13 QCURVE SMOOTH",
"111 177 LINE",
"409 177 LINE",
"460 13 LINE SMOOTH",
"464 0 OFFCURVE",
"476 0 QCURVE SMOOTH",
"484 0 OFFCURVE",
"496 10 OFFCURVE",
"496 17 QCURVE SMOOTH",
"496 18 OFFCURVE",
"495 21 OFFCURVE",
"495 22 QCURVE",
"280 723 LINE",
"275 737 OFFCURVE",
"247 737 OFFCURVE",
"243 723 QCURVE SMOOTH",
"26 22 LINE",
"25 20 OFFCURVE",
"25 16 QCURVE SMOOTH"
);
},
{
closed = 1;
nodes = (
"261 661 LINE",
"398 213 LINE",
"122 213 LINE"
);
},
{
closed = 1;
nodes = (
"130 870 OFFCURVE",
"141 859 OFFCURVE",
"148 859 QCURVE SMOOTH",
"149 859 OFFCURVE",
"155 862 OFFCURVE",
"156 862 QCURVE",
"260 918 LINE",
"364 863 LINE",
"373 860 LINE",
"380 860 OFFCURVE",
"390 869 OFFCURVE",
"390 876 QCURVE SMOOTH",
"390 888 OFFCURVE",
"381 893 QCURVE SMOOTH",
"277 948 LINE",
"269 953 OFFCURVE",
"251 953 OFFCURVE",
"243 948 QCURVE",
"139 892 LINE",
"130 888 OFFCURVE",
"130 878 QCURVE SMOOTH"
);
}
);
userData = {
assembly = "SVTCA[0]\011/* SetFreedomAndProjectionVectorToAxis */
PUSHB[ ]\011/* 3 values pushed */
20 1 0 
CALL[ ]\011/* CallFunction */
PUSHB[ ]\011/* 1 value pushed */
13 
SHP[1]\011/* ShiftPointByLastPoint */
PUSHB[ ]\011/* 3 values pushed */
5 3 0 
CALL[ ]\011/* CallFunction */
PUSHB[ ]\011/* 5 values pushed */
17 22 20 5 13 
CALL[ ]\011/* CallFunction */
PUSHB[ ]\011/* 1 value pushed */
23 
SHP[1]\011/* ShiftPointByLastPoint */
PUSHB[ ]\011/* 2 values pushed */
17 4 
MIRP[01001]\011/* MoveIndirectRelPt */
PUSHB[ ]\011/* 1 value pushed */
16 
SHP[0]\011/* ShiftPointByLastPoint */
SVTCA[1]\011/* SetFreedomAndProjectionVectorToAxis */
PUSHB[ ]\011/* 1 value pushed */
46 
MDAP[1]\011/* MoveDirectAbsPt */
PUSHB[ ]\011/* 1 value pushed */
15 
MDRP[10110]\011/* MoveDirectRelPt */
PUSHB[ ]\011/* 2 values pushed */
10 10 
MIRP[01001]\011/* MoveIndirectRelPt */
PUSHB[ ]\011/* 1 value pushed */
7 
SHP[0]\011/* ShiftPointByLastPoint */
PUSHB[ ]\011/* 3 values pushed */
15 10 10 
CALL[ ]\011/* CallFunction */
PUSHB[ ]\011/* 4 values pushed */
0 15 0 9 
CALL[ ]\011/* CallFunction */
PUSHB[ ]\011/* 2 values pushed */
47 1 
CALL[ ]\011/* CallFunction */
PUSHB[ ]\011/* 1 value pushed */
54 
SMD[ ]\011/* SetMinimumDistance */
PUSHW[ ]\011/* 3 values pushed */
15596 -5021 21 
CALL[ ]\011/* CallFunction */
SPVFS[ ]\011/* SetPVectorFromStack */
SFVTPV[ ]\011/* SetFVectorToPVector */
PUSHB[ ]\011/* 1 value pushed */
2 
SRP0[ ]\011/* SetRefPoint0 */
PUSHB[ ]\011/* 1 value pushed */
3 
MDRP[00000]\011/* MoveDirectRelPt */
PUSHB[ ]\011/* 2 values pushed */
18 5 
MIRP[11001]\011/* MoveIndirectRelPt */
PUSHB[ ]\011/* 1 value pushed */
24 
MDRP[00000]\011/* MoveDirectRelPt */
PUSHW[ ]\011/* 3 values pushed */
-15645 -4865 21 
CALL[ ]\011/* CallFunction */
SPVFS[ ]\011/* SetPVectorFromStack */
SFVTCA[1]\011/* SetFVectorToAxis */
PUSHB[ ]\011/* 1 value pushed */
16 
MDAP[0]\011/* MoveDirectAbsPt */
PUSHB[ ]\011/* 2 values pushed */
18 24 
SFVTL[0]\011/* SetFVectorToLine */
PUSHB[ ]\011/* 1 value pushed */
24 
MDRP[00000]\011/* MoveDirectRelPt */
SFVTCA[0]\011/* SetFVectorToAxis */
PUSHB[ ]\011/* 2 values pushed */
7 4 
MIRP[11001]\011/* MoveIndirectRelPt */
SFVTPV[ ]\011/* SetFVectorToPVector */
PUSHB[ ]\011/* 1 value pushed */
6 
MDRP[00000]\011/* MoveDirectRelPt */
SFVTCA[1]\011/* SetFVectorToAxis */
PUSHB[ ]\011/* 1 value pushed */
18 
SRP0[ ]\011/* SetRefPoint0 */
PUSHB[ ]\011/* 4 values pushed */
17 18 24 19 
CALL[ ]\011/* CallFunction */
PUSHB[ ]\011/* 4 values pushed */
22 18 24 19 
CALL[ ]\011/* CallFunction */
PUSHB[ ]\011/* 1 value pushed */
24 
SRP0[ ]\011/* SetRefPoint0 */
PUSHB[ ]\011/* 4 values pushed */
23 24 16 19 
CALL[ ]\011/* CallFunction */
SPVTCA[1]\011/* SetPVectorToAxis */
SVTCA[0]\011/* SetFreedomAndProjectionVectorToAxis */
PUSHB[ ]\011/* 6 values pushed */
2 3 6 7 18 24 
MDAP[0]\011/* MoveDirectAbsPt */
MDAP[0]\011/* MoveDirectAbsPt */
MDAP[0]\011/* MoveDirectAbsPt */
MDAP[0]\011/* MoveDirectAbsPt */
MDAP[0]\011/* MoveDirectAbsPt */
MDAP[0]\011/* MoveDirectAbsPt */
SVTCA[1]\011/* SetFreedomAndProjectionVectorToAxis */
NPUSHB[ ]\011/* 9 values pushed */
2 3 6 16 17 18 22 23 24 
MDAP[0]\011/* MoveDirectAbsPt */
MDAP[0]\011/* MoveDirectAbsPt */
MDAP[0]\011/* MoveDirectAbsPt */
MDAP[0]\011/* MoveDirectAbsPt */
MDAP[0]\011/* MoveDirectAbsPt */
MDAP[0]\011/* MoveDirectAbsPt */
MDAP[0]\011/* MoveDirectAbsPt */
MDAP[0]\011/* MoveDirectAbsPt */
MDAP[0]\011/* MoveDirectAbsPt */
PUSHB[ ]\011/* 1 value pushed */
64 
SMD[ ]\011/* SetMinimumDistance */
SVTCA[0]\011/* SetFreedomAndProjectionVectorToAxis */
IUP[0]\011/* InterpolateUntPts */
IUP[1]\011/* InterpolateUntPts */";
};
width = 521;
}
);
leftKerningGroup = A;
rightKerningGroup = A;
unicode = 00C2;
},
{
color = 10;
glyphname = Adieresis;
layers = (
{
components = (
{
name = A;
},
{
name = dieresiscomb;
transform = "{1, 0, 0, 1, 176, 259}";
}
);
hints = (
{
place = "{175, 59}";
type = Stem;
},
{
place = "{286, 59}";
type = Stem;
},
{
horizontal = 1;
place = "{859, 59}";
type = Stem;
},
{
horizontal = 1;
place = "{177, 36}";
type = Stem;
},
{
horizontal = 1;
place = "{0, 21}";
target = up;
type = BottomGhost;
},
{
horizontal = 1;
place = "{737, -20}";
target = down;
type = TopGhost;
}
);
layerId = UUID0;
width = 521;
},
{
components = (
{
name = A;
},
{
name = dieresiscomb;
transform = "{1, 0, 0, 1, 142, 238}";
}
);
hints = (
{
place = "{159, 113}";
type = Stem;
},
{
place = "{319, 113}";
type = Stem;
},
{
horizontal = 1;
place = "{154, 120}";
type = Stem;
},
{
horizontal = 1;
place = "{810, 117}";
type = Stem;
},
{
horizontal = 1;
place = "{0, 21}";
target = up;
type = BottomGhost;
},
{
horizontal = 1;
place = "{737, -20}";
target = down;
type = TopGhost;
}
);
layerId = "228CC867-ECE3-4F82-B853-1E58141B916C";
width = 589;
},
{
layerId = "F5CF7C91-484B-43F2-91EC-BD73E27C7962";
paths = (
{
closed = 1;
nodes = (
"4 38 OFFCURVE",
"69 0 OFFCURVE",
"104 0 QCURVE SMOOTH",
"147 0 OFFCURVE",
"155 29 QCURVE SMOOTH",
"189 154 LINE",
"400 154 LINE",
"434 29 LINE SMOOTH",
"442 0 OFFCURVE",
"485 0 QCURVE SMOOTH",
"520 0 OFFCURVE",
"585 38 OFFCURVE",
"585 64 QCURVE SMOOTH",
"585 67 OFFCURVE",
"583 75 QCURVE",
"396 685 LINE SMOOTH",
"388 710 OFFCURVE",
"331 737 OFFCURVE",
"257 737 OFFCURVE",
"200 710 OFFCURVE",
"192 685 QCURVE SMOOTH",
"6 75 LINE",
"4 67 OFFCURVE",
"4 64 QCURVE SMOOTH"
);
},
{
closed = 1;
nodes = (
"272 892 OFFCURVE",
"239 927 OFFCURVE",
"193 927 OFFCURVE",
"159 892 OFFCURVE",
"159 846 OFFCURVE",
"193 810 OFFCURVE",
"239 810 OFFCURVE",
"272 845 OFFCURVE",
"272 869 QCURVE SMOOTH"
);
},
{
closed = 1;
nodes = (
"294 542 LINE",
"367 274 LINE",
"221 274 LINE"
);
},
{
closed = 1;
nodes = (
"432 892 OFFCURVE",
"399 927 OFFCURVE",
"353 927 OFFCURVE",
"319 892 OFFCURVE",
"319 846 OFFCURVE",
"353 810 OFFCURVE",
"399 810 OFFCURVE",
"432 845 OFFCURVE",
"432 869 QCURVE SMOOTH"
);
}
);
userData = {
assembly = "SVTCA[0]\011/* SetFreedomAndProjectionVectorToAxis */
PUSHB[ ]\011/* 3 values pushed */
21 1 0 
CALL[ ]\011/* CallFunction */
PUSHB[ ]\011/* 1 value pushed */
14 
SHP[1]\011/* ShiftPointByLastPoint */
PUSHB[ ]\011/* 3 values pushed */
6 3 0 
CALL[ ]\011/* CallFunction */
PUSHB[ ]\011/* 5 values pushed */
35 4 0 16 4 
CALL[ ]\011/* CallFunction */
PUSHB[ ]\011/* 5 values pushed */
18 33 21 6 13 
CALL[ ]\011/* CallFunction */
PUSHB[ ]\011/* 2 values pushed */
18 5 
MIRP[01001]\011/* MoveIndirectRelPt */
PUSHB[ ]\011/* 1 value pushed */
32 
MDAP[1]\011/* MoveDirectAbsPt */
PUSHB[ ]\011/* 1 value pushed */
43 
SHP[1]\011/* ShiftPointByLastPoint */
PUSHB[ ]\011/* 2 values pushed */
27 5 
MIRP[01001]\011/* MoveIndirectRelPt */
PUSHB[ ]\011/* 1 value pushed */
38 
SHP[0]\011/* ShiftPointByLastPoint */
SVTCA[1]\011/* SetFreedomAndProjectionVectorToAxis */
PUSHB[ ]\011/* 1 value pushed */
45 
MDAP[1]\011/* MoveDirectAbsPt */
PUSHB[ ]\011/* 1 value pushed */
25 
MDRP[10110]\011/* MoveDirectRelPt */
PUSHB[ ]\011/* 5 values pushed */
29 8 0 16 4 
CALL[ ]\011/* CallFunction */
PUSHB[ ]\011/* 1 value pushed */
29 
SRP0[ ]\011/* SetRefPoint0 */
PUSHB[ ]\011/* 2 values pushed */
37 1 
CALL[ ]\011/* CallFunction */
PUSHB[ ]\011/* 5 values pushed */
41 8 0 16 4 
CALL[ ]\011/* CallFunction */
PUSHB[ ]\011/* 2 values pushed */
46 1 
CALL[ ]\011/* CallFunction */
PUSHB[ ]\011/* 2 values pushed */
29 25 
SRP1[ ]\011/* SetRefPoint1 */
SRP2[ ]\011/* SetRefPoint2 */
PUSHB[ ]\011/* 3 values pushed */
5 18 33 
IP[ ]\011/* InterpolatePts */
IP[ ]\011/* InterpolatePts */
IP[ ]\011/* InterpolatePts */
PUSHB[ ]\011/* 1 value pushed */
37 
SRP1[ ]\011/* SetRefPoint1 */
PUSHB[ ]\011/* 1 value pushed */
35 
IP[ ]\011/* InterpolatePts */
PUSHB[ ]\011/* 1 value pushed */
41 
SRP2[ ]\011/* SetRefPoint2 */
PUSHB[ ]\011/* 3 values pushed */
6 17 34 
IP[ ]\011/* InterpolatePts */
IP[ ]\011/* InterpolatePts */
IP[ ]\011/* InterpolatePts */
SVTCA[0]\011/* SetFreedomAndProjectionVectorToAxis */
PUSHB[ ]\011/* 2 values pushed */
18 21 
SRP1[ ]\011/* SetRefPoint1 */
SRP2[ ]\011/* SetRefPoint2 */
PUSHB[ ]\011/* 2 values pushed */
11 0 
IP[ ]\011/* InterpolatePts */
IP[ ]\011/* InterpolatePts */
IUP[0]\011/* InterpolateUntPts */
IUP[1]\011/* InterpolateUntPts */";
};
width = 589;
},
{
layerId = "4CEE6D0C-6158-494B-B4A5-6E5394691F1E";
paths = (
{
closed = 1;
nodes = (
"25 0 OFFCURVE",
"43 0 QCURVE SMOOTH",
"57 0 OFFCURVE",
"61 13 QCURVE SMOOTH",
"111 177 LINE",
"409 177 LINE",
"460 13 LINE SMOOTH",
"464 0 OFFCURVE",
"476 0 QCURVE SMOOTH",
"484 0 OFFCURVE",
"496 10 OFFCURVE",
"496 17 QCURVE SMOOTH",
"496 18 OFFCURVE",
"495 21 OFFCURVE",
"495 22 QCURVE",
"280 723 LINE",
"275 737 OFFCURVE",
"247 737 OFFCURVE",
"243 723 QCURVE SMOOTH",
"26 22 LINE",
"25 20 OFFCURVE",
"25 16 QCURVE SMOOTH"
);
},
{
closed = 1;
nodes = (
"261 661 LINE",
"398 213 LINE",
"122 213 LINE"
);
},
{
closed = 1;
nodes = (
"218 859 OFFCURVE",
"234 876 OFFCURVE",
"234 902 OFFCURVE",
"218 918 OFFCURVE",
"192 918 OFFCURVE",
"175 902 OFFCURVE",
"175 876 OFFCURVE",
"192 859 OFFCURVE"
);
},
{
closed = 1;
nodes = (
"329 859 OFFCURVE",
"345 876 OFFCURVE",
"345 902 OFFCURVE",
"329 918 OFFCURVE",
"303 918 OFFCURVE",
"286 902 OFFCURVE",
"286 876 OFFCURVE",
"303 859 OFFCURVE"
);
}
);
userData = {
assembly = "SVTCA[0]\011/* SetFreedomAndProjectionVectorToAxis */
PUSHB[ ]\011/* 3 values pushed */
20 1 0 
CALL[ ]\011/* CallFunction */
PUSHB[ ]\011/* 1 value pushed */
13 
SHP[1]\011/* ShiftPointByLastPoint */
PUSHB[ ]\011/* 3 values pushed */
5 3 0 
CALL[ ]\011/* CallFunction */
PUSHB[ ]\011/* 5 values pushed */
17 22 20 5 13 
CALL[ ]\011/* CallFunction */
PUSHB[ ]\011/* 1 value pushed */
23 
SHP[1]\011/* ShiftPointByLastPoint */
PUSHB[ ]\011/* 2 values pushed */
17 4 
MIRP[01001]\011/* MoveIndirectRelPt */
PUSHB[ ]\011/* 1 value pushed */
16 
SHP[0]\011/* ShiftPointByLastPoint */
PUSHB[ ]\011/* 1 value pushed */
32 
MDAP[1]\011/* MoveDirectAbsPt */
PUSHB[ ]\011/* 1 value pushed */
39 
SHP[1]\011/* ShiftPointByLastPoint */
PUSHB[ ]\011/* 2 values pushed */
28 8 
MIRP[01001]\011/* MoveIndirectRelPt */
PUSHB[ ]\011/* 1 value pushed */
35 
SHP[0]\011/* ShiftPointByLastPoint */
SVTCA[1]\011/* SetFreedomAndProjectionVectorToAxis */
PUSHB[ ]\011/* 1 value pushed */
41 
MDAP[1]\011/* MoveDirectAbsPt */
PUSHB[ ]\011/* 1 value pushed */
26 
MDRP[10110]\011/* MoveDirectRelPt */
PUSHB[ ]\011/* 2 values pushed */
30 13 
MIRP[01001]\011/* MoveIndirectRelPt */
PUSHB[ ]\011/* 1 value pushed */
30 
SRP0[ ]\011/* SetRefPoint0 */
PUSHB[ ]\011/* 2 values pushed */
34 1 
CALL[ ]\011/* CallFunction */
PUSHB[ ]\011/* 2 values pushed */
38 13 
MIRP[01001]\011/* MoveIndirectRelPt */
PUSHB[ ]\011/* 1 value pushed */
38 
SRP0[ ]\011/* SetRefPoint0 */
PUSHB[ ]\011/* 2 values pushed */
15 1 
CALL[ ]\011/* CallFunction */
PUSHB[ ]\011/* 2 values pushed */
10 10 
MIRP[01001]\011/* MoveIndirectRelPt */
PUSHB[ ]\011/* 1 value pushed */
7 
SHP[0]\011/* ShiftPointByLastPoint */
PUSHB[ ]\011/* 3 values pushed */
15 10 10 
CALL[ ]\011/* CallFunction */
PUSHB[ ]\011/* 4 values pushed */
0 15 0 9 
CALL[ ]\011/* CallFunction */
PUSHB[ ]\011/* 2 values pushed */
42 1 
CALL[ ]\011/* CallFunction */
PUSHB[ ]\011/* 1 value pushed */
54 
SMD[ ]\011/* SetMinimumDistance */
PUSHW[ ]\011/* 3 values pushed */
15596 -5021 21 
CALL[ ]\011/* CallFunction */
SPVFS[ ]\011/* SetPVectorFromStack */
SFVTPV[ ]\011/* SetFVectorToPVector */
PUSHB[ ]\011/* 1 value pushed */
2 
SRP0[ ]\011/* SetRefPoint0 */
PUSHB[ ]\011/* 1 value pushed */
3 
MDRP[00000]\011/* MoveDirectRelPt */
PUSHB[ ]\011/* 2 values pushed */
18 5 
MIRP[11001]\011/* MoveIndirectRelPt */
PUSHB[ ]\011/* 1 value pushed */
24 
MDRP[00000]\011/* MoveDirectRelPt */
PUSHW[ ]\011/* 3 values pushed */
-15645 -4865 21 
CALL[ ]\011/* CallFunction */
SPVFS[ ]\011/* SetPVectorFromStack */
SFVTCA[1]\011/* SetFVectorToAxis */
PUSHB[ ]\011/* 1 value pushed */
16 
MDAP[0]\011/* MoveDirectAbsPt */
PUSHB[ ]\011/* 2 values pushed */
18 24 
SFVTL[0]\011/* SetFVectorToLine */
PUSHB[ ]\011/* 1 value pushed */
24 
MDRP[00000]\011/* MoveDirectRelPt */
SFVTCA[0]\011/* SetFVectorToAxis */
PUSHB[ ]\011/* 2 values pushed */
7 4 
MIRP[11001]\011/* MoveIndirectRelPt */
SFVTPV[ ]\011/* SetFVectorToPVector */
PUSHB[ ]\011/* 1 value pushed */
6 
MDRP[00000]\011/* MoveDirectRelPt */
SFVTCA[1]\011/* SetFVectorToAxis */
PUSHB[ ]\011/* 1 value pushed */
18 
SRP0[ ]\011/* SetRefPoint0 */
PUSHB[ ]\011/* 4 values pushed */
17 18 24 19 
CALL[ ]\011/* CallFunction */
PUSHB[ ]\011/* 4 values pushed */
22 18 24 19 
CALL[ ]\011/* CallFunction */
PUSHB[ ]\011/* 1 value pushed */
24 
SRP0[ ]\011/* SetRefPoint0 */
PUSHB[ ]\011/* 4 values pushed */
23 24 16 19 
CALL[ ]\011/* CallFunction */
SPVTCA[1]\011/* SetPVectorToAxis */
SVTCA[0]\011/* SetFreedomAndProjectionVectorToAxis */
PUSHB[ ]\011/* 6 values pushed */
2 3 6 7 18 24 
MDAP[0]\011/* MoveDirectAbsPt */
MDAP[0]\011/* MoveDirectAbsPt */
MDAP[0]\011/* MoveDirectAbsPt */
MDAP[0]\011/* MoveDirectAbsPt */
MDAP[0]\011/* MoveDirectAbsPt */
MDAP[0]\011/* MoveDirectAbsPt */
SVTCA[1]\011/* SetFreedomAndProjectionVectorToAxis */
NPUSHB[ ]\011/* 9 values pushed */
2 3 6 16 17 18 22 23 24 
MDAP[0]\011/* MoveDirectAbsPt */
MDAP[0]\011/* MoveDirectAbsPt */
MDAP[0]\011/* MoveDirectAbsPt */
MDAP[0]\011/* MoveDirectAbsPt */
MDAP[0]\011/* MoveDirectAbsPt */
MDAP[0]\011/* MoveDirectAbsPt */
MDAP[0]\011/* MoveDirectAbsPt */
MDAP[0]\011/* MoveDirectAbsPt */
MDAP[0]\011/* MoveDirectAbsPt */
PUSHB[ ]\011/* 1 value pushed */
64 
SMD[ ]\011/* SetMinimumDistance */
SVTCA[0]\011/* SetFreedomAndProjectionVectorToAxis */
IUP[0]\011/* InterpolateUntPts */
IUP[1]\011/* InterpolateUntPts */";
};
width = 521;
}
);
leftKerningGroup = A;
rightKerningGroup = A;
unicode = 00C4;
},
{
color = 10;
glyphname = Agrave;
layers = (
{
components = (
{
name = A;
},
{
name = gravecomb;
transform = "{1, 0, 0, 1, 194, 259}";
}
);
hints = (
{
horizontal = 1;
place = "{177, 36}";
type = Stem;
},
{
horizontal = 1;
place = "{0, 21}";
target = up;
type = BottomGhost;
},
{
horizontal = 1;
place = "{737, -20}";
target = down;
type = TopGhost;
},
{
horizontal = 1;
place = "{953, -20}";
target = down;
type = TopGhost;
}
);
layerId = UUID0;
width = 521;
},
{
components = (
{
name = A;
},
{
name = gravecomb;
transform = "{1, 0, 0, 1, 158, 238}";
}
);
hints = (
{
place = "{166, 221}";
type = Stem;
},
{
horizontal = 1;
place = "{154, 120}";
type = Stem;
},
{
horizontal = 1;
place = "{0, 21}";
target = up;
type = BottomGhost;
},
{
horizontal = 1;
place = "{737, -20}";
target = down;
type = TopGhost;
},
{
horizontal = 1;
place = "{959, -20}";
target = down;
type = TopGhost;
}
);
layerId = "228CC867-ECE3-4F82-B853-1E58141B916C";
width = 589;
},
{
layerId = "F5CF7C91-484B-43F2-91EC-BD73E27C7962";
paths = (
{
closed = 1;
nodes = (
"4 38 OFFCURVE",
"69 0 OFFCURVE",
"104 0 QCURVE SMOOTH",
"147 0 OFFCURVE",
"155 29 QCURVE SMOOTH",
"189 154 LINE",
"400 154 LINE",
"434 29 LINE SMOOTH",
"442 0 OFFCURVE",
"485 0 QCURVE SMOOTH",
"520 0 OFFCURVE",
"585 38 OFFCURVE",
"585 64 QCURVE SMOOTH",
"585 67 OFFCURVE",
"583 75 QCURVE",
"396 685 LINE SMOOTH",
"388 710 OFFCURVE",
"331 737 OFFCURVE",
"257 737 OFFCURVE",
"200 710 OFFCURVE",
"192 685 QCURVE SMOOTH",
"6 75 LINE",
"4 67 OFFCURVE",
"4 64 QCURVE SMOOTH"
);
},
{
closed = 1;
nodes = (
"166 877 OFFCURVE",
"186 867 QCURVE SMOOTH",
"326 802 LINE",
"336 798 OFFCURVE",
"341 798 QCURVE SMOOTH",
"360 798 OFFCURVE",
"387 835 OFFCURVE",
"387 856 QCURVE SMOOTH",
"387 881 OFFCURVE",
"367 891 QCURVE SMOOTH",
"227 956 LINE SMOOTH",
"220 959 OFFCURVE",
"213 959 QCURVE SMOOTH",
"194 959 OFFCURVE",
"166 922 OFFCURVE",
"166 901 QCURVE SMOOTH"
);
},
{
closed = 1;
nodes = (
"294 542 LINE",
"367 274 LINE",
"221 274 LINE"
);
}
);
userData = {
assembly = "SVTCA[0]\011/* SetFreedomAndProjectionVectorToAxis */
PUSHB[ ]\011/* 3 values pushed */
21 1 0 
CALL[ ]\011/* CallFunction */
PUSHB[ ]\011/* 1 value pushed */
14 
SHP[1]\011/* ShiftPointByLastPoint */
PUSHB[ ]\011/* 3 values pushed */
6 3 0 
CALL[ ]\011/* CallFunction */
PUSHB[ ]\011/* 5 values pushed */
42 4 0 16 4 
CALL[ ]\011/* CallFunction */
PUSHB[ ]\011/* 5 values pushed */
18 40 21 6 13 
CALL[ ]\011/* CallFunction */
PUSHB[ ]\011/* 2 values pushed */
18 5 
MIRP[01001]\011/* MoveIndirectRelPt */
SVTCA[1]\011/* SetFreedomAndProjectionVectorToAxis */
PUSHB[ ]\011/* 1 value pushed */
43 
MDAP[1]\011/* MoveDirectAbsPt */
PUSHB[ ]\011/* 2 values pushed */
44 1 
CALL[ ]\011/* CallFunction */
SVTCA[0]\011/* SetFreedomAndProjectionVectorToAxis */
PUSHB[ ]\011/* 2 values pushed */
18 21 
SRP1[ ]\011/* SetRefPoint1 */
SRP2[ ]\011/* SetRefPoint2 */
PUSHB[ ]\011/* 2 values pushed */
11 0 
IP[ ]\011/* InterpolatePts */
IP[ ]\011/* InterpolatePts */
IUP[0]\011/* InterpolateUntPts */
IUP[1]\011/* InterpolateUntPts */";
};
width = 589;
},
{
layerId = "4CEE6D0C-6158-494B-B4A5-6E5394691F1E";
paths = (
{
closed = 1;
nodes = (
"25 0 OFFCURVE",
"43 0 QCURVE SMOOTH",
"57 0 OFFCURVE",
"61 13 QCURVE SMOOTH",
"111 177 LINE",
"409 177 LINE",
"460 13 LINE SMOOTH",
"464 0 OFFCURVE",
"476 0 QCURVE SMOOTH",
"484 0 OFFCURVE",
"496 10 OFFCURVE",
"496 17 QCURVE SMOOTH",
"496 18 OFFCURVE",
"495 21 OFFCURVE",
"495 22 QCURVE",
"280 723 LINE",
"275 737 OFFCURVE",
"247 737 OFFCURVE",
"243 723 QCURVE SMOOTH",
"26 22 LINE",
"25 20 OFFCURVE",
"25 16 QCURVE SMOOTH"
);
},
{
closed = 1;
nodes = (
"261 661 LINE",
"398 213 LINE",
"122 213 LINE"
);
},
{
closed = 1;
nodes = (
"194 923 OFFCURVE",
"204 917 QCURVE SMOOTH",
"299 863 LINE SMOOTH",
"304 860 OFFCURVE",
"308 860 QCURVE SMOOTH",
"316 860 OFFCURVE",
"327 871 OFFCURVE",
"327 878 QCURVE SMOOTH",
"327 887 OFFCURVE",
"319 891 QCURVE",
"217 951 LINE",
"213 953 OFFCURVE",
"210 953 QCURVE SMOOTH",
"194 953 OFFCURVE",
"194 935 QCURVE SMOOTH"
);
}
);
userData = {
assembly = "SVTCA[0]\011/* SetFreedomAndProjectionVectorToAxis */
PUSHB[ ]\011/* 3 values pushed */
20 1 0 
CALL[ ]\011/* CallFunction */
PUSHB[ ]\011/* 1 value pushed */
13 
SHP[1]\011/* ShiftPointByLastPoint */
PUSHB[ ]\011/* 3 values pushed */
5 3 0 
CALL[ ]\011/* CallFunction */
PUSHB[ ]\011/* 5 values pushed */
17 22 20 5 13 
CALL[ ]\011/* CallFunction */
PUSHB[ ]\011/* 1 value pushed */
23 
SHP[1]\011/* ShiftPointByLastPoint */
PUSHB[ ]\011/* 2 values pushed */
17 4 
MIRP[01001]\011/* MoveIndirectRelPt */
PUSHB[ ]\011/* 1 value pushed */
16 
SHP[0]\011/* ShiftPointByLastPoint */
SVTCA[1]\011/* SetFreedomAndProjectionVectorToAxis */
PUSHB[ ]\011/* 1 value pushed */
40 
MDAP[1]\011/* MoveDirectAbsPt */
PUSHB[ ]\011/* 1 value pushed */
15 
MDRP[10110]\011/* MoveDirectRelPt */
PUSHB[ ]\011/* 2 values pushed */
10 10 
MIRP[01001]\011/* MoveIndirectRelPt */
PUSHB[ ]\011/* 1 value pushed */
7 
SHP[0]\011/* ShiftPointByLastPoint */
PUSHB[ ]\011/* 3 values pushed */
15 10 10 
CALL[ ]\011/* CallFunction */
PUSHB[ ]\011/* 4 values pushed */
0 15 0 9 
CALL[ ]\011/* CallFunction */
PUSHB[ ]\011/* 2 values pushed */
41 1 
CALL[ ]\011/* CallFunction */
PUSHB[ ]\011/* 1 value pushed */
54 
SMD[ ]\011/* SetMinimumDistance */
PUSHW[ ]\011/* 3 values pushed */
15596 -5021 21 
CALL[ ]\011/* CallFunction */
SPVFS[ ]\011/* SetPVectorFromStack */
SFVTPV[ ]\011/* SetFVectorToPVector */
PUSHB[ ]\011/* 1 value pushed */
2 
SRP0[ ]\011/* SetRefPoint0 */
PUSHB[ ]\011/* 1 value pushed */
3 
MDRP[00000]\011/* MoveDirectRelPt */
PUSHB[ ]\011/* 2 values pushed */
18 5 
MIRP[11001]\011/* MoveIndirectRelPt */
PUSHB[ ]\011/* 1 value pushed */
24 
MDRP[00000]\011/* MoveDirectRelPt */
PUSHW[ ]\011/* 3 values pushed */
-15645 -4865 21 
CALL[ ]\011/* CallFunction */
SPVFS[ ]\011/* SetPVectorFromStack */
SFVTCA[1]\011/* SetFVectorToAxis */
PUSHB[ ]\011/* 1 value pushed */
16 
MDAP[0]\011/* MoveDirectAbsPt */
PUSHB[ ]\011/* 2 values pushed */
18 24 
SFVTL[0]\011/* SetFVectorToLine */
PUSHB[ ]\011/* 1 value pushed */
24 
MDRP[00000]\011/* MoveDirectRelPt */
SFVTCA[0]\011/* SetFVectorToAxis */
PUSHB[ ]\011/* 2 values pushed */
7 4 
MIRP[11001]\011/* MoveIndirectRelPt */
SFVTPV[ ]\011/* SetFVectorToPVector */
PUSHB[ ]\011/* 1 value pushed */
6 
MDRP[00000]\011/* MoveDirectRelPt */
SFVTCA[1]\011/* SetFVectorToAxis */
PUSHB[ ]\011/* 1 value pushed */
18 
SRP0[ ]\011/* SetRefPoint0 */
PUSHB[ ]\011/* 4 values pushed */
17 18 24 19 
CALL[ ]\011/* CallFunction */
PUSHB[ ]\011/* 4 values pushed */
22 18 24 19 
CALL[ ]\011/* CallFunction */
PUSHB[ ]\011/* 1 value pushed */
24 
SRP0[ ]\011/* SetRefPoint0 */
PUSHB[ ]\011/* 4 values pushed */
23 24 16 19 
CALL[ ]\011/* CallFunction */
SPVTCA[1]\011/* SetPVectorToAxis */
SVTCA[0]\011/* SetFreedomAndProjectionVectorToAxis */
PUSHB[ ]\011/* 6 values pushed */
2 3 6 7 18 24 
MDAP[0]\011/* MoveDirectAbsPt */
MDAP[0]\011/* MoveDirectAbsPt */
MDAP[0]\011/* MoveDirectAbsPt */
MDAP[0]\011/* MoveDirectAbsPt */
MDAP[0]\011/* MoveDirectAbsPt */
MDAP[0]\011/* MoveDirectAbsPt */
SVTCA[1]\011/* SetFreedomAndProjectionVectorToAxis */
NPUSHB[ ]\011/* 9 values pushed */
2 3 6 16 17 18 22 23 24 
MDAP[0]\011/* MoveDirectAbsPt */
MDAP[0]\011/* MoveDirectAbsPt */
MDAP[0]\011/* MoveDirectAbsPt */
MDAP[0]\011/* MoveDirectAbsPt */
MDAP[0]\011/* MoveDirectAbsPt */
MDAP[0]\011/* MoveDirectAbsPt */
MDAP[0]\011/* MoveDirectAbsPt */
MDAP[0]\011/* MoveDirectAbsPt */
MDAP[0]\011/* MoveDirectAbsPt */
PUSHB[ ]\011/* 1 value pushed */
64 
SMD[ ]\011/* SetMinimumDistance */
SVTCA[0]\011/* SetFreedomAndProjectionVectorToAxis */
IUP[0]\011/* InterpolateUntPts */
IUP[1]\011/* InterpolateUntPts */";
};
width = 521;
}
);
leftKerningGroup = A;
rightKerningGroup = A;
unicode = 00C0;
},
{
color = 10;
glyphname = Amacron;
layers = (
{
components = (
{
name = A;
},
{
name = macroncomb;
transform = "{1, 0, 0, 1, 133, 259}";
}
);
hints = (
{
horizontal = 1;
place = "{906, 35}";
type = Stem;
},
{
horizontal = 1;
place = "{177, 36}";
type = Stem;
},
{
horizontal = 1;
place = "{0, 21}";
target = up;
type = BottomGhost;
},
{
horizontal = 1;
place = "{737, -20}";
target = down;
type = TopGhost;
}
);
layerId = UUID0;
width = 521;
},
{
background = {
paths = (
{
closed = 1;
nodes = (
"129 0 OFFCURVE",
"149 8 OFFCURVE",
"155 29 CURVE SMOOTH",
"189 154 LINE",
"400 154 LINE",
"434 29 LINE SMOOTH",
"440 8 OFFCURVE",
"460 0 OFFCURVE",
"485 0 CURVE SMOOTH",
"528 0 OFFCURVE",
"585 27 OFFCURVE",
"585 64 CURVE SMOOTH",
"585 67 OFFCURVE",
"584 71 OFFCURVE",
"583 75 CURVE",
"396 685 LINE SMOOTH",
"385 720 OFFCURVE",
"340 737 OFFCURVE",
"294 737 CURVE SMOOTH",
"248 737 OFFCURVE",
"203 720 OFFCURVE",
"192 685 CURVE SMOOTH",
"6 75 LINE",
"5 71 OFFCURVE",
"4 67 OFFCURVE",
"4 64 CURVE SMOOTH",
"4 27 OFFCURVE",
"61 0 OFFCURVE",
"104 0 CURVE SMOOTH"
);
},
{
closed = 1;
nodes = (
"294 542 LINE",
"367 274 LINE",
"221 274 LINE"
);
},
{
closed = 1;
nodes = (
"394 839 LINE SMOOTH",
"418 839 OFFCURVE",
"442 859 OFFCURVE",
"442 888 CURVE SMOOTH",
"442 916 OFFCURVE",
"418 938 OFFCURVE",
"394 938 CURVE SMOOTH",
"194 938 LINE SMOOTH",
"166 938 OFFCURVE",
"147 916 OFFCURVE",
"147 888 CURVE SMOOTH",
"147 859 OFFCURVE",
"166 839 OFFCURVE",
"194 839 CURVE SMOOTH"
);
}
);
};
components = (
{
name = A;
},
{
name = macroncomb;
transform = "{1, 0, 0, 1, 147, 259}";
}
);
hints = (
{
horizontal = 1;
place = "{154, 120}";
type = Stem;
},
{
horizontal = 1;
place = "{839, 99}";
type = Stem;
},
{
horizontal = 1;
place = "{0, 21}";
target = up;
type = BottomGhost;
},
{
horizontal = 1;
place = "{737, -20}";
target = down;
type = TopGhost;
}
);
layerId = "228CC867-ECE3-4F82-B853-1E58141B916C";
width = 589;
},
{
layerId = "F5CF7C91-484B-43F2-91EC-BD73E27C7962";
paths = (
{
closed = 1;
nodes = (
"4 38 OFFCURVE",
"69 0 OFFCURVE",
"104 0 QCURVE SMOOTH",
"147 0 OFFCURVE",
"155 29 QCURVE SMOOTH",
"189 154 LINE",
"400 154 LINE",
"434 29 LINE SMOOTH",
"442 0 OFFCURVE",
"485 0 QCURVE SMOOTH",
"520 0 OFFCURVE",
"585 38 OFFCURVE",
"585 64 QCURVE SMOOTH",
"585 67 OFFCURVE",
"583 75 QCURVE",
"396 685 LINE SMOOTH",
"388 710 OFFCURVE",
"331 737 OFFCURVE",
"257 737 OFFCURVE",
"200 710 OFFCURVE",
"192 685 QCURVE SMOOTH",
"6 75 LINE",
"4 67 OFFCURVE",
"4 64 QCURVE SMOOTH"
);
},
{
closed = 1;
nodes = (
"147 866 OFFCURVE",
"173 839 OFFCURVE",
"194 839 QCURVE SMOOTH",
"394 839 LINE SMOOTH",
"413 839 OFFCURVE",
"442 867 OFFCURVE",
"442 888 QCURVE SMOOTH",
"442 908 OFFCURVE",
"412 938 OFFCURVE",
"394 938 QCURVE SMOOTH",
"194 938 LINE SMOOTH",
"173 938 OFFCURVE",
"147 909 OFFCURVE",
"147 888 QCURVE SMOOTH"
);
},
{
closed = 1;
nodes = (
"294 542 LINE",
"367 274 LINE",
"221 274 LINE"
);
}
);
userData = {
assembly = "SVTCA[0]\011/* SetFreedomAndProjectionVectorToAxis */
PUSHB[ ]\011/* 3 values pushed */
21 1 0 
CALL[ ]\011/* CallFunction */
PUSHB[ ]\011/* 1 value pushed */
14 
SHP[1]\011/* ShiftPointByLastPoint */
PUSHB[ ]\011/* 3 values pushed */
6 3 0 
CALL[ ]\011/* CallFunction */
PUSHB[ ]\011/* 5 values pushed */
40 4 0 16 4 
CALL[ ]\011/* CallFunction */
PUSHB[ ]\011/* 5 values pushed */
18 38 21 6 13 
CALL[ ]\011/* CallFunction */
PUSHB[ ]\011/* 2 values pushed */
18 5 
MIRP[01001]\011/* MoveIndirectRelPt */
PUSHB[ ]\011/* 1 value pushed */
35 
MDAP[1]\011/* MoveDirectAbsPt */
PUSHB[ ]\011/* 5 values pushed */
27 5 0 19 4 
CALL[ ]\011/* CallFunction */
SVTCA[1]\011/* SetFreedomAndProjectionVectorToAxis */
PUSHB[ ]\011/* 1 value pushed */
41 
MDAP[1]\011/* MoveDirectAbsPt */
PUSHB[ ]\011/* 2 values pushed */
42 1 
CALL[ ]\011/* CallFunction */
SVTCA[0]\011/* SetFreedomAndProjectionVectorToAxis */
PUSHB[ ]\011/* 2 values pushed */
18 21 
SRP1[ ]\011/* SetRefPoint1 */
SRP2[ ]\011/* SetRefPoint2 */
PUSHB[ ]\011/* 2 values pushed */
11 0 
IP[ ]\011/* InterpolatePts */
IP[ ]\011/* InterpolatePts */
IUP[0]\011/* InterpolateUntPts */
IUP[1]\011/* InterpolateUntPts */";
};
width = 589;
},
{
layerId = "4CEE6D0C-6158-494B-B4A5-6E5394691F1E";
paths = (
{
closed = 1;
nodes = (
"25 0 OFFCURVE",
"43 0 QCURVE SMOOTH",
"57 0 OFFCURVE",
"61 13 QCURVE SMOOTH",
"111 177 LINE",
"409 177 LINE",
"460 13 LINE SMOOTH",
"464 0 OFFCURVE",
"476 0 QCURVE SMOOTH",
"484 0 OFFCURVE",
"496 10 OFFCURVE",
"496 17 QCURVE SMOOTH",
"496 18 OFFCURVE",
"495 21 OFFCURVE",
"495 22 QCURVE",
"280 723 LINE",
"275 737 OFFCURVE",
"247 737 OFFCURVE",
"243 723 QCURVE SMOOTH",
"26 22 LINE",
"25 20 OFFCURVE",
"25 16 QCURVE SMOOTH"
);
},
{
closed = 1;
nodes = (
"261 661 LINE",
"398 213 LINE",
"122 213 LINE"
);
},
{
closed = 1;
nodes = (
"133 906 OFFCURVE",
"150 906 QCURVE SMOOTH",
"370 906 LINE SMOOTH",
"377 906 OFFCURVE",
"388 916 OFFCURVE",
"388 930 OFFCURVE",
"377 941 OFFCURVE",
"370 941 QCURVE SMOOTH",
"150 941 LINE SMOOTH",
"133 941 OFFCURVE",
"133 923 QCURVE SMOOTH"
);
}
);
userData = {
assembly = "SVTCA[0]\011/* SetFreedomAndProjectionVectorToAxis */
PUSHB[ ]\011/* 3 values pushed */
20 1 0 
CALL[ ]\011/* CallFunction */
PUSHB[ ]\011/* 1 value pushed */
13 
SHP[1]\011/* ShiftPointByLastPoint */
PUSHB[ ]\011/* 3 values pushed */
5 3 0 
CALL[ ]\011/* CallFunction */
PUSHB[ ]\011/* 5 values pushed */
17 22 20 5 13 
CALL[ ]\011/* CallFunction */
PUSHB[ ]\011/* 1 value pushed */
23 
SHP[1]\011/* ShiftPointByLastPoint */
PUSHB[ ]\011/* 2 values pushed */
17 4 
MIRP[01001]\011/* MoveIndirectRelPt */
PUSHB[ ]\011/* 1 value pushed */
16 
SHP[0]\011/* ShiftPointByLastPoint */
PUSHB[ ]\011/* 1 value pushed */
34 
MDAP[1]\011/* MoveDirectAbsPt */
PUSHB[ ]\011/* 2 values pushed */
27 6 
MIRP[01001]\011/* MoveIndirectRelPt */
SVTCA[1]\011/* SetFreedomAndProjectionVectorToAxis */
PUSHB[ ]\011/* 1 value pushed */
36 
MDAP[1]\011/* MoveDirectAbsPt */
PUSHB[ ]\011/* 1 value pushed */
15 
MDRP[10110]\011/* MoveDirectRelPt */
PUSHB[ ]\011/* 2 values pushed */
10 10 
MIRP[01001]\011/* MoveIndirectRelPt */
PUSHB[ ]\011/* 1 value pushed */
7 
SHP[0]\011/* ShiftPointByLastPoint */
PUSHB[ ]\011/* 3 values pushed */
15 10 10 
CALL[ ]\011/* CallFunction */
PUSHB[ ]\011/* 4 values pushed */
0 15 0 9 
CALL[ ]\011/* CallFunction */
PUSHB[ ]\011/* 2 values pushed */
37 1 
CALL[ ]\011/* CallFunction */
PUSHB[ ]\011/* 1 value pushed */
54 
SMD[ ]\011/* SetMinimumDistance */
PUSHW[ ]\011/* 3 values pushed */
15596 -5021 21 
CALL[ ]\011/* CallFunction */
SPVFS[ ]\011/* SetPVectorFromStack */
SFVTPV[ ]\011/* SetFVectorToPVector */
PUSHB[ ]\011/* 1 value pushed */
2 
SRP0[ ]\011/* SetRefPoint0 */
PUSHB[ ]\011/* 1 value pushed */
3 
MDRP[00000]\011/* MoveDirectRelPt */
PUSHB[ ]\011/* 2 values pushed */
18 5 
MIRP[11001]\011/* MoveIndirectRelPt */
PUSHB[ ]\011/* 1 value pushed */
24 
MDRP[00000]\011/* MoveDirectRelPt */
PUSHW[ ]\011/* 3 values pushed */
-15645 -4865 21 
CALL[ ]\011/* CallFunction */
SPVFS[ ]\011/* SetPVectorFromStack */
SFVTCA[1]\011/* SetFVectorToAxis */
PUSHB[ ]\011/* 1 value pushed */
16 
MDAP[0]\011/* MoveDirectAbsPt */
PUSHB[ ]\011/* 2 values pushed */
18 24 
SFVTL[0]\011/* SetFVectorToLine */
PUSHB[ ]\011/* 1 value pushed */
24 
MDRP[00000]\011/* MoveDirectRelPt */
SFVTCA[0]\011/* SetFVectorToAxis */
PUSHB[ ]\011/* 2 values pushed */
7 4 
MIRP[11001]\011/* MoveIndirectRelPt */
SFVTPV[ ]\011/* SetFVectorToPVector */
PUSHB[ ]\011/* 1 value pushed */
6 
MDRP[00000]\011/* MoveDirectRelPt */
SFVTCA[1]\011/* SetFVectorToAxis */
PUSHB[ ]\011/* 1 value pushed */
18 
SRP0[ ]\011/* SetRefPoint0 */
PUSHB[ ]\011/* 4 values pushed */
17 18 24 19 
CALL[ ]\011/* CallFunction */
PUSHB[ ]\011/* 4 values pushed */
22 18 24 19 
CALL[ ]\011/* CallFunction */
PUSHB[ ]\011/* 1 value pushed */
24 
SRP0[ ]\011/* SetRefPoint0 */
PUSHB[ ]\011/* 4 values pushed */
23 24 16 19 
CALL[ ]\011/* CallFunction */
SPVTCA[1]\011/* SetPVectorToAxis */
SVTCA[0]\011/* SetFreedomAndProjectionVectorToAxis */
PUSHB[ ]\011/* 6 values pushed */
2 3 6 7 18 24 
MDAP[0]\011/* MoveDirectAbsPt */
MDAP[0]\011/* MoveDirectAbsPt */
MDAP[0]\011/* MoveDirectAbsPt */
MDAP[0]\011/* MoveDirectAbsPt */
MDAP[0]\011/* MoveDirectAbsPt */
MDAP[0]\011/* MoveDirectAbsPt */
SVTCA[1]\011/* SetFreedomAndProjectionVectorToAxis */
NPUSHB[ ]\011/* 9 values pushed */
2 3 6 16 17 18 22 23 24 
MDAP[0]\011/* MoveDirectAbsPt */
MDAP[0]\011/* MoveDirectAbsPt */
MDAP[0]\011/* MoveDirectAbsPt */
MDAP[0]\011/* MoveDirectAbsPt */
MDAP[0]\011/* MoveDirectAbsPt */
MDAP[0]\011/* MoveDirectAbsPt */
MDAP[0]\011/* MoveDirectAbsPt */
MDAP[0]\011/* MoveDirectAbsPt */
MDAP[0]\011/* MoveDirectAbsPt */
PUSHB[ ]\011/* 1 value pushed */
64 
SMD[ ]\011/* SetMinimumDistance */
SVTCA[0]\011/* SetFreedomAndProjectionVectorToAxis */
IUP[0]\011/* InterpolateUntPts */
IUP[1]\011/* InterpolateUntPts */";
};
width = 521;
}
);
leftKerningGroup = A;
rightKerningGroup = A;
unicode = 0100;
},
{
color = 10;
glyphname = Aogonek;
layers = (
{
components = (
{
name = A;
},
{
name = ogonekcomb;
transform = "{1, 0, 0, 1, 384, 1}";
}
);
hints = (
{
place = "{384, 29}";
type = Stem;
},
{
place = "{384, 112}";
type = Stem;
},
{
horizontal = 1;
place = "{-195, 26}";
type = Stem;
},
{
horizontal = 1;
place = "{177, 36}";
type = Stem;
},
{
horizontal = 1;
place = "{737, -20}";
target = down;
type = TopGhost;
},
{
horizontal = 1;
place = "{0, 21}";
target = up;
type = BottomGhost;
}
);
layerId = UUID0;
width = 521;
},
{
components = (
{
name = A;
},
{
name = ogonekcomb;
transform = "{1, 0, 0, 1, 423, 0}";
}
);
hints = (
{
place = "{378, 73}";
type = Stem;
},
{
place = "{378, 156}";
type = Stem;
},
{
horizontal = 1;
place = "{-218, 63}";
type = Stem;
},
{
horizontal = 1;
place = "{154, 120}";
type = Stem;
},
{
horizontal = 1;
place = "{737, -20}";
target = down;
type = TopGhost;
},
{
horizontal = 1;
place = "{0, 21}";
target = up;
type = BottomGhost;
}
);
layerId = "228CC867-ECE3-4F82-B853-1E58141B916C";
width = 589;
},
{
layerId = "F5CF7C91-484B-43F2-91EC-BD73E27C7962";
paths = (
{
closed = 1;
nodes = (
"4 38 OFFCURVE",
"69 0 OFFCURVE",
"104 0 QCURVE SMOOTH",
"147 0 OFFCURVE",
"155 29 QCURVE SMOOTH",
"189 154 LINE",
"400 154 LINE",
"434 29 LINE",
"437 15 OFFCURVE",
"448 9 QCURVE",
"415 -17 OFFCURVE",
"378 -88 OFFCURVE",
"378 -121 QCURVE SMOOTH",
"378 -164 OFFCURVE",
"440 -218 OFFCURVE",
"503 -218 QCURVE SMOOTH",
"534 -218 OFFCURVE",
"534 -189 QCURVE SMOOTH",
"534 -155 OFFCURVE",
"509 -155 QCURVE SMOOTH",
"451 -155 OFFCURVE",
"451 -107 QCURVE SMOOTH",
"451 -77 OFFCURVE",
"494 -12 OFFCURVE",
"527 7 QCURVE",
"585 28 OFFCURVE",
"585 64 QCURVE SMOOTH",
"585 67 OFFCURVE",
"583 75 QCURVE",
"396 685 LINE SMOOTH",
"388 710 OFFCURVE",
"331 737 OFFCURVE",
"257 737 OFFCURVE",
"200 710 OFFCURVE",
"192 685 QCURVE SMOOTH",
"6 75 LINE",
"4 67 OFFCURVE",
"4 64 QCURVE SMOOTH"
);
},
{
closed = 1;
nodes = (
"294 542 LINE",
"367 274 LINE",
"221 274 LINE"
);
}
);
userData = {
assembly = "SVTCA[0]\011/* SetFreedomAndProjectionVectorToAxis */
PUSHB[ ]\011/* 3 values pushed */
35 1 0 
CALL[ ]\011/* CallFunction */
PUSHB[ ]\011/* 3 values pushed */
14 1 0 
CALL[ ]\011/* CallFunction */
PUSHB[ ]\011/* 3 values pushed */
22 0 0 
CALL[ ]\011/* CallFunction */
PUSHB[ ]\011/* 5 values pushed */
18 5 0 11 4 
CALL[ ]\011/* CallFunction */
PUSHB[ ]\011/* 3 values pushed */
6 3 0 
CALL[ ]\011/* CallFunction */
PUSHB[ ]\011/* 5 values pushed */
40 4 0 16 4 
CALL[ ]\011/* CallFunction */
PUSHB[ ]\011/* 5 values pushed */
32 38 35 6 13 
CALL[ ]\011/* CallFunction */
PUSHB[ ]\011/* 2 values pushed */
32 5 
MIRP[01001]\011/* MoveIndirectRelPt */
SVTCA[1]\011/* SetFreedomAndProjectionVectorToAxis */
PUSHB[ ]\011/* 1 value pushed */
41 
MDAP[1]\011/* MoveDirectAbsPt */
PUSHB[ ]\011/* 1 value pushed */
25 
MDRP[10110]\011/* MoveDirectRelPt */
PUSHB[ ]\011/* 5 values pushed */
16 7 0 39 4 
CALL[ ]\011/* CallFunction */
PUSHB[ ]\011/* 3 values pushed */
16 25 10 
CALL[ ]\011/* CallFunction */
PUSHB[ ]\011/* 4 values pushed */
64 16 11 9 
CALL[ ]\011/* CallFunction */
PUSHB[ ]\011/* 4 values pushed */
0 16 20 9 
CALL[ ]\011/* CallFunction */
PUSHB[ ]\011/* 2 values pushed */
42 1 
CALL[ ]\011/* CallFunction */
PUSHB[ ]\011/* 2 values pushed */
16 25 
SRP1[ ]\011/* SetRefPoint1 */
SRP2[ ]\011/* SetRefPoint2 */
PUSHB[ ]\011/* 2 values pushed */
28 31 
IP[ ]\011/* InterpolatePts */
IP[ ]\011/* InterpolatePts */
SVTCA[0]\011/* SetFreedomAndProjectionVectorToAxis */
PUSHB[ ]\011/* 2 values pushed */
35 18 
SRP1[ ]\011/* SetRefPoint1 */
SRP2[ ]\011/* SetRefPoint2 */
PUSHB[ ]\011/* 1 value pushed */
25 
IP[ ]\011/* InterpolatePts */
PUSHB[ ]\011/* 1 value pushed */
32 
SRP1[ ]\011/* SetRefPoint1 */
PUSHB[ ]\011/* 4 values pushed */
11 13 28 0 
DEPTH[ ]\011/* GetDepthStack */
SLOOP[ ]\011/* SetLoopVariable */
IP[ ]\011/* InterpolatePts */
IUP[0]\011/* InterpolateUntPts */
IUP[1]\011/* InterpolateUntPts */";
};
width = 589;
},
{
layerId = "4CEE6D0C-6158-494B-B4A5-6E5394691F1E";
paths = (
{
closed = 1;
nodes = (
"25 0 OFFCURVE",
"43 0 QCURVE SMOOTH",
"57 0 OFFCURVE",
"61 13 QCURVE SMOOTH",
"111 177 LINE",
"409 177 LINE",
"458 17 LINE",
"384 -54 OFFCURVE",
"384 -128 QCURVE SMOOTH",
"384 -164 OFFCURVE",
"437 -195 OFFCURVE",
"471 -195 QCURVE SMOOTH",
"494 -195 OFFCURVE",
"494 -169 OFFCURVE",
"476 -169 QCURVE SMOOTH",
"413 -169 OFFCURVE",
"413 -126 QCURVE SMOOTH",
"413 -90 OFFCURVE",
"449 -33 OFFCURVE",
"485 2 QCURVE",
"496 8 OFFCURVE",
"496 17 QCURVE SMOOTH",
"496 18 OFFCURVE",
"495 21 OFFCURVE",
"495 22 QCURVE",
"280 723 LINE",
"275 737 OFFCURVE",
"247 737 OFFCURVE",
"243 723 QCURVE SMOOTH",
"26 22 LINE",
"25 20 OFFCURVE",
"25 16 QCURVE SMOOTH"
);
},
{
closed = 1;
nodes = (
"261 661 LINE",
"398 213 LINE",
"122 213 LINE"
);
}
);
userData = {
assembly = "SVTCA[0]\011/* SetFreedomAndProjectionVectorToAxis */
PUSHB[ ]\011/* 3 values pushed */
30 1 0 
CALL[ ]\011/* CallFunction */
PUSHB[ ]\011/* 3 values pushed */
5 3 0 
CALL[ ]\011/* CallFunction */
PUSHB[ ]\011/* 1 value pushed */
20 
MDAP[1]\011/* MoveDirectAbsPt */
PUSHB[ ]\011/* 5 values pushed */
17 5 0 70 4 
CALL[ ]\011/* CallFunction */
PUSHB[ ]\011/* 5 values pushed */
27 32 30 5 13 
CALL[ ]\011/* CallFunction */
PUSHB[ ]\011/* 2 values pushed */
27 4 
MIRP[01001]\011/* MoveIndirectRelPt */
SVTCA[1]\011/* SetFreedomAndProjectionVectorToAxis */
PUSHB[ ]\011/* 1 value pushed */
35 
MDAP[1]\011/* MoveDirectAbsPt */
PUSHB[ ]\011/* 1 value pushed */
23 
MDRP[10110]\011/* MoveDirectRelPt */
PUSHB[ ]\011/* 5 values pushed */
15 11 0 98 4 
CALL[ ]\011/* CallFunction */
PUSHB[ ]\011/* 3 values pushed */
15 23 10 
CALL[ ]\011/* CallFunction */
PUSHB[ ]\011/* 4 values pushed */
64 15 10 9 
CALL[ ]\011/* CallFunction */
PUSHB[ ]\011/* 1 value pushed */
18 
SHP[0]\011/* ShiftPointByLastPoint */
PUSHB[ ]\011/* 2 values pushed */
36 1 
CALL[ ]\011/* CallFunction */
PUSHB[ ]\011/* 1 value pushed */
54 
SMD[ ]\011/* SetMinimumDistance */
PUSHW[ ]\011/* 3 values pushed */
15596 -5021 21 
CALL[ ]\011/* CallFunction */
SPVFS[ ]\011/* SetPVectorFromStack */
SFVTPV[ ]\011/* SetFVectorToPVector */
PUSHB[ ]\011/* 1 value pushed */
2 
SRP0[ ]\011/* SetRefPoint0 */
PUSHB[ ]\011/* 1 value pushed */
3 
MDRP[00000]\011/* MoveDirectRelPt */
PUSHB[ ]\011/* 2 values pushed */
28 5 
MIRP[11001]\011/* MoveIndirectRelPt */
PUSHB[ ]\011/* 1 value pushed */
34 
MDRP[00000]\011/* MoveDirectRelPt */
SFVTCA[1]\011/* SetFVectorToAxis */
PUSHB[ ]\011/* 4 values pushed */
27 28 34 19 
CALL[ ]\011/* CallFunction */
PUSHB[ ]\011/* 4 values pushed */
32 28 34 19 
CALL[ ]\011/* CallFunction */
SPVTCA[1]\011/* SetPVectorToAxis */
SVTCA[0]\011/* SetFreedomAndProjectionVectorToAxis */
PUSHB[ ]\011/* 4 values pushed */
2 3 28 34 
MDAP[0]\011/* MoveDirectAbsPt */
MDAP[0]\011/* MoveDirectAbsPt */
MDAP[0]\011/* MoveDirectAbsPt */
MDAP[0]\011/* MoveDirectAbsPt */
SVTCA[1]\011/* SetFreedomAndProjectionVectorToAxis */
PUSHB[ ]\011/* 6 values pushed */
2 3 27 28 32 34 
MDAP[0]\011/* MoveDirectAbsPt */
MDAP[0]\011/* MoveDirectAbsPt */
MDAP[0]\011/* MoveDirectAbsPt */
MDAP[0]\011/* MoveDirectAbsPt */
MDAP[0]\011/* MoveDirectAbsPt */
MDAP[0]\011/* MoveDirectAbsPt */
PUSHB[ ]\011/* 1 value pushed */
64 
SMD[ ]\011/* SetMinimumDistance */
PUSHB[ ]\011/* 2 values pushed */
15 23 
SRP1[ ]\011/* SetRefPoint1 */
SRP2[ ]\011/* SetRefPoint2 */
PUSHB[ ]\011/* 2 values pushed */
26 33 
IP[ ]\011/* InterpolatePts */
IP[ ]\011/* InterpolatePts */
SVTCA[0]\011/* SetFreedomAndProjectionVectorToAxis */
PUSHB[ ]\011/* 2 values pushed */
30 17 
SRP1[ ]\011/* SetRefPoint1 */
SRP2[ ]\011/* SetRefPoint2 */
PUSHB[ ]\011/* 2 values pushed */
15 23 
IP[ ]\011/* InterpolatePts */
IP[ ]\011/* InterpolatePts */
PUSHB[ ]\011/* 1 value pushed */
27 
SRP1[ ]\011/* SetRefPoint1 */
PUSHB[ ]\011/* 3 values pushed */
7 12 25 
IP[ ]\011/* InterpolatePts */
IP[ ]\011/* InterpolatePts */
IP[ ]\011/* InterpolatePts */
PUSHB[ ]\011/* 2 values pushed */
5 32 
SRP1[ ]\011/* SetRefPoint1 */
SRP2[ ]\011/* SetRefPoint2 */
PUSHB[ ]\011/* 1 value pushed */
6 
IP[ ]\011/* InterpolatePts */
IUP[0]\011/* InterpolateUntPts */
IUP[1]\011/* InterpolateUntPts */";
};
width = 521;
}
);
leftKerningGroup = A;
rightKerningGroup = A;
unicode = 0104;
},
{
color = 10;
glyphname = Aring;
layers = (
{
components = (
{
name = A;
},
{
name = ringcomb;
transform = "{1, 0, 0, 1, 171, 259}";
}
);
hints = (
{
place = "{170, 24}";
type = Stem;
},
{
place = "{325, 25}";
type = Stem;
},
{
horizontal = 1;
place = "{1001, 26}";
type = Stem;
},
{
horizontal = 1;
place = "{843, 23}";
type = Stem;
},
{
horizontal = 1;
place = "{177, 36}";
type = Stem;
},
{
horizontal = 1;
place = "{0, 21}";
target = up;
type = BottomGhost;
},
{
horizontal = 1;
place = "{737, -20}";
target = down;
type = TopGhost;
}
);
layerId = UUID0;
width = 521;
},
{
background = {
paths = (
{
closed = 1;
nodes = (
"129 0 OFFCURVE",
"149 8 OFFCURVE",
"155 29 CURVE SMOOTH",
"189 154 LINE",
"400 154 LINE",
"434 29 LINE SMOOTH",
"440 8 OFFCURVE",
"460 0 OFFCURVE",
"485 0 CURVE SMOOTH",
"528 0 OFFCURVE",
"585 27 OFFCURVE",
"585 64 CURVE SMOOTH",
"585 67 OFFCURVE",
"584 71 OFFCURVE",
"583 75 CURVE",
"396 685 LINE SMOOTH",
"385 720 OFFCURVE",
"340 737 OFFCURVE",
"294 737 CURVE SMOOTH",
"248 737 OFFCURVE",
"203 720 OFFCURVE",
"192 685 CURVE SMOOTH",
"6 75 LINE",
"5 71 OFFCURVE",
"4 67 OFFCURVE",
"4 64 CURVE SMOOTH",
"4 27 OFFCURVE",
"61 0 OFFCURVE",
"104 0 CURVE SMOOTH"
);
},
{
closed = 1;
nodes = (
"294 542 LINE",
"367 274 LINE",
"221 274 LINE"
);
},
{
closed = 1;
nodes = (
"346 804 OFFCURVE",
"394 853 OFFCURVE",
"394 907 CURVE SMOOTH",
"394 960 OFFCURVE",
"347 1008 OFFCURVE",
"293 1008 CURVE SMOOTH",
"238 1008 OFFCURVE",
"194 959 OFFCURVE",
"194 907 CURVE SMOOTH",
"194 853 OFFCURVE",
"240 804 OFFCURVE",
"293 804 CURVE SMOOTH"
);
},
{
closed = 1;
nodes = (
"271 864 OFFCURVE",
"253 886 OFFCURVE",
"253 906 CURVE SMOOTH",
"253 925 OFFCURVE",
"271 945 OFFCURVE",
"294 945 CURVE SMOOTH",
"316 945 OFFCURVE",
"333 926 OFFCURVE",
"333 906 CURVE SMOOTH",
"333 885 OFFCURVE",
"316 864 OFFCURVE",
"294 864 CURVE SMOOTH"
);
}
);
};
components = (
{
name = A;
},
{
name = ringcomb;
transform = "{1, 0, 0, 1, 195, 259}";
}
);
hints = (
{
place = "{194, 59}";
type = Stem;
},
{
place = "{333, 61}";
type = Stem;
},
{
horizontal = 1;
place = "{945, 63}";
type = Stem;
},
{
horizontal = 1;
place = "{804, 60}";
type = Stem;
},
{
horizontal = 1;
place = "{154, 120}";
type = Stem;
},
{
horizontal = 1;
place = "{0, 21}";
target = up;
type = BottomGhost;
},
{
horizontal = 1;
place = "{737, -20}";
target = down;
type = TopGhost;
}
);
layerId = "228CC867-ECE3-4F82-B853-1E58141B916C";
width = 589;
},
{
layerId = "F5CF7C91-484B-43F2-91EC-BD73E27C7962";
paths = (
{
closed = 1;
nodes = (
"4 38 OFFCURVE",
"69 0 OFFCURVE",
"104 0 QCURVE SMOOTH",
"147 0 OFFCURVE",
"155 29 QCURVE SMOOTH",
"189 154 LINE",
"400 154 LINE",
"434 29 LINE SMOOTH",
"442 0 OFFCURVE",
"485 0 QCURVE SMOOTH",
"520 0 OFFCURVE",
"585 38 OFFCURVE",
"585 64 QCURVE SMOOTH",
"585 67 OFFCURVE",
"583 75 QCURVE",
"396 685 LINE SMOOTH",
"388 710 OFFCURVE",
"331 737 OFFCURVE",
"257 737 OFFCURVE",
"200 710 OFFCURVE",
"192 685 QCURVE SMOOTH",
"6 75 LINE",
"4 67 OFFCURVE",
"4 64 QCURVE SMOOTH"
);
},
{
closed = 1;
nodes = (
"194 866 OFFCURVE",
"253 804 OFFCURVE",
"333 804 OFFCURVE",
"394 866 OFFCURVE",
"394 907 QCURVE SMOOTH",
"394 947 OFFCURVE",
"333 1008 OFFCURVE",
"293 1008 QCURVE SMOOTH",
"252 1008 OFFCURVE",
"194 947 OFFCURVE",
"194 907 QCURVE SMOOTH"
);
},
{
closed = 1;
nodes = (
"294 542 LINE",
"367 274 LINE",
"221 274 LINE"
);
},
{
closed = 1;
nodes = (
"253 921 OFFCURVE",
"277 945 OFFCURVE",
"294 945 QCURVE SMOOTH",
"310 945 OFFCURVE",
"333 921 OFFCURVE",
"333 906 QCURVE SMOOTH",
"333 890 OFFCURVE",
"310 864 OFFCURVE",
"294 864 QCURVE SMOOTH",
"277 864 OFFCURVE",
"253 890 OFFCURVE",
"253 906 QCURVE SMOOTH"
);
}
);
userData = {
assembly = "SVTCA[0]\011/* SetFreedomAndProjectionVectorToAxis */
PUSHB[ ]\011/* 3 values pushed */
21 1 0 
CALL[ ]\011/* CallFunction */
PUSHB[ ]\011/* 1 value pushed */
14 
SHP[1]\011/* ShiftPointByLastPoint */
PUSHB[ ]\011/* 3 values pushed */
6 3 0 
CALL[ ]\011/* CallFunction */
PUSHB[ ]\011/* 5 values pushed */
37 4 0 16 4 
CALL[ ]\011/* CallFunction */
PUSHB[ ]\011/* 5 values pushed */
18 35 21 6 13 
CALL[ ]\011/* CallFunction */
PUSHB[ ]\011/* 2 values pushed */
18 5 
MIRP[01001]\011/* MoveIndirectRelPt */
PUSHB[ ]\011/* 1 value pushed */
33 
MDAP[1]\011/* MoveDirectAbsPt */
PUSHB[ ]\011/* 5 values pushed */
41 5 0 11 4 
CALL[ ]\011/* CallFunction */
PUSHB[ ]\011/* 1 value pushed */
47 
MDAP[1]\011/* MoveDirectAbsPt */
PUSHB[ ]\011/* 5 values pushed */
27 5 0 11 4 
CALL[ ]\011/* CallFunction */
SVTCA[1]\011/* SetFreedomAndProjectionVectorToAxis */
PUSHB[ ]\011/* 1 value pushed */
50 
MDAP[1]\011/* MoveDirectAbsPt */
PUSHB[ ]\011/* 1 value pushed */
24 
MDRP[10110]\011/* MoveDirectRelPt */
PUSHB[ ]\011/* 5 values pushed */
38 7 0 29 4 
CALL[ ]\011/* CallFunction */
PUSHB[ ]\011/* 1 value pushed */
38 
SRP0[ ]\011/* SetRefPoint0 */
PUSHB[ ]\011/* 2 values pushed */
44 1 
CALL[ ]\011/* CallFunction */
PUSHB[ ]\011/* 5 values pushed */
30 7 0 29 4 
CALL[ ]\011/* CallFunction */
PUSHB[ ]\011/* 2 values pushed */
51 1 
CALL[ ]\011/* CallFunction */
PUSHB[ ]\011/* 2 values pushed */
38 24 
SRP1[ ]\011/* SetRefPoint1 */
SRP2[ ]\011/* SetRefPoint2 */
PUSHB[ ]\011/* 2 values pushed */
33 35 
IP[ ]\011/* InterpolatePts */
IP[ ]\011/* InterpolatePts */
PUSHB[ ]\011/* 1 value pushed */
44 
SRP1[ ]\011/* SetRefPoint1 */
PUSHB[ ]\011/* 5 values pushed */
6 5 32 27 37 
DEPTH[ ]\011/* GetDepthStack */
SLOOP[ ]\011/* SetLoopVariable */
IP[ ]\011/* InterpolatePts */
PUSHB[ ]\011/* 1 value pushed */
30 
SRP2[ ]\011/* SetRefPoint2 */
PUSHB[ ]\011/* 1 value pushed */
36 
IP[ ]\011/* InterpolatePts */
SVTCA[0]\011/* SetFreedomAndProjectionVectorToAxis */
PUSHB[ ]\011/* 2 values pushed */
18 21 
SRP1[ ]\011/* SetRefPoint1 */
SRP2[ ]\011/* SetRefPoint2 */
PUSHB[ ]\011/* 2 values pushed */
11 0 
IP[ ]\011/* InterpolatePts */
IP[ ]\011/* InterpolatePts */
PUSHB[ ]\011/* 2 values pushed */
47 41 
SRP1[ ]\011/* SetRefPoint1 */
SRP2[ ]\011/* SetRefPoint2 */
PUSHB[ ]\011/* 2 values pushed */
30 24 
IP[ ]\011/* InterpolatePts */
IP[ ]\011/* InterpolatePts */
IUP[0]\011/* InterpolateUntPts */
IUP[1]\011/* InterpolateUntPts */";
};
width = 589;
},
{
layerId = "4CEE6D0C-6158-494B-B4A5-6E5394691F1E";
paths = (
{
closed = 1;
nodes = (
"25 0 OFFCURVE",
"43 0 QCURVE SMOOTH",
"57 0 OFFCURVE",
"61 13 QCURVE SMOOTH",
"111 177 LINE",
"409 177 LINE",
"460 13 LINE SMOOTH",
"464 0 OFFCURVE",
"476 0 QCURVE SMOOTH",
"484 0 OFFCURVE",
"496 10 OFFCURVE",
"496 17 QCURVE SMOOTH",
"496 18 OFFCURVE",
"495 21 OFFCURVE",
"495 22 QCURVE",
"280 723 LINE",
"275 737 OFFCURVE",
"247 737 OFFCURVE",
"243 723 QCURVE SMOOTH",
"26 22 LINE",
"25 20 OFFCURVE",
"25 16 QCURVE SMOOTH"
);
},
{
closed = 1;
nodes = (
"261 661 LINE",
"398 213 LINE",
"122 213 LINE"
);
},
{
closed = 1;
nodes = (
"170 899 OFFCURVE",
"223 843 OFFCURVE",
"260 843 QCURVE SMOOTH",
"295 843 OFFCURVE",
"350 899 OFFCURVE",
"350 936 QCURVE SMOOTH",
"350 972 OFFCURVE",
"295 1027 OFFCURVE",
"260 1027 QCURVE SMOOTH",
"223 1027 OFFCURVE",
"170 972 OFFCURVE",
"170 936 QCURVE SMOOTH"
);
},
{
closed = 1;
nodes = (
"194 960 OFFCURVE",
"233 1001 OFFCURVE",
"260 1001 QCURVE SMOOTH",
"286 1001 OFFCURVE",
"325 960 OFFCURVE",
"325 936 QCURVE SMOOTH",
"325 909 OFFCURVE",
"286 866 OFFCURVE",
"234 866 OFFCURVE",
"194 909 OFFCURVE",
"194 936 QCURVE SMOOTH"
);
}
);
userData = {
assembly = "SVTCA[0]\011/* SetFreedomAndProjectionVectorToAxis */
PUSHB[ ]\011/* 3 values pushed */
20 1 0 
CALL[ ]\011/* CallFunction */
PUSHB[ ]\011/* 1 value pushed */
13 
SHP[1]\011/* ShiftPointByLastPoint */
PUSHB[ ]\011/* 3 values pushed */
5 3 0 
CALL[ ]\011/* CallFunction */
PUSHB[ ]\011/* 5 values pushed */
17 22 20 5 13 
CALL[ ]\011/* CallFunction */
PUSHB[ ]\011/* 1 value pushed */
23 
SHP[1]\011/* ShiftPointByLastPoint */
PUSHB[ ]\011/* 2 values pushed */
17 4 
MIRP[01001]\011/* MoveIndirectRelPt */
PUSHB[ ]\011/* 1 value pushed */
16 
SHP[0]\011/* ShiftPointByLastPoint */
PUSHB[ ]\011/* 1 value pushed */
34 
MDAP[1]\011/* MoveDirectAbsPt */
PUSHB[ ]\011/* 5 values pushed */
40 5 0 42 4 
CALL[ ]\011/* CallFunction */
PUSHB[ ]\011/* 1 value pushed */
45 
MDAP[1]\011/* MoveDirectAbsPt */
PUSHB[ ]\011/* 5 values pushed */
28 5 0 70 4 
CALL[ ]\011/* CallFunction */
SVTCA[1]\011/* SetFreedomAndProjectionVectorToAxis */
PUSHB[ ]\011/* 1 value pushed */
48 
MDAP[1]\011/* MoveDirectAbsPt */
PUSHB[ ]\011/* 1 value pushed */
25 
MDRP[10110]\011/* MoveDirectRelPt */
PUSHB[ ]\011/* 5 values pushed */
37 11 0 70 4 
CALL[ ]\011/* CallFunction */
PUSHB[ ]\011/* 1 value pushed */
37 
SRP0[ ]\011/* SetRefPoint0 */
PUSHB[ ]\011/* 2 values pushed */
42 1 
CALL[ ]\011/* CallFunction */
PUSHB[ ]\011/* 5 values pushed */
31 11 0 70 4 
CALL[ ]\011/* CallFunction */
PUSHB[ ]\011/* 1 value pushed */
31 
SRP0[ ]\011/* SetRefPoint0 */
PUSHB[ ]\011/* 2 values pushed */
15 1 
CALL[ ]\011/* CallFunction */
PUSHB[ ]\011/* 2 values pushed */
10 10 
MIRP[01001]\011/* MoveIndirectRelPt */
PUSHB[ ]\011/* 1 value pushed */
7 
SHP[0]\011/* ShiftPointByLastPoint */
PUSHB[ ]\011/* 3 values pushed */
15 10 10 
CALL[ ]\011/* CallFunction */
PUSHB[ ]\011/* 4 values pushed */
0 15 0 9 
CALL[ ]\011/* CallFunction */
PUSHB[ ]\011/* 2 values pushed */
49 1 
CALL[ ]\011/* CallFunction */
PUSHB[ ]\011/* 1 value pushed */
54 
SMD[ ]\011/* SetMinimumDistance */
PUSHW[ ]\011/* 3 values pushed */
15596 -5021 21 
CALL[ ]\011/* CallFunction */
SPVFS[ ]\011/* SetPVectorFromStack */
SFVTPV[ ]\011/* SetFVectorToPVector */
PUSHB[ ]\011/* 1 value pushed */
2 
SRP0[ ]\011/* SetRefPoint0 */
PUSHB[ ]\011/* 1 value pushed */
3 
MDRP[00000]\011/* MoveDirectRelPt */
PUSHB[ ]\011/* 2 values pushed */
18 5 
MIRP[11001]\011/* MoveIndirectRelPt */
PUSHB[ ]\011/* 1 value pushed */
24 
MDRP[00000]\011/* MoveDirectRelPt */
PUSHW[ ]\011/* 3 values pushed */
-15645 -4865 21 
CALL[ ]\011/* CallFunction */
SPVFS[ ]\011/* SetPVectorFromStack */
SFVTCA[1]\011/* SetFVectorToAxis */
PUSHB[ ]\011/* 1 value pushed */
16 
MDAP[0]\011/* MoveDirectAbsPt */
PUSHB[ ]\011/* 2 values pushed */
18 24 
SFVTL[0]\011/* SetFVectorToLine */
PUSHB[ ]\011/* 1 value pushed */
24 
MDRP[00000]\011/* MoveDirectRelPt */
SFVTCA[0]\011/* SetFVectorToAxis */
PUSHB[ ]\011/* 2 values pushed */
7 4 
MIRP[11001]\011/* MoveIndirectRelPt */
SFVTPV[ ]\011/* SetFVectorToPVector */
PUSHB[ ]\011/* 1 value pushed */
6 
MDRP[00000]\011/* MoveDirectRelPt */
SFVTCA[1]\011/* SetFVectorToAxis */
PUSHB[ ]\011/* 1 value pushed */
18 
SRP0[ ]\011/* SetRefPoint0 */
PUSHB[ ]\011/* 4 values pushed */
17 18 24 19 
CALL[ ]\011/* CallFunction */
PUSHB[ ]\011/* 4 values pushed */
22 18 24 19 
CALL[ ]\011/* CallFunction */
PUSHB[ ]\011/* 1 value pushed */
24 
SRP0[ ]\011/* SetRefPoint0 */
PUSHB[ ]\011/* 4 values pushed */
23 24 16 19 
CALL[ ]\011/* CallFunction */
SPVTCA[1]\011/* SetPVectorToAxis */
SVTCA[0]\011/* SetFreedomAndProjectionVectorToAxis */
PUSHB[ ]\011/* 6 values pushed */
2 3 6 7 18 24 
MDAP[0]\011/* MoveDirectAbsPt */
MDAP[0]\011/* MoveDirectAbsPt */
MDAP[0]\011/* MoveDirectAbsPt */
MDAP[0]\011/* MoveDirectAbsPt */
MDAP[0]\011/* MoveDirectAbsPt */
MDAP[0]\011/* MoveDirectAbsPt */
SVTCA[1]\011/* SetFreedomAndProjectionVectorToAxis */
NPUSHB[ ]\011/* 9 values pushed */
2 3 6 16 17 18 22 23 24 
MDAP[0]\011/* MoveDirectAbsPt */
MDAP[0]\011/* MoveDirectAbsPt */
MDAP[0]\011/* MoveDirectAbsPt */
MDAP[0]\011/* MoveDirectAbsPt */
MDAP[0]\011/* MoveDirectAbsPt */
MDAP[0]\011/* MoveDirectAbsPt */
MDAP[0]\011/* MoveDirectAbsPt */
MDAP[0]\011/* MoveDirectAbsPt */
MDAP[0]\011/* MoveDirectAbsPt */
PUSHB[ ]\011/* 1 value pushed */
64 
SMD[ ]\011/* SetMinimumDistance */
PUSHB[ ]\011/* 2 values pushed */
42 37 
SRP1[ ]\011/* SetRefPoint1 */
SRP2[ ]\011/* SetRefPoint2 */
PUSHB[ ]\011/* 2 values pushed */
28 34 
IP[ ]\011/* InterpolatePts */
IP[ ]\011/* InterpolatePts */
SVTCA[0]\011/* SetFreedomAndProjectionVectorToAxis */
PUSHB[ ]\011/* 2 values pushed */
45 40 
SRP1[ ]\011/* SetRefPoint1 */
SRP2[ ]\011/* SetRefPoint2 */
PUSHB[ ]\011/* 2 values pushed */
31 25 
IP[ ]\011/* InterpolatePts */
IP[ ]\011/* InterpolatePts */
IUP[0]\011/* InterpolateUntPts */
IUP[1]\011/* InterpolateUntPts */";
};
width = 521;
}
);
leftKerningGroup = A;
rightKerningGroup = A;
unicode = 00C5;
},
{
color = 10;
glyphname = Atilde;
layers = (
{
components = (
{
name = A;
},
{
name = tildecomb;
transform = "{1, 0, 0, 1, 113, 259}";
}
);
hints = (
{
horizontal = 1;
place = "{915, 34}";
type = Stem;
},
{
horizontal = 1;
place = "{878, 34}";
type = Stem;
},
{
horizontal = 1;
place = "{177, 36}";
type = Stem;
},
{
horizontal = 1;
place = "{0, 21}";
target = up;
type = BottomGhost;
},
{
horizontal = 1;
place = "{737, -20}";
target = down;
type = TopGhost;
}
);
layerId = UUID0;
width = 521;
},
{
components = (
{
name = A;
},
{
name = tildecomb;
transform = "{1, 0, 0, 1, 117, 238}";
}
);
hints = (
{
horizontal = 1;
place = "{154, 120}";
type = Stem;
},
{
horizontal = 1;
place = "{818, 101}";
type = Stem;
},
{
horizontal = 1;
place = "{845, 74}";
type = Stem;
},
{
horizontal = 1;
place = "{845, 101}";
type = Stem;
},
{
horizontal = 1;
place = "{0, 21}";
target = up;
type = BottomGhost;
},
{
horizontal = 1;
place = "{737, -20}";
target = down;
type = TopGhost;
}
);
layerId = "228CC867-ECE3-4F82-B853-1E58141B916C";
width = 589;
},
{
layerId = "F5CF7C91-484B-43F2-91EC-BD73E27C7962";
paths = (
{
closed = 1;
nodes = (
"4 38 OFFCURVE",
"69 0 OFFCURVE",
"104 0 QCURVE SMOOTH",
"147 0 OFFCURVE",
"155 29 QCURVE SMOOTH",
"189 154 LINE",
"400 154 LINE",
"434 29 LINE SMOOTH",
"442 0 OFFCURVE",
"485 0 QCURVE SMOOTH",
"520 0 OFFCURVE",
"585 38 OFFCURVE",
"585 64 QCURVE SMOOTH",
"585 67 OFFCURVE",
"583 75 QCURVE",
"396 685 LINE SMOOTH",
"388 710 OFFCURVE",
"331 737 OFFCURVE",
"257 737 OFFCURVE",
"200 710 OFFCURVE",
"192 685 QCURVE SMOOTH",
"6 75 LINE",
"4 67 OFFCURVE",
"4 64 QCURVE SMOOTH"
);
},
{
closed = 1;
nodes = (
"117 859 OFFCURVE",
"135 824 OFFCURVE",
"155 824 QCURVE SMOOTH",
"164 824 OFFCURVE",
"218 845 OFFCURVE",
"241 845 QCURVE SMOOTH",
"262 845 OFFCURVE",
"349 818 OFFCURVE",
"387 818 QCURVE SMOOTH",
"472 818 OFFCURVE",
"472 891 QCURVE SMOOTH",
"472 905 OFFCURVE",
"454 940 OFFCURVE",
"434 940 QCURVE SMOOTH",
"425 940 OFFCURVE",
"371 919 OFFCURVE",
"348 919 QCURVE SMOOTH",
"321 919 OFFCURVE",
"233 946 OFFCURVE",
"202 946 QCURVE SMOOTH",
"117 946 OFFCURVE",
"117 873 QCURVE SMOOTH"
);
},
{
closed = 1;
nodes = (
"294 542 LINE",
"367 274 LINE",
"221 274 LINE"
);
}
);
userData = {
assembly = "SVTCA[0]\011/* SetFreedomAndProjectionVectorToAxis */
PUSHB[ ]\011/* 3 values pushed */
21 1 0 
CALL[ ]\011/* CallFunction */
PUSHB[ ]\011/* 1 value pushed */
14 
SHP[1]\011/* ShiftPointByLastPoint */
PUSHB[ ]\011/* 3 values pushed */
6 3 0 
CALL[ ]\011/* CallFunction */
PUSHB[ ]\011/* 5 values pushed */
48 4 0 16 4 
CALL[ ]\011/* CallFunction */
PUSHB[ ]\011/* 5 values pushed */
18 46 21 6 13 
CALL[ ]\011/* CallFunction */
PUSHB[ ]\011/* 2 values pushed */
18 5 
MIRP[01001]\011/* MoveIndirectRelPt */
PUSHB[ ]\011/* 1 value pushed */
37 
MDAP[1]\011/* MoveDirectAbsPt */
PUSHB[ ]\011/* 5 values pushed */
29 5 0 19 4 
CALL[ ]\011/* CallFunction */
PUSHB[ ]\011/* 1 value pushed */
40 
DUP[ ]\011/* DuplicateTopStack */
MDRP[10110]\011/* MoveDirectRelPt */
SRP1[ ]\011/* SetRefPoint1 */
PUSHB[ ]\011/* 5 values pushed */
26 5 0 19 4 
CALL[ ]\011/* CallFunction */
SVTCA[1]\011/* SetFreedomAndProjectionVectorToAxis */
PUSHB[ ]\011/* 1 value pushed */
49 
MDAP[1]\011/* MoveDirectAbsPt */
PUSHB[ ]\011/* 2 values pushed */
50 1 
CALL[ ]\011/* CallFunction */
SVTCA[0]\011/* SetFreedomAndProjectionVectorToAxis */
PUSHB[ ]\011/* 2 values pushed */
18 21 
SRP1[ ]\011/* SetRefPoint1 */
SRP2[ ]\011/* SetRefPoint2 */
PUSHB[ ]\011/* 2 values pushed */
11 0 
IP[ ]\011/* InterpolatePts */
IP[ ]\011/* InterpolatePts */
PUSHB[ ]\011/* 2 values pushed */
40 37 
SRP1[ ]\011/* SetRefPoint1 */
SRP2[ ]\011/* SetRefPoint2 */
PUSHB[ ]\011/* 1 value pushed */
43 
IP[ ]\011/* InterpolatePts */
PUSHB[ ]\011/* 1 value pushed */
29 
SRP1[ ]\011/* SetRefPoint1 */
PUSHB[ ]\011/* 2 values pushed */
24 35 
IP[ ]\011/* InterpolatePts */
IP[ ]\011/* InterpolatePts */
PUSHB[ ]\011/* 1 value pushed */
26 
SRP2[ ]\011/* SetRefPoint2 */
PUSHB[ ]\011/* 1 value pushed */
32 
IP[ ]\011/* InterpolatePts */
IUP[0]\011/* InterpolateUntPts */
IUP[1]\011/* InterpolateUntPts */";
};
width = 589;
},
{
layerId = "4CEE6D0C-6158-494B-B4A5-6E5394691F1E";
paths = (
{
closed = 1;
nodes = (
"25 0 OFFCURVE",
"43 0 QCURVE SMOOTH",
"57 0 OFFCURVE",
"61 13 QCURVE SMOOTH",
"111 177 LINE",
"409 177 LINE",
"460 13 LINE SMOOTH",
"464 0 OFFCURVE",
"476 0 QCURVE SMOOTH",
"484 0 OFFCURVE",
"496 10 OFFCURVE",
"496 17 QCURVE SMOOTH",
"496 18 OFFCURVE",
"495 21 OFFCURVE",
"495 22 QCURVE",
"280 723 LINE",
"275 737 OFFCURVE",
"247 737 OFFCURVE",
"243 723 QCURVE SMOOTH",
"26 22 LINE",
"25 20 OFFCURVE",
"25 16 QCURVE SMOOTH"
);
},
{
closed = 1;
nodes = (
"113 880 OFFCURVE",
"126 880 QCURVE SMOOTH",
"131 880 OFFCURVE",
"148 898 OFFCURVE",
"176 915 OFFCURVE",
"195 915 QCURVE SMOOTH",
"224 915 OFFCURVE",
"301 878 OFFCURVE",
"324 878 QCURVE SMOOTH",
"351 878 OFFCURVE",
"408 908 OFFCURVE",
"408 929 QCURVE SMOOTH",
"408 944 OFFCURVE",
"394 944 QCURVE SMOOTH",
"388 944 OFFCURVE",
"374 928 OFFCURVE",
"349 912 OFFCURVE",
"329 912 QCURVE SMOOTH",
"303 912 OFFCURVE",
"226 949 OFFCURVE",
"202 949 QCURVE SMOOTH",
"174 949 OFFCURVE",
"113 916 OFFCURVE",
"113 897 QCURVE SMOOTH"
);
},
{
closed = 1;
nodes = (
"261 661 LINE",
"398 213 LINE",
"122 213 LINE"
);
}
);
userData = {
assembly = "SVTCA[0]\011/* SetFreedomAndProjectionVectorToAxis */
PUSHB[ ]\011/* 3 values pushed */
20 1 0 
CALL[ ]\011/* CallFunction */
PUSHB[ ]\011/* 1 value pushed */
13 
SHP[1]\011/* ShiftPointByLastPoint */
PUSHB[ ]\011/* 3 values pushed */
5 3 0 
CALL[ ]\011/* CallFunction */
PUSHB[ ]\011/* 5 values pushed */
17 46 20 5 13 
CALL[ ]\011/* CallFunction */
PUSHB[ ]\011/* 1 value pushed */
47 
SHP[1]\011/* ShiftPointByLastPoint */
PUSHB[ ]\011/* 2 values pushed */
17 4 
MIRP[01001]\011/* MoveIndirectRelPt */
PUSHB[ ]\011/* 1 value pushed */
16 
SHP[0]\011/* ShiftPointByLastPoint */
PUSHB[ ]\011/* 1 value pushed */
37 
MDAP[1]\011/* MoveDirectAbsPt */
PUSHB[ ]\011/* 1 value pushed */
44 
SHP[1]\011/* ShiftPointByLastPoint */
PUSHB[ ]\011/* 2 values pushed */
28 6 
MIRP[01001]\011/* MoveIndirectRelPt */
PUSHB[ ]\011/* 1 value pushed */
40 
MDAP[1]\011/* MoveDirectAbsPt */
PUSHB[ ]\011/* 2 values pushed */
25 6 
MIRP[01001]\011/* MoveIndirectRelPt */
SVTCA[1]\011/* SetFreedomAndProjectionVectorToAxis */
PUSHB[ ]\011/* 1 value pushed */
49 
MDAP[1]\011/* MoveDirectAbsPt */
PUSHB[ ]\011/* 1 value pushed */
15 
MDRP[10110]\011/* MoveDirectRelPt */
PUSHB[ ]\011/* 2 values pushed */
10 10 
MIRP[01001]\011/* MoveIndirectRelPt */
PUSHB[ ]\011/* 1 value pushed */
7 
SHP[0]\011/* ShiftPointByLastPoint */
PUSHB[ ]\011/* 3 values pushed */
15 10 10 
CALL[ ]\011/* CallFunction */
PUSHB[ ]\011/* 4 values pushed */
0 15 0 9 
CALL[ ]\011/* CallFunction */
PUSHB[ ]\011/* 2 values pushed */
50 1 
CALL[ ]\011/* CallFunction */
PUSHB[ ]\011/* 1 value pushed */
54 
SMD[ ]\011/* SetMinimumDistance */
PUSHW[ ]\011/* 3 values pushed */
15596 -5021 21 
CALL[ ]\011/* CallFunction */
SPVFS[ ]\011/* SetPVectorFromStack */
SFVTPV[ ]\011/* SetFVectorToPVector */
PUSHB[ ]\011/* 1 value pushed */
2 
SRP0[ ]\011/* SetRefPoint0 */
PUSHB[ ]\011/* 1 value pushed */
3 
MDRP[00000]\011/* MoveDirectRelPt */
PUSHB[ ]\011/* 2 values pushed */
18 5 
MIRP[11001]\011/* MoveIndirectRelPt */
PUSHB[ ]\011/* 1 value pushed */
48 
MDRP[00000]\011/* MoveDirectRelPt */
PUSHW[ ]\011/* 3 values pushed */
-15645 -4865 21 
CALL[ ]\011/* CallFunction */
SPVFS[ ]\011/* SetPVectorFromStack */
SFVTCA[1]\011/* SetFVectorToAxis */
PUSHB[ ]\011/* 1 value pushed */
16 
MDAP[0]\011/* MoveDirectAbsPt */
PUSHB[ ]\011/* 2 values pushed */
18 48 
SFVTL[0]\011/* SetFVectorToLine */
PUSHB[ ]\011/* 1 value pushed */
48 
MDRP[00000]\011/* MoveDirectRelPt */
SFVTCA[0]\011/* SetFVectorToAxis */
PUSHB[ ]\011/* 2 values pushed */
7 4 
MIRP[11001]\011/* MoveIndirectRelPt */
SFVTPV[ ]\011/* SetFVectorToPVector */
PUSHB[ ]\011/* 1 value pushed */
6 
MDRP[00000]\011/* MoveDirectRelPt */
SFVTCA[1]\011/* SetFVectorToAxis */
PUSHB[ ]\011/* 1 value pushed */
18 
SRP0[ ]\011/* SetRefPoint0 */
PUSHB[ ]\011/* 4 values pushed */
17 18 48 19 
CALL[ ]\011/* CallFunction */
PUSHB[ ]\011/* 4 values pushed */
46 18 48 19 
CALL[ ]\011/* CallFunction */
PUSHB[ ]\011/* 1 value pushed */
48 
SRP0[ ]\011/* SetRefPoint0 */
PUSHB[ ]\011/* 4 values pushed */
47 48 16 19 
CALL[ ]\011/* CallFunction */
SPVTCA[1]\011/* SetPVectorToAxis */
SVTCA[0]\011/* SetFreedomAndProjectionVectorToAxis */
PUSHB[ ]\011/* 6 values pushed */
2 3 6 7 18 48 
MDAP[0]\011/* MoveDirectAbsPt */
MDAP[0]\011/* MoveDirectAbsPt */
MDAP[0]\011/* MoveDirectAbsPt */
MDAP[0]\011/* MoveDirectAbsPt */
MDAP[0]\011/* MoveDirectAbsPt */
MDAP[0]\011/* MoveDirectAbsPt */
SVTCA[1]\011/* SetFreedomAndProjectionVectorToAxis */
NPUSHB[ ]\011/* 9 values pushed */
2 3 6 16 17 18 46 47 48 
MDAP[0]\011/* MoveDirectAbsPt */
MDAP[0]\011/* MoveDirectAbsPt */
MDAP[0]\011/* MoveDirectAbsPt */
MDAP[0]\011/* MoveDirectAbsPt */
MDAP[0]\011/* MoveDirectAbsPt */
MDAP[0]\011/* MoveDirectAbsPt */
MDAP[0]\011/* MoveDirectAbsPt */
MDAP[0]\011/* MoveDirectAbsPt */
MDAP[0]\011/* MoveDirectAbsPt */
PUSHB[ ]\011/* 1 value pushed */
64 
SMD[ ]\011/* SetMinimumDistance */
SVTCA[0]\011/* SetFreedomAndProjectionVectorToAxis */
PUSHB[ ]\011/* 2 values pushed */
28 37 
SRP1[ ]\011/* SetRefPoint1 */
SRP2[ ]\011/* SetRefPoint2 */
PUSHB[ ]\011/* 1 value pushed */
22 
IP[ ]\011/* InterpolatePts */
PUSHB[ ]\011/* 2 values pushed */
25 40 
SRP1[ ]\011/* SetRefPoint1 */
SRP2[ ]\011/* SetRefPoint2 */
PUSHB[ ]\011/* 2 values pushed */
32 34 
IP[ ]\011/* InterpolatePts */
IP[ ]\011/* InterpolatePts */
IUP[0]\011/* InterpolateUntPts */
IUP[1]\011/* InterpolateUntPts */";
};
width = 521;
}
);
leftKerningGroup = A;
rightKerningGroup = A;
unicode = 00C3;
},
{
color = 10;
glyphname = AE;
layers = (
{
anchors = (
{
name = bottom;
position = "{340, 0}";
},
{
name = top;
position = "{343, 731}";
}
);
background = {
paths = (
{
closed = 1;
nodes = (
"398 695 LINE",
"635 695 LINE SMOOTH",
"646 695 OFFCURVE",
"652 704 OFFCURVE",
"652 714 CURVE SMOOTH",
"652 722 OFFCURVE",
"647 731 OFFCURVE",
"635 731 CURVE SMOOTH",
"275 731 LINE SMOOTH",
"165 731 OFFCURVE",
"79 675 OFFCURVE",
"79 525 CURVE SMOOTH",
"79 23 LINE SMOOTH",
"79 10 OFFCURVE",
"84 0 OFFCURVE",
"97 0 CURVE SMOOTH",
"113 0 OFFCURVE",
"115 10 OFFCURVE",
"115 23 CURVE SMOOTH",
"115 348 LINE",
"362 348 LINE",
"362 18 LINE SMOOTH",
"362 6 OFFCURVE",
"371 0 OFFCURVE",
"380 0 CURVE SMOOTH",
"635 0 LINE SMOOTH",
"647 0 OFFCURVE",
"652 9 OFFCURVE",
"652 17 CURVE SMOOTH",
"652 27 OFFCURVE",
"646 36 OFFCURVE",
"635 36 CURVE SMOOTH",
"398 36 LINE",
"398 348 LINE",
"558 348 LINE SMOOTH",
"570 348 OFFCURVE",
"575 357 OFFCURVE",
"575 365 CURVE SMOOTH",
"575 375 OFFCURVE",
"569 384 OFFCURVE",
"558 384 CURVE SMOOTH",
"398 384 LINE"
);
},
{
closed = 1;
nodes = (
"115 525 LINE SMOOTH",
"115 641 OFFCURVE",
"175 695 OFFCURVE",
"275 695 CURVE SMOOTH",
"362 695 LINE",
"362 384 LINE",
"115 384 LINE"
);
}
);
};
hints = (
{
place = "{79, 36}";
type = Stem;
},
{
place = "{362, 36}";
type = Stem;
},
{
horizontal = 1;
place = "{0, 36}";
type = Stem;
},
{
horizontal = 1;
place = "{348, 36}";
type = Stem;
},
{
horizontal = 1;
place = "{695, 36}";
type = Stem;
}
);
layerId = UUID0;
paths = (
{
closed = 1;
nodes = (
"113 0 OFFCURVE",
"115 10 OFFCURVE",
"115 23 CURVE SMOOTH",
"115 348 LINE",
"362 348 LINE",
"362 18 LINE SMOOTH",
"362 6 OFFCURVE",
"371 0 OFFCURVE",
"380 0 CURVE SMOOTH",
"635 0 LINE SMOOTH",
"647 0 OFFCURVE",
"652 9 OFFCURVE",
"652 17 CURVE SMOOTH",
"652 27 OFFCURVE",
"646 36 OFFCURVE",
"635 36 CURVE SMOOTH",
"398 36 LINE",
"398 348 LINE",
"558 348 LINE SMOOTH",
"570 348 OFFCURVE",
"575 357 OFFCURVE",
"575 365 CURVE SMOOTH",
"575 375 OFFCURVE",
"569 384 OFFCURVE",
"558 384 CURVE SMOOTH",
"398 384 LINE",
"398 695 LINE",
"635 695 LINE SMOOTH",
"646 695 OFFCURVE",
"652 704 OFFCURVE",
"652 714 CURVE SMOOTH",
"652 722 OFFCURVE",
"647 731 OFFCURVE",
"635 731 CURVE SMOOTH",
"275 731 LINE SMOOTH",
"165 731 OFFCURVE",
"79 675 OFFCURVE",
"79 525 CURVE SMOOTH",
"79 23 LINE SMOOTH",
"79 10 OFFCURVE",
"84 0 OFFCURVE",
"97 0 CURVE SMOOTH"
);
},
{
closed = 1;
nodes = (
"115 525 LINE SMOOTH",
"115 641 OFFCURVE",
"175 695 OFFCURVE",
"275 695 CURVE SMOOTH",
"362 695 LINE",
"362 384 LINE",
"115 384 LINE"
);
}
);
width = 680;
},
{
anchors = (
{
name = bottom;
position = "{409, 0}";
},
{
name = top;
position = "{409, 731}";
}
);
background = {
paths = (
{
closed = 1;
nodes = (
"410 695 LINE",
"647 695 LINE SMOOTH",
"658 695 OFFCURVE",
"664 704 OFFCURVE",
"664 714 CURVE SMOOTH",
"664 722 OFFCURVE",
"659 731 OFFCURVE",
"647 731 CURVE SMOOTH",
"287 731 LINE SMOOTH",
"177 731 OFFCURVE",
"91 675 OFFCURVE",
"91 525 CURVE SMOOTH",
"91 23 LINE SMOOTH",
"91 10 OFFCURVE",
"96 0 OFFCURVE",
"109 0 CURVE SMOOTH",
"125 0 OFFCURVE",
"127 10 OFFCURVE",
"127 23 CURVE SMOOTH",
"127 348 LINE",
"374 348 LINE",
"374 18 LINE SMOOTH",
"374 6 OFFCURVE",
"383 0 OFFCURVE",
"392 0 CURVE SMOOTH",
"647 0 LINE SMOOTH",
"659 0 OFFCURVE",
"664 9 OFFCURVE",
"664 17 CURVE SMOOTH",
"664 27 OFFCURVE",
"658 36 OFFCURVE",
"647 36 CURVE SMOOTH",
"410 36 LINE",
"410 348 LINE",
"570 348 LINE SMOOTH",
"582 348 OFFCURVE",
"587 357 OFFCURVE",
"587 365 CURVE SMOOTH",
"587 375 OFFCURVE",
"581 384 OFFCURVE",
"570 384 CURVE SMOOTH",
"410 384 LINE"
);
},
{
closed = 1;
nodes = (
"127 525 LINE SMOOTH",
"127 641 OFFCURVE",
"187 695 OFFCURVE",
"287 695 CURVE SMOOTH",
"374 695 LINE",
"374 384 LINE",
"127 384 LINE"
);
}
);
};
hints = (
{
place = "{51, 146}";
type = Stem;
},
{
place = "{374, 156}";
type = Stem;
},
{
horizontal = 1;
place = "{0, 136}";
type = Stem;
},
{
horizontal = 1;
place = "{306, 120}";
type = Stem;
},
{
horizontal = 1;
place = "{595, 136}";
type = Stem;
}
);
layerId = "228CC867-ECE3-4F82-B853-1E58141B916C";
paths = (
{
closed = 1;
nodes = (
"188 0 OFFCURVE",
"197 23 OFFCURVE",
"197 53 CURVE SMOOTH",
"197 306 LINE",
"374 306 LINE",
"374 48 LINE SMOOTH",
"374 16 OFFCURVE",
"408 0 OFFCURVE",
"442 0 CURVE SMOOTH",
"756 0 LINE SMOOTH",
"789 0 OFFCURVE",
"803 35 OFFCURVE",
"803 67 CURVE SMOOTH",
"803 104 OFFCURVE",
"786 136 OFFCURVE",
"756 136 CURVE SMOOTH",
"530 136 LINE",
"530 306 LINE",
"638 306 LINE SMOOTH",
"671 306 OFFCURVE",
"685 338 OFFCURVE",
"685 365 CURVE SMOOTH",
"685 397 OFFCURVE",
"668 426 OFFCURVE",
"638 426 CURVE SMOOTH",
"530 426 LINE",
"530 595 LINE",
"756 595 LINE SMOOTH",
"786 595 OFFCURVE",
"803 627 OFFCURVE",
"803 664 CURVE SMOOTH",
"803 696 OFFCURVE",
"789 731 OFFCURVE",
"756 731 CURVE SMOOTH",
"287 731 LINE SMOOTH",
"155 731 OFFCURVE",
"51 667 OFFCURVE",
"51 495 CURVE SMOOTH",
"51 53 LINE SMOOTH",
"51 23 OFFCURVE",
"70 0 OFFCURVE",
"119 0 CURVE SMOOTH"
);
},
{
closed = 1;
nodes = (
"197 495 LINE SMOOTH",
"197 563 OFFCURVE",
"231 595 OFFCURVE",
"287 595 CURVE SMOOTH",
"374 595 LINE",
"374 426 LINE",
"197 426 LINE"
);
}
);
width = 817;
},
{
layerId = "F5CF7C91-484B-43F2-91EC-BD73E27C7962";
paths = (
{
closed = 1;
nodes = (
"51 0 OFFCURVE",
"119 0 QCURVE SMOOTH",
"166 0 OFFCURVE",
"197 27 OFFCURVE",
"197 53 QCURVE SMOOTH",
"197 306 LINE",
"374 306 LINE",
"374 48 LINE SMOOTH",
"374 25 OFFCURVE",
"414 0 OFFCURVE",
"442 0 QCURVE SMOOTH",
"756 0 LINE SMOOTH",
"779 0 OFFCURVE",
"803 40 OFFCURVE",
"803 67 QCURVE SMOOTH",
"803 96 OFFCURVE",
"778 136 OFFCURVE",
"756 136 QCURVE SMOOTH",
"530 136 LINE",
"530 306 LINE",
"638 306 LINE SMOOTH",
"661 306 OFFCURVE",
"685 342 OFFCURVE",
"685 365 QCURVE SMOOTH",
"685 390 OFFCURVE",
"660 426 OFFCURVE",
"638 426 QCURVE SMOOTH",
"530 426 LINE",
"530 595 LINE",
"756 595 LINE SMOOTH",
"778 595 OFFCURVE",
"803 635 OFFCURVE",
"803 664 QCURVE SMOOTH",
"803 691 OFFCURVE",
"779 731 OFFCURVE",
"756 731 QCURVE SMOOTH",
"287 731 LINE SMOOTH",
"180 731 OFFCURVE",
"51 617 OFFCURVE",
"51 495 QCURVE SMOOTH",
"51 53 LINE SMOOTH"
);
},
{
closed = 1;
nodes = (
"197 495 LINE SMOOTH",
"197 595 OFFCURVE",
"287 595 QCURVE SMOOTH",
"374 595 LINE",
"374 426 LINE",
"197 426 LINE"
);
}
);
userData = {
assembly = "SVTCA[0]\011/* SetFreedomAndProjectionVectorToAxis */
PUSHB[ ]\011/* 3 values pushed */
30 1 0 
CALL[ ]\011/* CallFunction */
PUSHB[ ]\011/* 1 value pushed */
39 
SHP[1]\011/* ShiftPointByLastPoint */
PUSHB[ ]\011/* 2 values pushed */
22 4 
MIRP[01001]\011/* MoveIndirectRelPt */
PUSHB[ ]\011/* 3 values pushed */
4 3 0 
CALL[ ]\011/* CallFunction */
PUSHB[ ]\011/* 2 values pushed */
44 4 
MIRP[01001]\011/* MoveIndirectRelPt */
PUSHB[ ]\011/* 1 value pushed */
11 
SHP[0]\011/* ShiftPointByLastPoint */
PUSHB[ ]\011/* 5 values pushed */
41 35 30 4 13 
CALL[ ]\011/* CallFunction */
PUSHB[ ]\011/* 1 value pushed */
20 
SHP[1]\011/* ShiftPointByLastPoint */
PUSHB[ ]\011/* 2 values pushed */
41 5 
MIRP[01001]\011/* MoveIndirectRelPt */
PUSHB[ ]\011/* 1 value pushed */
13 
SHP[0]\011/* ShiftPointByLastPoint */
SVTCA[1]\011/* SetFreedomAndProjectionVectorToAxis */
PUSHB[ ]\011/* 1 value pushed */
47 
MDAP[1]\011/* MoveDirectAbsPt */
PUSHB[ ]\011/* 1 value pushed */
0 
MDRP[10110]\011/* MoveDirectRelPt */
PUSHB[ ]\011/* 2 values pushed */
36 11 
MIRP[01001]\011/* MoveIndirectRelPt */
PUSHB[ ]\011/* 1 value pushed */
41 
SHP[0]\011/* ShiftPointByLastPoint */
PUSHB[ ]\011/* 1 value pushed */
36 
SRP0[ ]\011/* SetRefPoint0 */
PUSHB[ ]\011/* 2 values pushed */
33 1 
CALL[ ]\011/* CallFunction */
PUSHB[ ]\011/* 1 value pushed */
42 
SHP[0]\011/* ShiftPointByLastPoint */
PUSHB[ ]\011/* 2 values pushed */
22 6 
MIRP[01001]\011/* MoveIndirectRelPt */
PUSHB[ ]\011/* 1 value pushed */
12 
SHP[0]\011/* ShiftPointByLastPoint */
PUSHB[ ]\011/* 3 values pushed */
22 33 10 
CALL[ ]\011/* CallFunction */
PUSHB[ ]\011/* 4 values pushed */
64 22 17 9 
CALL[ ]\011/* CallFunction */
PUSHB[ ]\011/* 1 value pushed */
33 
SRP0[ ]\011/* SetRefPoint0 */
PUSHB[ ]\011/* 2 values pushed */
26 16 
MIRP[01001]\011/* MoveIndirectRelPt */
PUSHB[ ]\011/* 1 value pushed */
8 
SHP[0]\011/* ShiftPointByLastPoint */
PUSHB[ ]\011/* 2 values pushed */
48 1 
CALL[ ]\011/* CallFunction */
SVTCA[0]\011/* SetFreedomAndProjectionVectorToAxis */
IUP[0]\011/* InterpolateUntPts */
IUP[1]\011/* InterpolateUntPts */";
};
width = 817;
},
{
layerId = "4CEE6D0C-6158-494B-B4A5-6E5394691F1E";
paths = (
{
closed = 1;
nodes = (
"79 0 OFFCURVE",
"115 0 OFFCURVE",
"115 23 QCURVE SMOOTH",
"115 348 LINE",
"362 348 LINE",
"362 18 LINE SMOOTH",
"362 0 OFFCURVE",
"380 0 QCURVE SMOOTH",
"635 0 LINE SMOOTH",
"652 0 OFFCURVE",
"652 17 QCURVE SMOOTH",
"652 36 OFFCURVE",
"635 36 QCURVE SMOOTH",
"398 36 LINE",
"398 348 LINE",
"558 348 LINE SMOOTH",
"575 348 OFFCURVE",
"575 365 QCURVE SMOOTH",
"575 384 OFFCURVE",
"558 384 QCURVE SMOOTH",
"398 384 LINE",
"398 695 LINE",
"635 695 LINE SMOOTH",
"652 695 OFFCURVE",
"652 714 QCURVE SMOOTH",
"652 731 OFFCURVE",
"635 731 QCURVE SMOOTH",
"275 731 LINE SMOOTH",
"186 731 OFFCURVE",
"79 632 OFFCURVE",
"79 525 QCURVE SMOOTH",
"79 23 LINE SMOOTH"
);
},
{
closed = 1;
nodes = (
"115 525 LINE SMOOTH",
"115 610 OFFCURVE",
"198 695 OFFCURVE",
"275 695 QCURVE SMOOTH",
"362 695 LINE",
"362 384 LINE",
"115 384 LINE"
);
}
);
userData = {
assembly = "SVTCA[0]\011/* SetFreedomAndProjectionVectorToAxis */
PUSHB[ ]\011/* 3 values pushed */
24 1 0 
CALL[ ]\011/* CallFunction */
PUSHB[ ]\011/* 1 value pushed */
30 
SHP[1]\011/* ShiftPointByLastPoint */
PUSHB[ ]\011/* 2 values pushed */
18 4 
MIRP[01001]\011/* MoveIndirectRelPt */
PUSHB[ ]\011/* 3 values pushed */
4 3 0 
CALL[ ]\011/* CallFunction */
PUSHB[ ]\011/* 2 values pushed */
35 4 
MIRP[01001]\011/* MoveIndirectRelPt */
PUSHB[ ]\011/* 1 value pushed */
9 
SHP[0]\011/* ShiftPointByLastPoint */
PUSHB[ ]\011/* 5 values pushed */
32 28 24 4 13 
CALL[ ]\011/* CallFunction */
PUSHB[ ]\011/* 1 value pushed */
16 
SHP[1]\011/* ShiftPointByLastPoint */
PUSHB[ ]\011/* 2 values pushed */
32 4 
MIRP[01001]\011/* MoveIndirectRelPt */
PUSHB[ ]\011/* 1 value pushed */
11 
SHP[0]\011/* ShiftPointByLastPoint */
SVTCA[1]\011/* SetFreedomAndProjectionVectorToAxis */
PUSHB[ ]\011/* 1 value pushed */
39 
MDAP[1]\011/* MoveDirectAbsPt */
PUSHB[ ]\011/* 1 value pushed */
0 
MDRP[10110]\011/* MoveDirectRelPt */
PUSHB[ ]\011/* 2 values pushed */
29 10 
MIRP[01001]\011/* MoveIndirectRelPt */
PUSHB[ ]\011/* 1 value pushed */
32 
SHP[0]\011/* ShiftPointByLastPoint */
PUSHB[ ]\011/* 1 value pushed */
29 
SRP0[ ]\011/* SetRefPoint0 */
PUSHB[ ]\011/* 2 values pushed */
26 1 
CALL[ ]\011/* CallFunction */
PUSHB[ ]\011/* 1 value pushed */
33 
SHP[0]\011/* ShiftPointByLastPoint */
PUSHB[ ]\011/* 2 values pushed */
18 10 
MIRP[01001]\011/* MoveIndirectRelPt */
PUSHB[ ]\011/* 1 value pushed */
10 
SHP[0]\011/* ShiftPointByLastPoint */
PUSHB[ ]\011/* 3 values pushed */
18 26 10 
CALL[ ]\011/* CallFunction */
PUSHB[ ]\011/* 4 values pushed */
64 18 7 9 
CALL[ ]\011/* CallFunction */
PUSHB[ ]\011/* 1 value pushed */
21 
SHP[0]\011/* ShiftPointByLastPoint */
PUSHB[ ]\011/* 4 values pushed */
64 18 14 9 
CALL[ ]\011/* CallFunction */
PUSHB[ ]\011/* 2 values pushed */
40 1 
CALL[ ]\011/* CallFunction */
SVTCA[0]\011/* SetFreedomAndProjectionVectorToAxis */
IUP[0]\011/* InterpolateUntPts */
IUP[1]\011/* InterpolateUntPts */";
};
width = 680;
}
);
leftKerningGroup = AE;
rightKerningGroup = E;
unicode = 00C6;
},
{
color = 10;
glyphname = AEacute;
layers = (
{
components = (
{
name = AE;
},
{
name = acutecomb;
transform = "{1, 0, 0, 1, 276, 259}";
}
);
hints = (
{
place = "{79, 36}";
type = Stem;
},
{
place = "{362, 36}";
type = Stem;
},
{
horizontal = 1;
place = "{0, 36}";
type = Stem;
},
{
horizontal = 1;
place = "{348, 36}";
type = Stem;
},
{
horizontal = 1;
place = "{695, 36}";
type = Stem;
},
{
horizontal = 1;
place = "{953, -20}";
target = down;
type = TopGhost;
}
);
layerId = UUID0;
width = 680;
},
{
background = {
paths = (
{
closed = 1;
nodes = (
"188 0 OFFCURVE",
"197 23 OFFCURVE",
"197 53 CURVE SMOOTH",
"197 306 LINE",
"374 306 LINE",
"374 48 LINE SMOOTH",
"374 16 OFFCURVE",
"408 0 OFFCURVE",
"442 0 CURVE SMOOTH",
"756 0 LINE SMOOTH",
"789 0 OFFCURVE",
"803 35 OFFCURVE",
"803 67 CURVE SMOOTH",
"803 104 OFFCURVE",
"786 136 OFFCURVE",
"756 136 CURVE SMOOTH",
"530 136 LINE",
"530 306 LINE",
"638 306 LINE SMOOTH",
"671 306 OFFCURVE",
"685 338 OFFCURVE",
"685 365 CURVE SMOOTH",
"685 397 OFFCURVE",
"668 426 OFFCURVE",
"638 426 CURVE SMOOTH",
"530 426 LINE",
"530 595 LINE",
"756 595 LINE SMOOTH",
"786 595 OFFCURVE",
"803 627 OFFCURVE",
"803 664 CURVE SMOOTH",
"803 696 OFFCURVE",
"789 731 OFFCURVE",
"756 731 CURVE SMOOTH",
"287 731 LINE SMOOTH",
"155 731 OFFCURVE",
"51 667 OFFCURVE",
"51 495 CURVE SMOOTH",
"51 53 LINE SMOOTH",
"51 23 OFFCURVE",
"70 0 OFFCURVE",
"119 0 CURVE SMOOTH"
);
},
{
closed = 1;
nodes = (
"197 495 LINE SMOOTH",
"197 563 OFFCURVE",
"231 595 OFFCURVE",
"287 595 CURVE SMOOTH",
"374 595 LINE",
"374 426 LINE",
"197 426 LINE"
);
},
{
closed = 1;
nodes = (
"439 794 OFFCURVE",
"444 796 OFFCURVE",
"449 798 CURVE",
"589 863 LINE SMOOTH",
"603 870 OFFCURVE",
"609 883 OFFCURVE",
"609 897 CURVE SMOOTH",
"609 923 OFFCURVE",
"589 955 OFFCURVE",
"562 955 CURVE SMOOTH",
"558 955 OFFCURVE",
"553 954 OFFCURVE",
"548 952 CURVE",
"408 887 LINE SMOOTH",
"394 880 OFFCURVE",
"388 867 OFFCURVE",
"388 852 CURVE SMOOTH",
"388 826 OFFCURVE",
"408 794 OFFCURVE",
"434 794 CURVE SMOOTH"
);
}
);
};
components = (
{
name = AE;
},
{
name = acutecomb;
transform = "{1, 0, 0, 1, 333, 239}";
}
);
hints = (
{
place = "{51, 146}";
type = Stem;
},
{
place = "{374, 156}";
type = Stem;
},
{
place = "{388, 221}";
type = Stem;
},
{
horizontal = 1;
place = "{0, 136}";
type = Stem;
},
{
horizontal = 1;
place = "{306, 120}";
type = Stem;
},
{
horizontal = 1;
place = "{595, 136}";
type = Stem;
},
{
horizontal = 1;
place = "{955, -20}";
target = down;
type = TopGhost;
}
);
layerId = "228CC867-ECE3-4F82-B853-1E58141B916C";
width = 817;
},
{
layerId = "F5CF7C91-484B-43F2-91EC-BD73E27C7962";
paths = (
{
closed = 1;
nodes = (
"51 0 OFFCURVE",
"119 0 QCURVE SMOOTH",
"166 0 OFFCURVE",
"197 27 OFFCURVE",
"197 53 QCURVE SMOOTH",
"197 306 LINE",
"374 306 LINE",
"374 48 LINE SMOOTH",
"374 25 OFFCURVE",
"414 0 OFFCURVE",
"442 0 QCURVE SMOOTH",
"756 0 LINE SMOOTH",
"779 0 OFFCURVE",
"803 40 OFFCURVE",
"803 67 QCURVE SMOOTH",
"803 96 OFFCURVE",
"778 136 OFFCURVE",
"756 136 QCURVE SMOOTH",
"530 136 LINE",
"530 306 LINE",
"638 306 LINE SMOOTH",
"661 306 OFFCURVE",
"685 342 OFFCURVE",
"685 365 QCURVE SMOOTH",
"685 390 OFFCURVE",
"660 426 OFFCURVE",
"638 426 QCURVE SMOOTH",
"530 426 LINE",
"530 595 LINE",
"756 595 LINE SMOOTH",
"778 595 OFFCURVE",
"803 635 OFFCURVE",
"803 664 QCURVE SMOOTH",
"803 691 OFFCURVE",
"779 731 OFFCURVE",
"756 731 QCURVE SMOOTH",
"287 731 LINE SMOOTH",
"180 731 OFFCURVE",
"51 617 OFFCURVE",
"51 495 QCURVE SMOOTH",
"51 53 LINE SMOOTH"
);
},
{
closed = 1;
nodes = (
"197 495 LINE SMOOTH",
"197 595 OFFCURVE",
"287 595 QCURVE SMOOTH",
"374 595 LINE",
"374 426 LINE",
"197 426 LINE"
);
},
{
closed = 1;
nodes = (
"388 831 OFFCURVE",
"415 794 OFFCURVE",
"434 794 QCURVE SMOOTH",
"439 794 OFFCURVE",
"449 798 QCURVE",
"589 863 LINE SMOOTH",
"609 873 OFFCURVE",
"609 897 QCURVE SMOOTH",
"609 918 OFFCURVE",
"581 955 OFFCURVE",
"562 955 QCURVE SMOOTH",
"556 955 OFFCURVE",
"548 952 QCURVE",
"408 887 LINE SMOOTH",
"388 877 OFFCURVE",
"388 852 QCURVE SMOOTH"
);
}
);
userData = {
assembly = "SVTCA[0]\011/* SetFreedomAndProjectionVectorToAxis */
PUSHB[ ]\011/* 3 values pushed */
30 1 0 
CALL[ ]\011/* CallFunction */
PUSHB[ ]\011/* 1 value pushed */
39 
SHP[1]\011/* ShiftPointByLastPoint */
PUSHB[ ]\011/* 2 values pushed */
22 4 
MIRP[01001]\011/* MoveIndirectRelPt */
PUSHB[ ]\011/* 3 values pushed */
4 3 0 
CALL[ ]\011/* CallFunction */
PUSHB[ ]\011/* 2 values pushed */
44 4 
MIRP[01001]\011/* MoveIndirectRelPt */
PUSHB[ ]\011/* 1 value pushed */
11 
SHP[0]\011/* ShiftPointByLastPoint */
PUSHB[ ]\011/* 5 values pushed */
41 35 30 4 13 
CALL[ ]\011/* CallFunction */
PUSHB[ ]\011/* 1 value pushed */
20 
SHP[1]\011/* ShiftPointByLastPoint */
PUSHB[ ]\011/* 2 values pushed */
41 5 
MIRP[01001]\011/* MoveIndirectRelPt */
PUSHB[ ]\011/* 1 value pushed */
13 
SHP[0]\011/* ShiftPointByLastPoint */
SVTCA[1]\011/* SetFreedomAndProjectionVectorToAxis */
PUSHB[ ]\011/* 1 value pushed */
63 
MDAP[1]\011/* MoveDirectAbsPt */
PUSHB[ ]\011/* 1 value pushed */
0 
MDRP[10110]\011/* MoveDirectRelPt */
PUSHB[ ]\011/* 2 values pushed */
36 11 
MIRP[01001]\011/* MoveIndirectRelPt */
PUSHB[ ]\011/* 1 value pushed */
41 
SHP[0]\011/* ShiftPointByLastPoint */
PUSHB[ ]\011/* 1 value pushed */
36 
SRP0[ ]\011/* SetRefPoint0 */
PUSHB[ ]\011/* 2 values pushed */
33 1 
CALL[ ]\011/* CallFunction */
PUSHB[ ]\011/* 1 value pushed */
42 
SHP[0]\011/* ShiftPointByLastPoint */
PUSHB[ ]\011/* 2 values pushed */
22 6 
MIRP[01001]\011/* MoveIndirectRelPt */
PUSHB[ ]\011/* 1 value pushed */
12 
SHP[0]\011/* ShiftPointByLastPoint */
PUSHB[ ]\011/* 3 values pushed */
22 33 10 
CALL[ ]\011/* CallFunction */
PUSHB[ ]\011/* 4 values pushed */
64 22 17 9 
CALL[ ]\011/* CallFunction */
PUSHB[ ]\011/* 1 value pushed */
33 
SRP0[ ]\011/* SetRefPoint0 */
PUSHB[ ]\011/* 2 values pushed */
26 16 
MIRP[01001]\011/* MoveIndirectRelPt */
PUSHB[ ]\011/* 1 value pushed */
8 
SHP[0]\011/* ShiftPointByLastPoint */
PUSHB[ ]\011/* 2 values pushed */
64 1 
CALL[ ]\011/* CallFunction */
PUSHB[ ]\011/* 2 values pushed */
22 33 
SRP1[ ]\011/* SetRefPoint1 */
SRP2[ ]\011/* SetRefPoint2 */
PUSHB[ ]\011/* 2 values pushed */
47 60 
IP[ ]\011/* InterpolatePts */
IP[ ]\011/* InterpolatePts */
PUSHB[ ]\011/* 1 value pushed */
26 
SRP1[ ]\011/* SetRefPoint1 */
PUSHB[ ]\011/* 2 values pushed */
52 55 
IP[ ]\011/* InterpolatePts */
IP[ ]\011/* InterpolatePts */
SVTCA[0]\011/* SetFreedomAndProjectionVectorToAxis */
IUP[0]\011/* InterpolateUntPts */
IUP[1]\011/* InterpolateUntPts */";
};
width = 817;
},
{
layerId = "4CEE6D0C-6158-494B-B4A5-6E5394691F1E";
paths = (
{
closed = 1;
nodes = (
"79 0 OFFCURVE",
"115 0 OFFCURVE",
"115 23 QCURVE SMOOTH",
"115 348 LINE",
"362 348 LINE",
"362 18 LINE SMOOTH",
"362 0 OFFCURVE",
"380 0 QCURVE SMOOTH",
"635 0 LINE SMOOTH",
"652 0 OFFCURVE",
"652 17 QCURVE SMOOTH",
"652 36 OFFCURVE",
"635 36 QCURVE SMOOTH",
"398 36 LINE",
"398 348 LINE",
"558 348 LINE SMOOTH",
"575 348 OFFCURVE",
"575 365 QCURVE SMOOTH",
"575 384 OFFCURVE",
"558 384 QCURVE SMOOTH",
"398 384 LINE",
"398 695 LINE",
"635 695 LINE SMOOTH",
"652 695 OFFCURVE",
"652 714 QCURVE SMOOTH",
"652 731 OFFCURVE",
"635 731 QCURVE SMOOTH",
"275 731 LINE SMOOTH",
"186 731 OFFCURVE",
"79 632 OFFCURVE",
"79 525 QCURVE SMOOTH",
"79 23 LINE SMOOTH"
);
},
{
closed = 1;
nodes = (
"115 525 LINE SMOOTH",
"115 610 OFFCURVE",
"198 695 OFFCURVE",
"275 695 QCURVE SMOOTH",
"362 695 LINE",
"362 384 LINE",
"115 384 LINE"
);
},
{
closed = 1;
nodes = (
"275 871 OFFCURVE",
"286 860 OFFCURVE",
"294 860 QCURVE SMOOTH",
"298 860 OFFCURVE",
"303 863 QCURVE SMOOTH",
"398 917 LINE SMOOTH",
"408 923 OFFCURVE",
"408 935 QCURVE SMOOTH",
"408 953 OFFCURVE",
"392 953 QCURVE SMOOTH",
"389 953 OFFCURVE",
"385 951 QCURVE",
"283 891 LINE",
"275 887 OFFCURVE",
"275 878 QCURVE SMOOTH"
);
}
);
userData = {
assembly = "SVTCA[0]\011/* SetFreedomAndProjectionVectorToAxis */
PUSHB[ ]\011/* 3 values pushed */
24 1 0 
CALL[ ]\011/* CallFunction */
PUSHB[ ]\011/* 1 value pushed */
30 
SHP[1]\011/* ShiftPointByLastPoint */
PUSHB[ ]\011/* 2 values pushed */
18 4 
MIRP[01001]\011/* MoveIndirectRelPt */
PUSHB[ ]\011/* 3 values pushed */
4 3 0 
CALL[ ]\011/* CallFunction */
PUSHB[ ]\011/* 2 values pushed */
35 4 
MIRP[01001]\011/* MoveIndirectRelPt */
PUSHB[ ]\011/* 1 value pushed */
9 
SHP[0]\011/* ShiftPointByLastPoint */
PUSHB[ ]\011/* 5 values pushed */
32 28 24 4 13 
CALL[ ]\011/* CallFunction */
PUSHB[ ]\011/* 1 value pushed */
16 
SHP[1]\011/* ShiftPointByLastPoint */
PUSHB[ ]\011/* 2 values pushed */
32 4 
MIRP[01001]\011/* MoveIndirectRelPt */
PUSHB[ ]\011/* 1 value pushed */
11 
SHP[0]\011/* ShiftPointByLastPoint */
SVTCA[1]\011/* SetFreedomAndProjectionVectorToAxis */
PUSHB[ ]\011/* 1 value pushed */
54 
MDAP[1]\011/* MoveDirectAbsPt */
PUSHB[ ]\011/* 1 value pushed */
0 
MDRP[10110]\011/* MoveDirectRelPt */
PUSHB[ ]\011/* 2 values pushed */
29 10 
MIRP[01001]\011/* MoveIndirectRelPt */
PUSHB[ ]\011/* 1 value pushed */
32 
SHP[0]\011/* ShiftPointByLastPoint */
PUSHB[ ]\011/* 1 value pushed */
29 
SRP0[ ]\011/* SetRefPoint0 */
PUSHB[ ]\011/* 2 values pushed */
26 1 
CALL[ ]\011/* CallFunction */
PUSHB[ ]\011/* 1 value pushed */
33 
SHP[0]\011/* ShiftPointByLastPoint */
PUSHB[ ]\011/* 2 values pushed */
18 10 
MIRP[01001]\011/* MoveIndirectRelPt */
PUSHB[ ]\011/* 1 value pushed */
10 
SHP[0]\011/* ShiftPointByLastPoint */
PUSHB[ ]\011/* 3 values pushed */
18 26 10 
CALL[ ]\011/* CallFunction */
PUSHB[ ]\011/* 4 values pushed */
64 18 7 9 
CALL[ ]\011/* CallFunction */
PUSHB[ ]\011/* 1 value pushed */
21 
SHP[0]\011/* ShiftPointByLastPoint */
PUSHB[ ]\011/* 4 values pushed */
64 18 14 9 
CALL[ ]\011/* CallFunction */
PUSHB[ ]\011/* 2 values pushed */
55 1 
CALL[ ]\011/* CallFunction */
PUSHB[ ]\011/* 2 values pushed */
26 29 
SRP1[ ]\011/* SetRefPoint1 */
SRP2[ ]\011/* SetRefPoint2 */
PUSHB[ ]\011/* 2 values pushed */
39 51 
IP[ ]\011/* InterpolatePts */
IP[ ]\011/* InterpolatePts */
PUSHB[ ]\011/* 1 value pushed */
18 
SRP1[ ]\011/* SetRefPoint1 */
PUSHB[ ]\011/* 1 value pushed */
44 
IP[ ]\011/* InterpolatePts */
SVTCA[0]\011/* SetFreedomAndProjectionVectorToAxis */
IUP[0]\011/* InterpolateUntPts */
IUP[1]\011/* InterpolateUntPts */";
};
width = 680;
}
);
leftKerningGroup = AE;
rightKerningGroup = E;
unicode = 01FC;
},
{
color = 10;
glyphname = B;
layers = (
{
anchors = (
{
name = bottom;
position = "{264, 0}";
},
{
name = top;
position = "{264, 731}";
}
);
background = {
paths = (
{
closed = 1;
nodes = (
"83 17 LINE SMOOTH",
"83 8 OFFCURVE",
"90 1 OFFCURVE",
"101 0 CURVE",
"278 0 LINE SMOOTH",
"388 0 OFFCURVE",
"474 53 OFFCURVE",
"474 203 CURVE SMOOTH",
"474 220 LINE SMOOTH",
"474 323 OFFCURVE",
"433 370 OFFCURVE",
"371 396 CURVE",
"422 418 OFFCURVE",
"456 478 OFFCURVE",
"456 564 CURVE SMOOTH",
"456 704 OFFCURVE",
"367 731 OFFCURVE",
"251 731 CURVE SMOOTH",
"101 731 LINE SMOOTH",
"92 731 OFFCURVE",
"83 725 OFFCURVE",
"83 713 CURVE SMOOTH"
);
},
{
closed = 1;
nodes = (
"119 36 LINE",
"119 378 LINE",
"278 378 LINE SMOOTH",
"378 378 OFFCURVE",
"438 336 OFFCURVE",
"438 220 CURVE SMOOTH",
"438 203 LINE SMOOTH",
"438 87 OFFCURVE",
"378 36 OFFCURVE",
"278 36 CURVE SMOOTH"
);
},
{
closed = 1;
nodes = (
"119 695 LINE",
"253 695 LINE SMOOTH",
"350 695 OFFCURVE",
"420 675 OFFCURVE",
"420 564 CURVE SMOOTH",
"420 448 OFFCURVE",
"368 414 OFFCURVE",
"258 414 CURVE SMOOTH",
"119 414 LINE"
);
}
);
};
hints = (
{
place = "{83, 36}";
type = Stem;
},
{
place = "{420, 36}";
type = Stem;
},
{
place = "{438, 36}";
type = Stem;
},
{
horizontal = 1;
place = "{0, 36}";
type = Stem;
},
{
horizontal = 1;
place = "{378, 36}";
type = Stem;
},
{
horizontal = 1;
place = "{695, 36}";
type = Stem;
}
);
layerId = UUID0;
paths = (
{
closed = 1;
nodes = (
"278 0 LINE SMOOTH",
"388 0 OFFCURVE",
"474 53 OFFCURVE",
"474 203 CURVE SMOOTH",
"474 220 LINE SMOOTH",
"474 323 OFFCURVE",
"433 370 OFFCURVE",
"371 396 CURVE",
"422 418 OFFCURVE",
"456 478 OFFCURVE",
"456 564 CURVE SMOOTH",
"456 704 OFFCURVE",
"367 731 OFFCURVE",
"251 731 CURVE SMOOTH",
"101 731 LINE SMOOTH",
"92 731 OFFCURVE",
"83 725 OFFCURVE",
"83 713 CURVE SMOOTH",
"83 17 LINE SMOOTH",
"83 8 OFFCURVE",
"90 0 OFFCURVE",
"101 0 CURVE SMOOTH"
);
},
{
closed = 1;
nodes = (
"119 378 LINE",
"278 378 LINE SMOOTH",
"378 378 OFFCURVE",
"438 336 OFFCURVE",
"438 220 CURVE SMOOTH",
"438 203 LINE SMOOTH",
"438 87 OFFCURVE",
"378 36 OFFCURVE",
"278 36 CURVE SMOOTH",
"119 36 LINE"
);
},
{
closed = 1;
nodes = (
"119 695 LINE",
"253 695 LINE SMOOTH",
"350 695 OFFCURVE",
"420 675 OFFCURVE",
"420 564 CURVE SMOOTH",
"420 448 OFFCURVE",
"368 414 OFFCURVE",
"258 414 CURVE SMOOTH",
"119 414 LINE"
);
}
);
width = 527;
},
{
anchors = (
{
name = bottom;
position = "{286, 0}";
},
{
name = top;
position = "{286, 731}";
}
);
background = {
paths = (
{
closed = 1;
nodes = (
"104 17 LINE SMOOTH",
"104 8 OFFCURVE",
"111 1 OFFCURVE",
"122 0 CURVE",
"299 0 LINE SMOOTH",
"409 0 OFFCURVE",
"495 53 OFFCURVE",
"495 203 CURVE SMOOTH",
"495 220 LINE SMOOTH",
"495 323 OFFCURVE",
"454 370 OFFCURVE",
"392 396 CURVE",
"443 418 OFFCURVE",
"477 478 OFFCURVE",
"477 564 CURVE SMOOTH",
"477 704 OFFCURVE",
"388 731 OFFCURVE",
"272 731 CURVE SMOOTH",
"122 731 LINE SMOOTH",
"113 731 OFFCURVE",
"104 725 OFFCURVE",
"104 713 CURVE SMOOTH"
);
},
{
closed = 1;
nodes = (
"140 36 LINE",
"140 378 LINE",
"299 378 LINE SMOOTH",
"399 378 OFFCURVE",
"459 336 OFFCURVE",
"459 220 CURVE SMOOTH",
"459 203 LINE SMOOTH",
"459 87 OFFCURVE",
"399 36 OFFCURVE",
"299 36 CURVE SMOOTH"
);
},
{
closed = 1;
nodes = (
"140 695 LINE",
"274 695 LINE SMOOTH",
"371 695 OFFCURVE",
"441 675 OFFCURVE",
"441 564 CURVE SMOOTH",
"441 448 OFFCURVE",
"389 414 OFFCURVE",
"279 414 CURVE SMOOTH",
"140 414 LINE"
);
}
);
};
hints = (
{
place = "{54, 155}";
type = Stem;
},
{
place = "{371, 156}";
type = Stem;
},
{
place = "{389, 156}";
type = Stem;
},
{
horizontal = 1;
place = "{0, 136}";
type = Stem;
},
{
horizontal = 1;
place = "{336, 120}";
type = Stem;
},
{
horizontal = 1;
place = "{595, 136}";
type = Stem;
}
);
layerId = "228CC867-ECE3-4F82-B853-1E58141B916C";
paths = (
{
closed = 1;
nodes = (
"344 0 LINE SMOOTH",
"457 0 OFFCURVE",
"545 57 OFFCURVE",
"545 215 CURVE SMOOTH",
"545 236 LINE SMOOTH",
"545 336 OFFCURVE",
"503 373 OFFCURVE",
"442 396 CURVE",
"495 419 OFFCURVE",
"527 472 OFFCURVE",
"527 553 CURVE SMOOTH",
"527 695 OFFCURVE",
"427 731 OFFCURVE",
"327 731 CURVE SMOOTH",
"122 731 LINE SMOOTH",
"88 731 OFFCURVE",
"54 715 OFFCURVE",
"54 683 CURVE SMOOTH",
"54 47 LINE SMOOTH",
"54 22 OFFCURVE",
"80 0 OFFCURVE",
"122 0 CURVE SMOOTH"
);
},
{
closed = 1;
nodes = (
"209 336 LINE",
"309 336 LINE SMOOTH",
"359 336 OFFCURVE",
"389 312 OFFCURVE",
"389 244 CURVE SMOOTH",
"389 228 LINE SMOOTH",
"389 164 OFFCURVE",
"359 136 OFFCURVE",
"309 136 CURVE SMOOTH",
"209 136 LINE"
);
},
{
closed = 1;
nodes = (
"209 595 LINE",
"314 595 LINE SMOOTH",
"352 595 OFFCURVE",
"371 560 OFFCURVE",
"371 525 CURVE SMOOTH",
"371 491 OFFCURVE",
"352 456 OFFCURVE",
"314 456 CURVE SMOOTH",
"209 456 LINE"
);
}
);
width = 572;
},
{
layerId = "F5CF7C91-484B-43F2-91EC-BD73E27C7962";
paths = (
{
closed = 1;
nodes = (
"54 28 OFFCURVE",
"91 0 OFFCURVE",
"122 0 QCURVE SMOOTH",
"344 0 LINE SMOOTH",
"436 0 OFFCURVE",
"545 103 OFFCURVE",
"545 215 QCURVE SMOOTH",
"545 236 LINE SMOOTH",
"545 306 OFFCURVE",
"493 377 OFFCURVE",
"442 396 QCURVE",
"527 433 OFFCURVE",
"527 553 QCURVE SMOOTH",
"527 731 OFFCURVE",
"327 731 QCURVE SMOOTH",
"122 731 LINE SMOOTH",
"94 731 OFFCURVE",
"54 706 OFFCURVE",
"54 683 QCURVE SMOOTH",
"54 47 LINE SMOOTH"
);
},
{
closed = 1;
nodes = (
"209 336 LINE",
"309 336 LINE SMOOTH",
"389 336 OFFCURVE",
"389 244 QCURVE SMOOTH",
"389 228 LINE SMOOTH",
"389 136 OFFCURVE",
"309 136 QCURVE SMOOTH",
"209 136 LINE"
);
},
{
closed = 1;
nodes = (
"209 595 LINE",
"314 595 LINE SMOOTH",
"341 595 OFFCURVE",
"371 553 OFFCURVE",
"371 497 OFFCURVE",
"341 456 OFFCURVE",
"314 456 QCURVE SMOOTH",
"209 456 LINE"
);
}
);
userData = {
assembly = "SVTCA[0]\011/* SetFreedomAndProjectionVectorToAxis */
PUSHB[ ]\011/* 3 values pushed */
17 1 0 
CALL[ ]\011/* CallFunction */
PUSHB[ ]\011/* 2 values pushed */
20 4 
MIRP[01001]\011/* MoveIndirectRelPt */
PUSHB[ ]\011/* 3 values pushed */
4 3 0 
CALL[ ]\011/* CallFunction */
PUSHB[ ]\011/* 2 values pushed */
35 4 
MIRP[01001]\011/* MoveIndirectRelPt */
PUSHB[ ]\011/* 5 values pushed */
28 27 17 4 13 
CALL[ ]\011/* CallFunction */
PUSHB[ ]\011/* 2 values pushed */
28 5 
MIRP[01001]\011/* MoveIndirectRelPt */
SVTCA[1]\011/* SetFreedomAndProjectionVectorToAxis */
PUSHB[ ]\011/* 1 value pushed */
36 
MDAP[1]\011/* MoveDirectAbsPt */
PUSHB[ ]\011/* 1 value pushed */
0 
MDRP[10110]\011/* MoveDirectRelPt */
PUSHB[ ]\011/* 2 values pushed */
20 13 
MIRP[01001]\011/* MoveIndirectRelPt */
PUSHB[ ]\011/* 1 value pushed */
28 
SHP[0]\011/* ShiftPointByLastPoint */
PUSHB[ ]\011/* 1 value pushed */
20 
SRP0[ ]\011/* SetRefPoint0 */
PUSHB[ ]\011/* 2 values pushed */
23 1 
CALL[ ]\011/* CallFunction */
PUSHB[ ]\011/* 2 values pushed */
13 6 
MIRP[01001]\011/* MoveIndirectRelPt */
PUSHB[ ]\011/* 1 value pushed */
32 
DUP[ ]\011/* DuplicateTopStack */
MDRP[10110]\011/* MoveDirectRelPt */
SRP1[ ]\011/* SetRefPoint1 */
PUSHB[ ]\011/* 2 values pushed */
7 6 
MIRP[01001]\011/* MoveIndirectRelPt */
PUSHB[ ]\011/* 2 values pushed */
37 1 
CALL[ ]\011/* CallFunction */
PUSHB[ ]\011/* 2 values pushed */
7 23 
SRP1[ ]\011/* SetRefPoint1 */
SRP2[ ]\011/* SetRefPoint2 */
PUSHB[ ]\011/* 1 value pushed */
9 
IP[ ]\011/* InterpolatePts */
SVTCA[0]\011/* SetFreedomAndProjectionVectorToAxis */
PUSHB[ ]\011/* 2 values pushed */
28 27 
SRP1[ ]\011/* SetRefPoint1 */
SRP2[ ]\011/* SetRefPoint2 */
PUSHB[ ]\011/* 1 value pushed */
9 
IP[ ]\011/* InterpolatePts */
PUSHB[ ]\011/* 1 value pushed */
35 
SRP1[ ]\011/* SetRefPoint1 */
PUSHB[ ]\011/* 1 value pushed */
7 
IP[ ]\011/* InterpolatePts */
IUP[0]\011/* InterpolateUntPts */
IUP[1]\011/* InterpolateUntPts */";
};
width = 572;
},
{
layerId = "4CEE6D0C-6158-494B-B4A5-6E5394691F1E";
paths = (
{
closed = 1;
nodes = (
"83 0 OFFCURVE",
"101 0 QCURVE SMOOTH",
"278 0 LINE SMOOTH",
"367 0 OFFCURVE",
"474 97 OFFCURVE",
"474 203 QCURVE SMOOTH",
"474 220 LINE SMOOTH",
"474 353 OFFCURVE",
"371 396 QCURVE",
"410 413 OFFCURVE",
"456 501 OFFCURVE",
"456 564 QCURVE SMOOTH",
"456 661 OFFCURVE",
"350 731 OFFCURVE",
"251 731 QCURVE SMOOTH",
"101 731 LINE SMOOTH",
"83 731 OFFCURVE",
"83 713 QCURVE SMOOTH",
"83 17 LINE SMOOTH"
);
},
{
closed = 1;
nodes = (
"119 378 LINE",
"278 378 LINE SMOOTH",
"356 378 OFFCURVE",
"438 304 OFFCURVE",
"438 220 QCURVE SMOOTH",
"438 203 LINE SMOOTH",
"438 36 OFFCURVE",
"278 36 QCURVE SMOOTH",
"119 36 LINE"
);
},
{
closed = 1;
nodes = (
"119 695 LINE",
"253 695 LINE SMOOTH",
"335 695 OFFCURVE",
"420 641 OFFCURVE",
"420 564 QCURVE SMOOTH",
"420 480 OFFCURVE",
"344 414 OFFCURVE",
"258 414 QCURVE SMOOTH",
"119 414 LINE"
);
}
);
userData = {
assembly = "SVTCA[0]\011/* SetFreedomAndProjectionVectorToAxis */
PUSHB[ ]\011/* 3 values pushed */
17 1 0 
CALL[ ]\011/* CallFunction */
PUSHB[ ]\011/* 2 values pushed */
19 4 
MIRP[01001]\011/* MoveIndirectRelPt */
PUSHB[ ]\011/* 3 values pushed */
3 3 0 
CALL[ ]\011/* CallFunction */
PUSHB[ ]\011/* 2 values pushed */
36 4 
MIRP[01001]\011/* MoveIndirectRelPt */
PUSHB[ ]\011/* 5 values pushed */
28 27 17 3 13 
CALL[ ]\011/* CallFunction */
PUSHB[ ]\011/* 2 values pushed */
28 4 
MIRP[01001]\011/* MoveIndirectRelPt */
SVTCA[1]\011/* SetFreedomAndProjectionVectorToAxis */
PUSHB[ ]\011/* 1 value pushed */
37 
MDAP[1]\011/* MoveDirectAbsPt */
PUSHB[ ]\011/* 1 value pushed */
0 
MDRP[10110]\011/* MoveDirectRelPt */
PUSHB[ ]\011/* 2 values pushed */
19 10 
MIRP[01001]\011/* MoveIndirectRelPt */
PUSHB[ ]\011/* 1 value pushed */
28 
SHP[0]\011/* ShiftPointByLastPoint */
PUSHB[ ]\011/* 1 value pushed */
19 
SRP0[ ]\011/* SetRefPoint0 */
PUSHB[ ]\011/* 2 values pushed */
22 1 
CALL[ ]\011/* CallFunction */
PUSHB[ ]\011/* 2 values pushed */
13 10 
MIRP[01001]\011/* MoveIndirectRelPt */
PUSHB[ ]\011/* 1 value pushed */
32 
DUP[ ]\011/* DuplicateTopStack */
MDRP[10110]\011/* MoveDirectRelPt */
SRP1[ ]\011/* SetRefPoint1 */
PUSHB[ ]\011/* 2 values pushed */
7 10 
MIRP[01001]\011/* MoveIndirectRelPt */
PUSHB[ ]\011/* 2 values pushed */
38 1 
CALL[ ]\011/* CallFunction */
PUSHB[ ]\011/* 2 values pushed */
32 19 
SRP1[ ]\011/* SetRefPoint1 */
SRP2[ ]\011/* SetRefPoint2 */
PUSHB[ ]\011/* 1 value pushed */
10 
IP[ ]\011/* InterpolatePts */
SVTCA[0]\011/* SetFreedomAndProjectionVectorToAxis */
PUSHB[ ]\011/* 2 values pushed */
28 27 
SRP1[ ]\011/* SetRefPoint1 */
SRP2[ ]\011/* SetRefPoint2 */
PUSHB[ ]\011/* 1 value pushed */
10 
IP[ ]\011/* InterpolatePts */
PUSHB[ ]\011/* 1 value pushed */
36 
SRP1[ ]\011/* SetRefPoint1 */
PUSHB[ ]\011/* 1 value pushed */
7 
IP[ ]\011/* InterpolatePts */
IUP[0]\011/* InterpolateUntPts */
IUP[1]\011/* InterpolateUntPts */";
};
width = 527;
}
);
leftKerningGroup = I;
unicode = 0042;
},
{
color = 10;
glyphname = C;
layers = (
{
anchors = (
{
name = bottom;
position = "{256, 0}";
},
{
name = top;
position = "{271, 731}";
}
);
background = {
paths = (
{
closed = 1;
nodes = (
"112 525 LINE SMOOTH",
"112 641 OFFCURVE",
"171 695 OFFCURVE",
"271 695 CURVE SMOOTH",
"359 695 OFFCURVE",
"419 654 OFFCURVE",
"431 564 CURVE SMOOTH",
"432 552 OFFCURVE",
"440 546 OFFCURVE",
"449 546 CURVE SMOOTH",
"458 546 OFFCURVE",
"467 552 OFFCURVE",
"467 566 CURVE",
"460 658 OFFCURVE",
"394 731 OFFCURVE",
"271 731 CURVE SMOOTH",
"161 731 OFFCURVE",
"76 675 OFFCURVE",
"76 525 CURVE SMOOTH",
"76 200 LINE SMOOTH",
"76 50 OFFCURVE",
"161 -6 OFFCURVE",
"271 -6 CURVE SMOOTH",
"394 -6 OFFCURVE",
"460 67 OFFCURVE",
"467 159 CURVE",
"467 173 OFFCURVE",
"458 179 OFFCURVE",
"449 179 CURVE SMOOTH",
"440 179 OFFCURVE",
"432 173 OFFCURVE",
"431 161 CURVE SMOOTH",
"419 71 OFFCURVE",
"359 30 OFFCURVE",
"271 30 CURVE SMOOTH",
"171 30 OFFCURVE",
"112 84 OFFCURVE",
"112 200 CURVE SMOOTH"
);
}
);
};
hints = (
{
place = "{76, 36}";
type = Stem;
},
{
place = "{431, 36}";
type = Stem;
},
{
horizontal = 1;
place = "{-6, 36}";
type = Stem;
},
{
horizontal = 1;
place = "{546, 185}";
type = Stem;
},
{
horizontal = 1;
place = "{695, 36}";
type = Stem;
},
{
horizontal = 1;
place = "{-6, 185}";
type = Stem;
}
);
layerId = UUID0;
paths = (
{
closed = 1;
nodes = (
"400 -6 OFFCURVE",
"467 73 OFFCURVE",
"467 150 CURVE SMOOTH",
"467 173 OFFCURVE",
"461 179 OFFCURVE",
"449 179 CURVE SMOOTH",
"434 179 OFFCURVE",
"432 170 OFFCURVE",
"431 161 CURVE",
"423 109 OFFCURVE",
"410 30 OFFCURVE",
"278 30 CURVE SMOOTH",
"169 30 OFFCURVE",
"112 83 OFFCURVE",
"112 200 CURVE SMOOTH",
"112 525 LINE SMOOTH",
"112 641 OFFCURVE",
"169 695 OFFCURVE",
"274 695 CURVE SMOOTH",
"404 695 OFFCURVE",
"428 612 OFFCURVE",
"431 564 CURVE",
"431 557 OFFCURVE",
"432 546 OFFCURVE",
"449 546 CURVE SMOOTH",
"461 546 OFFCURVE",
"467 551 OFFCURVE",
"467 574 CURVE SMOOTH",
"467 652 OFFCURVE",
"403 731 OFFCURVE",
"275 731 CURVE SMOOTH",
"167 731 OFFCURVE",
"76 675 OFFCURVE",
"76 525 CURVE SMOOTH",
"76 200 LINE SMOOTH",
"76 50 OFFCURVE",
"165 -6 OFFCURVE",
"272 -6 CURVE SMOOTH"
);
}
);
width = 512;
},
{
anchors = (
{
name = bottom;
position = "{281, 0}";
},
{
name = top;
position = "{281, 731}";
}
);
background = {
paths = (
{
closed = 1;
nodes = (
"132 525 LINE SMOOTH",
"132 641 OFFCURVE",
"191 695 OFFCURVE",
"291 695 CURVE SMOOTH",
"379 695 OFFCURVE",
"439 654 OFFCURVE",
"451 564 CURVE SMOOTH",
"452 552 OFFCURVE",
"460 546 OFFCURVE",
"469 546 CURVE SMOOTH",
"478 546 OFFCURVE",
"487 552 OFFCURVE",
"487 566 CURVE",
"480 658 OFFCURVE",
"414 731 OFFCURVE",
"291 731 CURVE SMOOTH",
"181 731 OFFCURVE",
"96 675 OFFCURVE",
"96 525 CURVE SMOOTH",
"96 200 LINE SMOOTH",
"96 50 OFFCURVE",
"181 -6 OFFCURVE",
"291 -6 CURVE SMOOTH",
"414 -6 OFFCURVE",
"480 67 OFFCURVE",
"487 159 CURVE",
"487 173 OFFCURVE",
"478 179 OFFCURVE",
"469 179 CURVE SMOOTH",
"460 179 OFFCURVE",
"452 173 OFFCURVE",
"451 161 CURVE SMOOTH",
"439 71 OFFCURVE",
"379 30 OFFCURVE",
"291 30 CURVE SMOOTH",
"191 30 OFFCURVE",
"132 84 OFFCURVE",
"132 200 CURVE SMOOTH"
);
}
);
};
hints = (
{
place = "{46, 156}";
type = Stem;
},
{
place = "{381, 156}";
type = Stem;
},
{
horizontal = 1;
place = "{-6, 136}";
type = Stem;
},
{
horizontal = 1;
place = "{595, 136}";
type = Stem;
}
);
layerId = "228CC867-ECE3-4F82-B853-1E58141B916C";
paths = (
{
closed = 1;
nodes = (
"429 -6 OFFCURVE",
"537 70 OFFCURVE",
"537 203 CURVE SMOOTH",
"537 263 OFFCURVE",
"512 277 OFFCURVE",
"458 277 CURVE SMOOTH",
"418 277 OFFCURVE",
"384 267 OFFCURVE",
"381 230 CURVE SMOOTH",
"378 191 OFFCURVE",
"373 130 OFFCURVE",
"293 130 CURVE SMOOTH",
"235 130 OFFCURVE",
"202 162 OFFCURVE",
"202 230 CURVE SMOOTH",
"202 495 LINE SMOOTH",
"202 563 OFFCURVE",
"235 595 OFFCURVE",
"292 595 CURVE SMOOTH",
"377 595 OFFCURVE",
"380 531 OFFCURVE",
"381 505 CURVE SMOOTH",
"383 469 OFFCURVE",
"417 458 OFFCURVE",
"459 458 CURVE SMOOTH",
"512 458 OFFCURVE",
"537 472 OFFCURVE",
"537 532 CURVE SMOOTH",
"537 659 OFFCURVE",
"429 731 OFFCURVE",
"286 731 CURVE SMOOTH",
"155 731 OFFCURVE",
"46 667 OFFCURVE",
"46 495 CURVE SMOOTH",
"46 230 LINE SMOOTH",
"46 58 OFFCURVE",
"155 -6 OFFCURVE",
"286 -6 CURVE SMOOTH"
);
}
);
width = 562;
},
{
layerId = "F5CF7C91-484B-43F2-91EC-BD73E27C7962";
paths = (
{
closed = 1;
nodes = (
"46 108 OFFCURVE",
"179 -6 OFFCURVE",
"286 -6 QCURVE SMOOTH",
"396 -6 OFFCURVE",
"537 106 OFFCURVE",
"537 203 QCURVE SMOOTH",
"537 246 OFFCURVE",
"501 277 OFFCURVE",
"458 277 QCURVE SMOOTH",
"385 277 OFFCURVE",
"381 230 QCURVE SMOOTH",
"379 209 OFFCURVE",
"374 185 OFFCURVE",
"358 148 OFFCURVE",
"321 130 OFFCURVE",
"293 130 QCURVE SMOOTH",
"202 130 OFFCURVE",
"202 230 QCURVE SMOOTH",
"202 495 LINE SMOOTH",
"202 595 OFFCURVE",
"292 595 QCURVE SMOOTH",
"378 595 OFFCURVE",
"381 505 QCURVE SMOOTH",
"384 458 OFFCURVE",
"459 458 QCURVE SMOOTH",
"501 458 OFFCURVE",
"537 489 OFFCURVE",
"537 532 QCURVE SMOOTH",
"537 625 OFFCURVE",
"396 731 OFFCURVE",
"286 731 QCURVE SMOOTH",
"179 731 OFFCURVE",
"46 617 OFFCURVE",
"46 495 QCURVE SMOOTH",
"46 230 LINE SMOOTH"
);
}
);
userData = {
assembly = "SVTCA[0]\011/* SetFreedomAndProjectionVectorToAxis */
PUSHB[ ]\011/* 3 values pushed */
32 1 0 
CALL[ ]\011/* CallFunction */
PUSHB[ ]\011/* 2 values pushed */
19 4 
MIRP[01001]\011/* MoveIndirectRelPt */
PUSHB[ ]\011/* 3 values pushed */
19 32 10 
CALL[ ]\011/* CallFunction */
PUSHB[ ]\011/* 4 values pushed */
0 19 26 9 
CALL[ ]\011/* CallFunction */
PUSHB[ ]\011/* 3 values pushed */
4 3 0 
CALL[ ]\011/* CallFunction */
PUSHB[ ]\011/* 2 values pushed */
14 4 
MIRP[01001]\011/* MoveIndirectRelPt */
PUSHB[ ]\011/* 3 values pushed */
14 4 10 
CALL[ ]\011/* CallFunction */
PUSHB[ ]\011/* 4 values pushed */
0 14 10 9 
CALL[ ]\011/* CallFunction */
SVTCA[1]\011/* SetFreedomAndProjectionVectorToAxis */
PUSHB[ ]\011/* 1 value pushed */
35 
MDAP[1]\011/* MoveDirectAbsPt */
PUSHB[ ]\011/* 1 value pushed */
0 
MDRP[10110]\011/* MoveDirectRelPt */
PUSHB[ ]\011/* 2 values pushed */
17 6 
MIRP[01001]\011/* MoveIndirectRelPt */
PUSHB[ ]\011/* 1 value pushed */
17 
SRP0[ ]\011/* SetRefPoint0 */
PUSHB[ ]\011/* 2 values pushed */
24 1 
CALL[ ]\011/* CallFunction */
PUSHB[ ]\011/* 1 value pushed */
12 
SHP[0]\011/* ShiftPointByLastPoint */
PUSHB[ ]\011/* 2 values pushed */
29 6 
MIRP[01001]\011/* MoveIndirectRelPt */
PUSHB[ ]\011/* 1 value pushed */
7 
SHP[0]\011/* ShiftPointByLastPoint */
PUSHB[ ]\011/* 2 values pushed */
36 1 
CALL[ ]\011/* CallFunction */
PUSHB[ ]\011/* 2 values pushed */
24 17 
SRP1[ ]\011/* SetRefPoint1 */
SRP2[ ]\011/* SetRefPoint2 */
PUSHB[ ]\011/* 2 values pushed */
4 32 
IP[ ]\011/* InterpolatePts */
IP[ ]\011/* InterpolatePts */
SVTCA[0]\011/* SetFreedomAndProjectionVectorToAxis */
IUP[0]\011/* InterpolateUntPts */
IUP[1]\011/* InterpolateUntPts */";
};
width = 562;
},
{
layerId = "4CEE6D0C-6158-494B-B4A5-6E5394691F1E";
paths = (
{
closed = 1;
nodes = (
"76 94 OFFCURVE",
"185 -6 OFFCURVE",
"272 -6 QCURVE SMOOTH",
"363 -6 OFFCURVE",
"467 88 OFFCURVE",
"467 150 QCURVE SMOOTH",
"467 179 OFFCURVE",
"449 179 QCURVE SMOOTH",
"433 179 OFFCURVE",
"431 161 QCURVE SMOOTH",
"428 139 OFFCURVE",
"422 114 OFFCURVE",
"401 72 OFFCURVE",
"372 49 OFFCURVE",
"316 30 OFFCURVE",
"278 30 QCURVE SMOOTH",
"112 30 OFFCURVE",
"112 200 QCURVE SMOOTH",
"112 525 LINE SMOOTH",
"112 695 OFFCURVE",
"274 695 QCURVE SMOOTH",
"320 695 OFFCURVE",
"385 669 OFFCURVE",
"416 625 OFFCURVE",
"430 586 OFFCURVE",
"431 564 QCURVE",
"431 546 OFFCURVE",
"467 546 OFFCURVE",
"467 574 QCURVE SMOOTH",
"467 638 OFFCURVE",
"366 731 OFFCURVE",
"275 731 QCURVE SMOOTH",
"187 731 OFFCURVE",
"76 631 OFFCURVE",
"76 525 QCURVE SMOOTH",
"76 200 LINE SMOOTH"
);
}
);
userData = {
assembly = "SVTCA[0]\011/* SetFreedomAndProjectionVectorToAxis */
PUSHB[ ]\011/* 3 values pushed */
33 1 0 
CALL[ ]\011/* CallFunction */
PUSHB[ ]\011/* 2 values pushed */
20 4 
MIRP[01001]\011/* MoveIndirectRelPt */
PUSHB[ ]\011/* 3 values pushed */
20 33 10 
CALL[ ]\011/* CallFunction */
PUSHB[ ]\011/* 4 values pushed */
0 20 28 9 
CALL[ ]\011/* CallFunction */
PUSHB[ ]\011/* 3 values pushed */
4 3 0 
CALL[ ]\011/* CallFunction */
PUSHB[ ]\011/* 2 values pushed */
15 4 
MIRP[01001]\011/* MoveIndirectRelPt */
PUSHB[ ]\011/* 3 values pushed */
15 4 10 
CALL[ ]\011/* CallFunction */
PUSHB[ ]\011/* 4 values pushed */
0 15 9 9 
CALL[ ]\011/* CallFunction */
SVTCA[1]\011/* SetFreedomAndProjectionVectorToAxis */
PUSHB[ ]\011/* 1 value pushed */
36 
MDAP[1]\011/* MoveDirectAbsPt */
PUSHB[ ]\011/* 1 value pushed */
0 
MDRP[10110]\011/* MoveDirectRelPt */
PUSHB[ ]\011/* 2 values pushed */
18 10 
MIRP[01001]\011/* MoveIndirectRelPt */
PUSHB[ ]\011/* 1 value pushed */
18 
SRP0[ ]\011/* SetRefPoint0 */
PUSHB[ ]\011/* 2 values pushed */
26 1 
CALL[ ]\011/* CallFunction */
PUSHB[ ]\011/* 1 value pushed */
10 
SHP[0]\011/* ShiftPointByLastPoint */
PUSHB[ ]\011/* 2 values pushed */
30 10 
MIRP[01001]\011/* MoveIndirectRelPt */
PUSHB[ ]\011/* 1 value pushed */
7 
SHP[0]\011/* ShiftPointByLastPoint */
PUSHB[ ]\011/* 2 values pushed */
37 1 
CALL[ ]\011/* CallFunction */
PUSHB[ ]\011/* 2 values pushed */
26 18 
SRP1[ ]\011/* SetRefPoint1 */
SRP2[ ]\011/* SetRefPoint2 */
PUSHB[ ]\011/* 2 values pushed */
4 33 
IP[ ]\011/* InterpolatePts */
IP[ ]\011/* InterpolatePts */
SVTCA[0]\011/* SetFreedomAndProjectionVectorToAxis */
IUP[0]\011/* InterpolateUntPts */
IUP[1]\011/* InterpolateUntPts */";
};
width = 512;
}
);
leftKerningGroup = O;
rightKerningGroup = C;
unicode = 0043;
},
{
color = 10;
glyphname = Cacute;
layers = (
{
components = (
{
name = C;
},
{
name = acutecomb;
transform = "{1, 0, 0, 1, 204, 259}";
}
);
hints = (
{
place = "{76, 36}";
type = Stem;
},
{
place = "{431, 36}";
type = Stem;
},
{
horizontal = 1;
place = "{-6, 36}";
type = Stem;
},
{
horizontal = 1;
place = "{546, 185}";
type = Stem;
},
{
horizontal = 1;
place = "{695, 36}";
type = Stem;
},
{
horizontal = 1;
place = "{-6, 185}";
type = Stem;
},
{
horizontal = 1;
place = "{953, -20}";
target = down;
type = TopGhost;
}
);
layerId = UUID0;
width = 512;
},
{
background = {
paths = (
{
closed = 1;
nodes = (
"429 -6 OFFCURVE",
"537 70 OFFCURVE",
"537 203 CURVE SMOOTH",
"537 263 OFFCURVE",
"512 277 OFFCURVE",
"458 277 CURVE SMOOTH",
"418 277 OFFCURVE",
"384 267 OFFCURVE",
"381 230 CURVE SMOOTH",
"378 191 OFFCURVE",
"373 130 OFFCURVE",
"293 130 CURVE SMOOTH",
"235 130 OFFCURVE",
"202 162 OFFCURVE",
"202 230 CURVE SMOOTH",
"202 495 LINE SMOOTH",
"202 563 OFFCURVE",
"235 595 OFFCURVE",
"292 595 CURVE SMOOTH",
"377 595 OFFCURVE",
"380 531 OFFCURVE",
"381 505 CURVE SMOOTH",
"383 469 OFFCURVE",
"417 458 OFFCURVE",
"459 458 CURVE SMOOTH",
"512 458 OFFCURVE",
"537 472 OFFCURVE",
"537 532 CURVE SMOOTH",
"537 659 OFFCURVE",
"429 731 OFFCURVE",
"286 731 CURVE SMOOTH",
"155 731 OFFCURVE",
"46 667 OFFCURVE",
"46 495 CURVE SMOOTH",
"46 230 LINE SMOOTH",
"46 58 OFFCURVE",
"155 -6 OFFCURVE",
"286 -6 CURVE SMOOTH"
);
},
{
closed = 1;
nodes = (
"256 798 OFFCURVE",
"261 800 OFFCURVE",
"266 802 CURVE",
"406 867 LINE SMOOTH",
"420 874 OFFCURVE",
"426 887 OFFCURVE",
"426 901 CURVE SMOOTH",
"426 927 OFFCURVE",
"406 959 OFFCURVE",
"379 959 CURVE SMOOTH",
"375 959 OFFCURVE",
"370 958 OFFCURVE",
"365 956 CURVE",
"225 891 LINE SMOOTH",
"211 884 OFFCURVE",
"205 871 OFFCURVE",
"205 856 CURVE SMOOTH",
"205 830 OFFCURVE",
"225 798 OFFCURVE",
"251 798 CURVE SMOOTH"
);
}
);
};
components = (
{
name = C;
},
{
name = acutecomb;
transform = "{1, 0, 0, 1, 205, 239}";
}
);
hints = (
{
place = "{46, 156}";
type = Stem;
},
{
place = "{205, 221}";
type = Stem;
},
{
place = "{381, 156}";
type = Stem;
},
{
horizontal = 1;
place = "{-6, 136}";
type = Stem;
},
{
horizontal = 1;
place = "{595, 136}";
type = Stem;
},
{
horizontal = 1;
place = "{959, -20}";
target = down;
type = TopGhost;
}
);
layerId = "228CC867-ECE3-4F82-B853-1E58141B916C";
width = 562;
},
{
layerId = "F5CF7C91-484B-43F2-91EC-BD73E27C7962";
paths = (
{
closed = 1;
nodes = (
"46 108 OFFCURVE",
"179 -6 OFFCURVE",
"286 -6 QCURVE SMOOTH",
"396 -6 OFFCURVE",
"537 106 OFFCURVE",
"537 203 QCURVE SMOOTH",
"537 246 OFFCURVE",
"501 277 OFFCURVE",
"458 277 QCURVE SMOOTH",
"385 277 OFFCURVE",
"381 230 QCURVE SMOOTH",
"379 209 OFFCURVE",
"374 185 OFFCURVE",
"358 148 OFFCURVE",
"321 130 OFFCURVE",
"293 130 QCURVE SMOOTH",
"202 130 OFFCURVE",
"202 230 QCURVE SMOOTH",
"202 495 LINE SMOOTH",
"202 595 OFFCURVE",
"292 595 QCURVE SMOOTH",
"378 595 OFFCURVE",
"381 505 QCURVE SMOOTH",
"384 458 OFFCURVE",
"459 458 QCURVE SMOOTH",
"501 458 OFFCURVE",
"537 489 OFFCURVE",
"537 532 QCURVE SMOOTH",
"537 625 OFFCURVE",
"396 731 OFFCURVE",
"286 731 QCURVE SMOOTH",
"179 731 OFFCURVE",
"46 617 OFFCURVE",
"46 495 QCURVE SMOOTH",
"46 230 LINE SMOOTH"
);
},
{
closed = 1;
nodes = (
"205 835 OFFCURVE",
"232 798 OFFCURVE",
"251 798 QCURVE SMOOTH",
"256 798 OFFCURVE",
"266 802 QCURVE",
"406 867 LINE SMOOTH",
"426 877 OFFCURVE",
"426 901 QCURVE SMOOTH",
"426 922 OFFCURVE",
"398 959 OFFCURVE",
"379 959 QCURVE SMOOTH",
"372 959 OFFCURVE",
"365 956 QCURVE SMOOTH",
"225 891 LINE SMOOTH",
"205 881 OFFCURVE",
"205 856 QCURVE SMOOTH"
);
}
);
userData = {
assembly = "SVTCA[0]\011/* SetFreedomAndProjectionVectorToAxis */
PUSHB[ ]\011/* 3 values pushed */
32 1 0 
CALL[ ]\011/* CallFunction */
PUSHB[ ]\011/* 2 values pushed */
19 4 
MIRP[01001]\011/* MoveIndirectRelPt */
PUSHB[ ]\011/* 3 values pushed */
19 32 10 
CALL[ ]\011/* CallFunction */
PUSHB[ ]\011/* 4 values pushed */
0 19 26 9 
CALL[ ]\011/* CallFunction */
PUSHB[ ]\011/* 3 values pushed */
4 3 0 
CALL[ ]\011/* CallFunction */
PUSHB[ ]\011/* 2 values pushed */
14 4 
MIRP[01001]\011/* MoveIndirectRelPt */
PUSHB[ ]\011/* 3 values pushed */
14 4 10 
CALL[ ]\011/* CallFunction */
PUSHB[ ]\011/* 4 values pushed */
0 14 10 9 
CALL[ ]\011/* CallFunction */
SVTCA[1]\011/* SetFreedomAndProjectionVectorToAxis */
PUSHB[ ]\011/* 1 value pushed */
51 
MDAP[1]\011/* MoveDirectAbsPt */
PUSHB[ ]\011/* 1 value pushed */
0 
MDRP[10110]\011/* MoveDirectRelPt */
PUSHB[ ]\011/* 2 values pushed */
17 6 
MIRP[01001]\011/* MoveIndirectRelPt */
PUSHB[ ]\011/* 1 value pushed */
17 
SRP0[ ]\011/* SetRefPoint0 */
PUSHB[ ]\011/* 2 values pushed */
24 1 
CALL[ ]\011/* CallFunction */
PUSHB[ ]\011/* 1 value pushed */
12 
SHP[0]\011/* ShiftPointByLastPoint */
PUSHB[ ]\011/* 2 values pushed */
29 6 
MIRP[01001]\011/* MoveIndirectRelPt */
PUSHB[ ]\011/* 1 value pushed */
7 
SHP[0]\011/* ShiftPointByLastPoint */
PUSHB[ ]\011/* 2 values pushed */
52 1 
CALL[ ]\011/* CallFunction */
PUSHB[ ]\011/* 2 values pushed */
24 17 
SRP1[ ]\011/* SetRefPoint1 */
SRP2[ ]\011/* SetRefPoint2 */
PUSHB[ ]\011/* 5 values pushed */
4 32 35 40 48 
DEPTH[ ]\011/* GetDepthStack */
SLOOP[ ]\011/* SetLoopVariable */
IP[ ]\011/* InterpolatePts */
PUSHB[ ]\011/* 1 value pushed */
29 
SRP1[ ]\011/* SetRefPoint1 */
PUSHB[ ]\011/* 1 value pushed */
43 
IP[ ]\011/* InterpolatePts */
SVTCA[0]\011/* SetFreedomAndProjectionVectorToAxis */
IUP[0]\011/* InterpolateUntPts */
IUP[1]\011/* InterpolateUntPts */";
};
width = 562;
},
{
layerId = "4CEE6D0C-6158-494B-B4A5-6E5394691F1E";
paths = (
{
closed = 1;
nodes = (
"76 94 OFFCURVE",
"185 -6 OFFCURVE",
"272 -6 QCURVE SMOOTH",
"363 -6 OFFCURVE",
"467 88 OFFCURVE",
"467 150 QCURVE SMOOTH",
"467 179 OFFCURVE",
"449 179 QCURVE SMOOTH",
"433 179 OFFCURVE",
"431 161 QCURVE SMOOTH",
"428 139 OFFCURVE",
"422 114 OFFCURVE",
"401 72 OFFCURVE",
"372 49 OFFCURVE",
"316 30 OFFCURVE",
"278 30 QCURVE SMOOTH",
"112 30 OFFCURVE",
"112 200 QCURVE SMOOTH",
"112 525 LINE SMOOTH",
"112 695 OFFCURVE",
"274 695 QCURVE SMOOTH",
"320 695 OFFCURVE",
"385 669 OFFCURVE",
"416 625 OFFCURVE",
"430 586 OFFCURVE",
"431 564 QCURVE",
"431 546 OFFCURVE",
"467 546 OFFCURVE",
"467 574 QCURVE SMOOTH",
"467 638 OFFCURVE",
"366 731 OFFCURVE",
"275 731 QCURVE SMOOTH",
"187 731 OFFCURVE",
"76 631 OFFCURVE",
"76 525 QCURVE SMOOTH",
"76 200 LINE SMOOTH"
);
},
{
closed = 1;
nodes = (
"205 871 OFFCURVE",
"216 860 OFFCURVE",
"224 860 QCURVE SMOOTH",
"228 860 OFFCURVE",
"233 863 QCURVE SMOOTH",
"328 917 LINE SMOOTH",
"338 923 OFFCURVE",
"338 935 QCURVE SMOOTH",
"338 953 OFFCURVE",
"322 953 QCURVE SMOOTH",
"319 953 OFFCURVE",
"315 951 QCURVE",
"213 891 LINE",
"205 887 OFFCURVE",
"205 878 QCURVE SMOOTH"
);
}
);
userData = {
assembly = "SVTCA[0]\011/* SetFreedomAndProjectionVectorToAxis */
PUSHB[ ]\011/* 3 values pushed */
33 1 0 
CALL[ ]\011/* CallFunction */
PUSHB[ ]\011/* 2 values pushed */
20 4 
MIRP[01001]\011/* MoveIndirectRelPt */
PUSHB[ ]\011/* 3 values pushed */
20 33 10 
CALL[ ]\011/* CallFunction */
PUSHB[ ]\011/* 4 values pushed */
0 20 28 9 
CALL[ ]\011/* CallFunction */
PUSHB[ ]\011/* 3 values pushed */
4 3 0 
CALL[ ]\011/* CallFunction */
PUSHB[ ]\011/* 2 values pushed */
15 4 
MIRP[01001]\011/* MoveIndirectRelPt */
PUSHB[ ]\011/* 3 values pushed */
15 4 10 
CALL[ ]\011/* CallFunction */
PUSHB[ ]\011/* 4 values pushed */
0 15 9 9 
CALL[ ]\011/* CallFunction */
SVTCA[1]\011/* SetFreedomAndProjectionVectorToAxis */
PUSHB[ ]\011/* 1 value pushed */
51 
MDAP[1]\011/* MoveDirectAbsPt */
PUSHB[ ]\011/* 1 value pushed */
0 
MDRP[10110]\011/* MoveDirectRelPt */
PUSHB[ ]\011/* 2 values pushed */
18 10 
MIRP[01001]\011/* MoveIndirectRelPt */
PUSHB[ ]\011/* 1 value pushed */
18 
SRP0[ ]\011/* SetRefPoint0 */
PUSHB[ ]\011/* 2 values pushed */
26 1 
CALL[ ]\011/* CallFunction */
PUSHB[ ]\011/* 1 value pushed */
10 
SHP[0]\011/* ShiftPointByLastPoint */
PUSHB[ ]\011/* 2 values pushed */
30 10 
MIRP[01001]\011/* MoveIndirectRelPt */
PUSHB[ ]\011/* 1 value pushed */
7 
SHP[0]\011/* ShiftPointByLastPoint */
PUSHB[ ]\011/* 2 values pushed */
52 1 
CALL[ ]\011/* CallFunction */
PUSHB[ ]\011/* 2 values pushed */
26 18 
SRP1[ ]\011/* SetRefPoint1 */
SRP2[ ]\011/* SetRefPoint2 */
PUSHB[ ]\011/* 4 values pushed */
4 33 36 43 
DEPTH[ ]\011/* GetDepthStack */
SLOOP[ ]\011/* SetLoopVariable */
IP[ ]\011/* InterpolatePts */
SVTCA[0]\011/* SetFreedomAndProjectionVectorToAxis */
IUP[0]\011/* InterpolateUntPts */
IUP[1]\011/* InterpolateUntPts */";
};
width = 512;
}
);
leftKerningGroup = O;
rightKerningGroup = C;
unicode = 0106;
},
{
color = 10;
glyphname = Ccaron;
layers = (
{
components = (
{
name = C;
},
{
name = caroncomb;
transform = "{1, 0, 0, 1, 131, 259}";
}
);
hints = (
{
place = "{76, 36}";
type = Stem;
},
{
place = "{431, 36}";
type = Stem;
},
{
horizontal = 1;
place = "{-6, 36}";
type = Stem;
},
{
horizontal = 1;
place = "{546, 185}";
type = Stem;
},
{
horizontal = 1;
place = "{695, 36}";
type = Stem;
},
{
horizontal = 1;
place = "{-6, 185}";
type = Stem;
},
{
horizontal = 1;
place = "{990, -20}";
target = down;
type = TopGhost;
}
);
layerId = UUID0;
width = 512;
},
{
components = (
{
name = C;
},
{
name = caroncomb;
transform = "{1, 0, 0, 1, 115, 238}";
}
);
hints = (
{
place = "{46, 156}";
type = Stem;
},
{
place = "{381, 156}";
type = Stem;
},
{
horizontal = 1;
place = "{-6, 136}";
type = Stem;
},
{
horizontal = 1;
place = "{595, 136}";
type = Stem;
},
{
horizontal = 1;
place = "{971, -20}";
target = down;
type = TopGhost;
}
);
layerId = "228CC867-ECE3-4F82-B853-1E58141B916C";
width = 562;
},
{
layerId = "F5CF7C91-484B-43F2-91EC-BD73E27C7962";
paths = (
{
closed = 1;
nodes = (
"46 108 OFFCURVE",
"179 -6 OFFCURVE",
"286 -6 QCURVE SMOOTH",
"396 -6 OFFCURVE",
"537 106 OFFCURVE",
"537 203 QCURVE SMOOTH",
"537 246 OFFCURVE",
"501 277 OFFCURVE",
"458 277 QCURVE SMOOTH",
"385 277 OFFCURVE",
"381 230 QCURVE SMOOTH",
"379 209 OFFCURVE",
"374 185 OFFCURVE",
"358 148 OFFCURVE",
"321 130 OFFCURVE",
"293 130 QCURVE SMOOTH",
"202 130 OFFCURVE",
"202 230 QCURVE SMOOTH",
"202 495 LINE SMOOTH",
"202 595 OFFCURVE",
"292 595 QCURVE SMOOTH",
"378 595 OFFCURVE",
"381 505 QCURVE SMOOTH",
"384 458 OFFCURVE",
"459 458 QCURVE SMOOTH",
"501 458 OFFCURVE",
"537 489 OFFCURVE",
"537 532 QCURVE SMOOTH",
"537 625 OFFCURVE",
"396 731 OFFCURVE",
"286 731 QCURVE SMOOTH",
"179 731 OFFCURVE",
"46 617 OFFCURVE",
"46 495 QCURVE SMOOTH",
"46 230 LINE SMOOTH"
);
},
{
closed = 1;
nodes = (
"144 895 OFFCURVE",
"169 881 QCURVE SMOOTH",
"273 825 LINE SMOOTH",
"283 820 OFFCURVE",
"297 820 OFFCURVE",
"307 825 QCURVE SMOOTH",
"411 881 LINE SMOOTH",
"436 895 OFFCURVE",
"436 925 QCURVE SMOOTH",
"436 943 OFFCURVE",
"418 971 OFFCURVE",
"405 971 QCURVE SMOOTH",
"400 971 OFFCURVE",
"394 968 QCURVE SMOOTH",
"290 912 LINE",
"186 968 LINE SMOOTH",
"180 971 OFFCURVE",
"175 971 QCURVE SMOOTH",
"162 971 OFFCURVE",
"144 943 OFFCURVE",
"144 925 QCURVE SMOOTH"
);
}
);
userData = {
assembly = "SVTCA[0]\011/* SetFreedomAndProjectionVectorToAxis */
PUSHB[ ]\011/* 3 values pushed */
32 1 0 
CALL[ ]\011/* CallFunction */
PUSHB[ ]\011/* 2 values pushed */
19 4 
MIRP[01001]\011/* MoveIndirectRelPt */
PUSHB[ ]\011/* 3 values pushed */
19 32 10 
CALL[ ]\011/* CallFunction */
PUSHB[ ]\011/* 4 values pushed */
0 19 26 9 
CALL[ ]\011/* CallFunction */
PUSHB[ ]\011/* 3 values pushed */
4 3 0 
CALL[ ]\011/* CallFunction */
PUSHB[ ]\011/* 2 values pushed */
14 4 
MIRP[01001]\011/* MoveIndirectRelPt */
PUSHB[ ]\011/* 3 values pushed */
14 4 10 
CALL[ ]\011/* CallFunction */
PUSHB[ ]\011/* 4 values pushed */
0 14 10 9 
CALL[ ]\011/* CallFunction */
PUSHB[ ]\011/* 1 value pushed */
52 
MDAP[1]\011/* MoveDirectAbsPt */
PUSHB[ ]\011/* 5 values pushed */
41 5 0 19 4 
CALL[ ]\011/* CallFunction */
PUSHB[ ]\011/* 3 values pushed */
41 52 10 
CALL[ ]\011/* CallFunction */
PUSHB[ ]\011/* 4 values pushed */
0 41 44 9 
CALL[ ]\011/* CallFunction */
PUSHB[ ]\011/* 1 value pushed */
38 
SHP[0]\011/* ShiftPointByLastPoint */
SVTCA[1]\011/* SetFreedomAndProjectionVectorToAxis */
PUSHB[ ]\011/* 1 value pushed */
56 
MDAP[1]\011/* MoveDirectAbsPt */
PUSHB[ ]\011/* 1 value pushed */
0 
MDRP[10110]\011/* MoveDirectRelPt */
PUSHB[ ]\011/* 2 values pushed */
17 6 
MIRP[01001]\011/* MoveIndirectRelPt */
PUSHB[ ]\011/* 1 value pushed */
17 
SRP0[ ]\011/* SetRefPoint0 */
PUSHB[ ]\011/* 2 values pushed */
24 1 
CALL[ ]\011/* CallFunction */
PUSHB[ ]\011/* 1 value pushed */
12 
SHP[0]\011/* ShiftPointByLastPoint */
PUSHB[ ]\011/* 2 values pushed */
29 6 
MIRP[01001]\011/* MoveIndirectRelPt */
PUSHB[ ]\011/* 1 value pushed */
7 
SHP[0]\011/* ShiftPointByLastPoint */
PUSHB[ ]\011/* 2 values pushed */
57 1 
CALL[ ]\011/* CallFunction */
PUSHB[ ]\011/* 2 values pushed */
17 0 
SRP1[ ]\011/* SetRefPoint1 */
SRP2[ ]\011/* SetRefPoint2 */
PUSHB[ ]\011/* 2 values pushed */
35 38 
IP[ ]\011/* InterpolatePts */
IP[ ]\011/* InterpolatePts */
PUSHB[ ]\011/* 1 value pushed */
24 
SRP1[ ]\011/* SetRefPoint1 */
PUSHB[ ]\011/* 5 values pushed */
4 32 41 51 52 
DEPTH[ ]\011/* GetDepthStack */
SLOOP[ ]\011/* SetLoopVariable */
IP[ ]\011/* InterpolatePts */
PUSHB[ ]\011/* 1 value pushed */
29 
SRP2[ ]\011/* SetRefPoint2 */
PUSHB[ ]\011/* 2 values pushed */
44 47 
IP[ ]\011/* InterpolatePts */
IP[ ]\011/* InterpolatePts */
SVTCA[0]\011/* SetFreedomAndProjectionVectorToAxis */
IUP[0]\011/* InterpolateUntPts */
IUP[1]\011/* InterpolateUntPts */";
};
width = 562;
},
{
layerId = "4CEE6D0C-6158-494B-B4A5-6E5394691F1E";
paths = (
{
closed = 1;
nodes = (
"76 94 OFFCURVE",
"185 -6 OFFCURVE",
"272 -6 QCURVE SMOOTH",
"363 -6 OFFCURVE",
"467 88 OFFCURVE",
"467 150 QCURVE SMOOTH",
"467 179 OFFCURVE",
"449 179 QCURVE SMOOTH",
"433 179 OFFCURVE",
"431 161 QCURVE SMOOTH",
"428 139 OFFCURVE",
"422 114 OFFCURVE",
"401 72 OFFCURVE",
"372 49 OFFCURVE",
"316 30 OFFCURVE",
"278 30 QCURVE SMOOTH",
"112 30 OFFCURVE",
"112 200 QCURVE SMOOTH",
"112 525 LINE SMOOTH",
"112 695 OFFCURVE",
"274 695 QCURVE SMOOTH",
"320 695 OFFCURVE",
"385 669 OFFCURVE",
"416 625 OFFCURVE",
"430 586 OFFCURVE",
"431 564 QCURVE",
"431 546 OFFCURVE",
"467 546 OFFCURVE",
"467 574 QCURVE SMOOTH",
"467 638 OFFCURVE",
"366 731 OFFCURVE",
"275 731 QCURVE SMOOTH",
"187 731 OFFCURVE",
"76 631 OFFCURVE",
"76 525 QCURVE SMOOTH",
"76 200 LINE SMOOTH"
);
},
{
closed = 1;
nodes = (
"249 858 LINE",
"258 847 OFFCURVE",
"270 847 QCURVE SMOOTH",
"280 847 OFFCURVE",
"291 858 QCURVE SMOOTH",
"391 959 LINE",
"399 969 OFFCURVE",
"399 981 OFFCURVE",
"390 990 OFFCURVE",
"384 990 QCURVE SMOOTH",
"375 990 OFFCURVE",
"368 982 QCURVE",
"270 879 LINE",
"172 982 LINE",
"165 990 OFFCURVE",
"156 990 QCURVE SMOOTH",
"150 990 OFFCURVE",
"141 981 OFFCURVE",
"141 969 OFFCURVE",
"149 959 QCURVE"
);
}
);
userData = {
assembly = "SVTCA[0]\011/* SetFreedomAndProjectionVectorToAxis */
PUSHB[ ]\011/* 3 values pushed */
33 1 0 
CALL[ ]\011/* CallFunction */
PUSHB[ ]\011/* 2 values pushed */
20 4 
MIRP[01001]\011/* MoveIndirectRelPt */
PUSHB[ ]\011/* 3 values pushed */
20 33 10 
CALL[ ]\011/* CallFunction */
PUSHB[ ]\011/* 4 values pushed */
0 20 28 9 
CALL[ ]\011/* CallFunction */
PUSHB[ ]\011/* 3 values pushed */
4 3 0 
CALL[ ]\011/* CallFunction */
PUSHB[ ]\011/* 2 values pushed */
15 4 
MIRP[01001]\011/* MoveIndirectRelPt */
PUSHB[ ]\011/* 3 values pushed */
15 4 10 
CALL[ ]\011/* CallFunction */
PUSHB[ ]\011/* 4 values pushed */
0 15 9 9 
CALL[ ]\011/* CallFunction */
PUSHB[ ]\011/* 1 value pushed */
52 
MDAP[1]\011/* MoveDirectAbsPt */
PUSHB[ ]\011/* 2 values pushed */
42 5 
MIRP[01001]\011/* MoveIndirectRelPt */
PUSHB[ ]\011/* 3 values pushed */
42 52 10 
CALL[ ]\011/* CallFunction */
PUSHB[ ]\011/* 4 values pushed */
64 42 39 9 
CALL[ ]\011/* CallFunction */
PUSHB[ ]\011/* 1 value pushed */
45 
SHP[0]\011/* ShiftPointByLastPoint */
SVTCA[1]\011/* SetFreedomAndProjectionVectorToAxis */
PUSHB[ ]\011/* 1 value pushed */
56 
MDAP[1]\011/* MoveDirectAbsPt */
PUSHB[ ]\011/* 1 value pushed */
0 
MDRP[10110]\011/* MoveDirectRelPt */
PUSHB[ ]\011/* 2 values pushed */
18 10 
MIRP[01001]\011/* MoveIndirectRelPt */
PUSHB[ ]\011/* 1 value pushed */
18 
SRP0[ ]\011/* SetRefPoint0 */
PUSHB[ ]\011/* 2 values pushed */
26 1 
CALL[ ]\011/* CallFunction */
PUSHB[ ]\011/* 1 value pushed */
10 
SHP[0]\011/* ShiftPointByLastPoint */
PUSHB[ ]\011/* 2 values pushed */
30 10 
MIRP[01001]\011/* MoveIndirectRelPt */
PUSHB[ ]\011/* 1 value pushed */
7 
SHP[0]\011/* ShiftPointByLastPoint */
PUSHB[ ]\011/* 2 values pushed */
57 1 
CALL[ ]\011/* CallFunction */
PUSHB[ ]\011/* 2 values pushed */
26 18 
SRP1[ ]\011/* SetRefPoint1 */
SRP2[ ]\011/* SetRefPoint2 */
PUSHB[ ]\011/* 4 values pushed */
4 33 36 47 
DEPTH[ ]\011/* GetDepthStack */
SLOOP[ ]\011/* SetLoopVariable */
IP[ ]\011/* InterpolatePts */
SVTCA[0]\011/* SetFreedomAndProjectionVectorToAxis */
IUP[0]\011/* InterpolateUntPts */
IUP[1]\011/* InterpolateUntPts */";
};
width = 512;
}
);
leftKerningGroup = O;
rightKerningGroup = C;
unicode = 010C;
},
{
color = 10;
glyphname = Ccedilla;
layers = (
{
components = (
{
name = C;
},
{
name = cedillacomb;
transform = "{1, 0, 0, 1, 194, 0}";
}
);
hints = (
{
place = "{76, 36}";
type = Stem;
},
{
place = "{354, 33}";
type = Stem;
},
{
place = "{431, 36}";
type = Stem;
},
{
horizontal = 1;
place = "{-207, 29}";
type = Stem;
},
{
horizontal = 1;
place = "{-92, 27}";
type = Stem;
},
{
horizontal = 1;
place = "{-6, 36}";
type = Stem;
},
{
horizontal = 1;
place = "{546, 185}";
type = Stem;
},
{
horizontal = 1;
place = "{695, 36}";
type = Stem;
}
);
layerId = UUID0;
width = 512;
},
{
components = (
{
name = C;
},
{
name = cedillacomb;
transform = "{1, 0, 0, 1, 202, 0}";
}
);
hints = (
{
place = "{46, 156}";
type = Stem;
},
{
place = "{209, 199}";
type = Stem;
},
{
place = "{339, 69}";
type = Stem;
},
{
place = "{381, 156}";
type = Stem;
},
{
horizontal = 1;
place = "{-219, 59}";
type = Stem;
},
{
horizontal = 1;
place = "{-5, 135}";
type = Stem;
},
{
horizontal = 1;
place = "{595, 136}";
type = Stem;
},
{
horizontal = 1;
place = "{-219, 172}";
type = Stem;
},
{
horizontal = 1;
place = "{-219, 73}";
type = Stem;
}
);
layerId = "228CC867-ECE3-4F82-B853-1E58141B916C";
width = 562;
},
{
layerId = "F5CF7C91-484B-43F2-91EC-BD73E27C7962";
paths = (
{
closed = 1;
nodes = (
"46 116 OFFCURVE",
"163 1 OFFCURVE",
"259 -5 QCURVE",
"234 -89 LINE",
"296 -95 LINE SMOOTH",
"339 -99 OFFCURVE",
"339 -129 QCURVE SMOOTH",
"339 -160 OFFCURVE",
"293 -160 QCURVE SMOOTH",
"274 -160 OFFCURVE",
"238 -146 OFFCURVE",
"235 -146 QCURVE SMOOTH",
"223 -146 OFFCURVE",
"209 -178 OFFCURVE",
"209 -188 QCURVE SMOOTH",
"209 -202 OFFCURVE",
"265 -219 OFFCURVE",
"297 -219 QCURVE SMOOTH",
"356 -219 OFFCURVE",
"408 -160 OFFCURVE",
"408 -126 QCURVE SMOOTH",
"408 -93 OFFCURVE",
"357 -49 OFFCURVE",
"308 -47 QCURVE",
"322 -4 LINE",
"419 5 OFFCURVE",
"537 114 OFFCURVE",
"537 203 QCURVE SMOOTH",
"537 246 OFFCURVE",
"501 277 OFFCURVE",
"458 277 QCURVE SMOOTH",
"385 277 OFFCURVE",
"381 230 QCURVE SMOOTH",
"379 209 OFFCURVE",
"374 185 OFFCURVE",
"358 148 OFFCURVE",
"321 130 OFFCURVE",
"293 130 QCURVE SMOOTH",
"202 130 OFFCURVE",
"202 230 QCURVE SMOOTH",
"202 495 LINE SMOOTH",
"202 595 OFFCURVE",
"292 595 QCURVE SMOOTH",
"378 595 OFFCURVE",
"381 505 QCURVE SMOOTH",
"384 458 OFFCURVE",
"459 458 QCURVE SMOOTH",
"501 458 OFFCURVE",
"537 489 OFFCURVE",
"537 532 QCURVE SMOOTH",
"537 625 OFFCURVE",
"396 731 OFFCURVE",
"286 731 QCURVE SMOOTH",
"179 731 OFFCURVE",
"46 617 OFFCURVE",
"46 495 QCURVE SMOOTH",
"46 230 LINE SMOOTH"
);
}
);
userData = {
assembly = "SVTCA[0]\011/* SetFreedomAndProjectionVectorToAxis */
PUSHB[ ]\011/* 3 values pushed */
54 1 0 
CALL[ ]\011/* CallFunction */
PUSHB[ ]\011/* 1 value pushed */
32 
SHP[1]\011/* ShiftPointByLastPoint */
PUSHB[ ]\011/* 2 values pushed */
19 4 
MIRP[01001]\011/* MoveIndirectRelPt */
PUSHB[ ]\011/* 3 values pushed */
4 3 0 
CALL[ ]\011/* CallFunction */
PUSHB[ ]\011/* 2 values pushed */
14 4 
MIRP[01001]\011/* MoveIndirectRelPt */
PUSHB[ ]\011/* 3 values pushed */
14 4 10 
CALL[ ]\011/* CallFunction */
PUSHB[ ]\011/* 4 values pushed */
0 14 10 9 
CALL[ ]\011/* CallFunction */
PUSHB[ ]\011/* 1 value pushed */
39 
MDAP[1]\011/* MoveDirectAbsPt */
PUSHB[ ]\011/* 5 values pushed */
48 5 0 11 4 
CALL[ ]\011/* CallFunction */
SVTCA[1]\011/* SetFreedomAndProjectionVectorToAxis */
PUSHB[ ]\011/* 1 value pushed */
57 
MDAP[1]\011/* MoveDirectAbsPt */
PUSHB[ ]\011/* 1 value pushed */
0 
MDRP[10110]\011/* MoveDirectRelPt */
PUSHB[ ]\011/* 2 values pushed */
17 6 
MIRP[01001]\011/* MoveIndirectRelPt */
PUSHB[ ]\011/* 1 value pushed */
17 
SRP0[ ]\011/* SetRefPoint0 */
PUSHB[ ]\011/* 2 values pushed */
24 1 
CALL[ ]\011/* CallFunction */
PUSHB[ ]\011/* 1 value pushed */
12 
SHP[0]\011/* ShiftPointByLastPoint */
PUSHB[ ]\011/* 2 values pushed */
29 6 
MIRP[01001]\011/* MoveIndirectRelPt */
PUSHB[ ]\011/* 1 value pushed */
7 
SHP[0]\011/* ShiftPointByLastPoint */
PUSHB[ ]\011/* 4 values pushed */
36 29 24 8 
CALL[ ]\011/* CallFunction */
PUSHB[ ]\011/* 5 values pushed */
50 7 0 29 4 
CALL[ ]\011/* CallFunction */
PUSHB[ ]\011/* 1 value pushed */
50 
MDAP[1]\011/* MoveDirectAbsPt */
PUSHB[ ]\011/* 5 values pushed */
36 7 0 29 4 
CALL[ ]\011/* CallFunction */
PUSHB[ ]\011/* 3 values pushed */
50 36 10 
CALL[ ]\011/* CallFunction */
PUSHB[ ]\011/* 4 values pushed */
0 50 42 9 
CALL[ ]\011/* CallFunction */
PUSHB[ ]\011/* 2 values pushed */
58 1 
CALL[ ]\011/* CallFunction */
PUSHB[ ]\011/* 2 values pushed */
50 17 
SRP1[ ]\011/* SetRefPoint1 */
SRP2[ ]\011/* SetRefPoint2 */
PUSHB[ ]\011/* 7 values pushed */
14 4 19 32 33 53 54 
DEPTH[ ]\011/* GetDepthStack */
SLOOP[ ]\011/* SetLoopVariable */
IP[ ]\011/* InterpolatePts */
PUSHB[ ]\011/* 2 values pushed */
29 36 
SRP1[ ]\011/* SetRefPoint1 */
SRP2[ ]\011/* SetRefPoint2 */
PUSHB[ ]\011/* 2 values pushed */
10 26 
IP[ ]\011/* InterpolatePts */
IP[ ]\011/* InterpolatePts */
SVTCA[0]\011/* SetFreedomAndProjectionVectorToAxis */
PUSHB[ ]\011/* 2 values pushed */
48 39 
SRP1[ ]\011/* SetRefPoint1 */
SRP2[ ]\011/* SetRefPoint2 */
PUSHB[ ]\011/* 1 value pushed */
42 
IP[ ]\011/* InterpolatePts */
PUSHB[ ]\011/* 1 value pushed */
54 
SRP1[ ]\011/* SetRefPoint1 */
PUSHB[ ]\011/* 3 values pushed */
36 33 45 
IP[ ]\011/* InterpolatePts */
IP[ ]\011/* InterpolatePts */
IP[ ]\011/* InterpolatePts */
PUSHB[ ]\011/* 2 values pushed */
14 19 
SRP1[ ]\011/* SetRefPoint1 */
SRP2[ ]\011/* SetRefPoint2 */
PUSHB[ ]\011/* 2 values pushed */
26 29 
IP[ ]\011/* InterpolatePts */
IP[ ]\011/* InterpolatePts */
IUP[0]\011/* InterpolateUntPts */
IUP[1]\011/* InterpolateUntPts */";
};
width = 562;
},
{
layerId = "4CEE6D0C-6158-494B-B4A5-6E5394691F1E";
paths = (
{
closed = 1;
nodes = (
"76 94 OFFCURVE",
"185 -6 OFFCURVE",
"272 -6 QCURVE SMOOTH",
"276 -6 LINE",
"255 -90 LINE",
"284 -92 LINE SMOOTH",
"354 -97 OFFCURVE",
"354 -137 QCURVE SMOOTH",
"354 -178 OFFCURVE",
"299 -178 QCURVE SMOOTH",
"279 -178 OFFCURVE",
"261 -172 QCURVE",
"243 -165 LINE",
"239 -165 OFFCURVE",
"231 -178 OFFCURVE",
"231 -183 QCURVE SMOOTH",
"231 -194 OFFCURVE",
"282 -207 OFFCURVE",
"305 -207 QCURVE SMOOTH",
"342 -207 OFFCURVE",
"387 -164 OFFCURVE",
"387 -135 QCURVE SMOOTH",
"387 -107 OFFCURVE",
"341 -66 OFFCURVE",
"293 -65 QCURVE",
"308 -3 LINE",
"383 6 OFFCURVE",
"467 94 OFFCURVE",
"467 150 QCURVE SMOOTH",
"467 179 OFFCURVE",
"449 179 QCURVE SMOOTH",
"433 179 OFFCURVE",
"431 161 QCURVE SMOOTH",
"428 139 OFFCURVE",
"422 114 OFFCURVE",
"401 72 OFFCURVE",
"372 49 OFFCURVE",
"316 30 OFFCURVE",
"278 30 QCURVE SMOOTH",
"112 30 OFFCURVE",
"112 200 QCURVE SMOOTH",
"112 525 LINE SMOOTH",
"112 695 OFFCURVE",
"274 695 QCURVE SMOOTH",
"320 695 OFFCURVE",
"385 669 OFFCURVE",
"416 625 OFFCURVE",
"430 586 OFFCURVE",
"431 564 QCURVE",
"431 546 OFFCURVE",
"467 546 OFFCURVE",
"467 574 QCURVE SMOOTH",
"467 638 OFFCURVE",
"366 731 OFFCURVE",
"275 731 QCURVE SMOOTH",
"187 731 OFFCURVE",
"76 631 OFFCURVE",
"76 525 QCURVE SMOOTH",
"76 200 LINE SMOOTH"
);
}
);
userData = {
assembly = "SVTCA[0]\011/* SetFreedomAndProjectionVectorToAxis */
PUSHB[ ]\011/* 3 values pushed */
56 1 0 
CALL[ ]\011/* CallFunction */
PUSHB[ ]\011/* 2 values pushed */
33 55 
SHP[1]\011/* ShiftPointByLastPoint */
SHP[1]\011/* ShiftPointByLastPoint */
PUSHB[ ]\011/* 2 values pushed */
20 4 
MIRP[01001]\011/* MoveIndirectRelPt */
PUSHB[ ]\011/* 3 values pushed */
4 3 0 
CALL[ ]\011/* CallFunction */
PUSHB[ ]\011/* 2 values pushed */
15 4 
MIRP[01001]\011/* MoveIndirectRelPt */
PUSHB[ ]\011/* 3 values pushed */
15 4 10 
CALL[ ]\011/* CallFunction */
PUSHB[ ]\011/* 4 values pushed */
0 15 9 9 
CALL[ ]\011/* CallFunction */
PUSHB[ ]\011/* 1 value pushed */
40 
MDAP[1]\011/* MoveDirectAbsPt */
PUSHB[ ]\011/* 2 values pushed */
49 5 
MIRP[01001]\011/* MoveIndirectRelPt */
SVTCA[1]\011/* SetFreedomAndProjectionVectorToAxis */
PUSHB[ ]\011/* 1 value pushed */
59 
MDAP[1]\011/* MoveDirectAbsPt */
PUSHB[ ]\011/* 1 value pushed */
0 
MDRP[10110]\011/* MoveDirectRelPt */
PUSHB[ ]\011/* 2 values pushed */
18 10 
MIRP[01001]\011/* MoveIndirectRelPt */
PUSHB[ ]\011/* 1 value pushed */
18 
SRP0[ ]\011/* SetRefPoint0 */
PUSHB[ ]\011/* 2 values pushed */
51 1 
CALL[ ]\011/* CallFunction */
PUSHB[ ]\011/* 2 values pushed */
37 11 
MIRP[01001]\011/* MoveIndirectRelPt */
PUSHB[ ]\011/* 1 value pushed */
37 
SRP0[ ]\011/* SetRefPoint0 */
PUSHB[ ]\011/* 2 values pushed */
26 1 
CALL[ ]\011/* CallFunction */
PUSHB[ ]\011/* 1 value pushed */
10 
SHP[0]\011/* ShiftPointByLastPoint */
PUSHB[ ]\011/* 2 values pushed */
30 10 
MIRP[01001]\011/* MoveIndirectRelPt */
PUSHB[ ]\011/* 1 value pushed */
7 
SHP[0]\011/* ShiftPointByLastPoint */
PUSHB[ ]\011/* 2 values pushed */
60 1 
CALL[ ]\011/* CallFunction */
PUSHB[ ]\011/* 1 value pushed */
54 
SMD[ ]\011/* SetMinimumDistance */
PUSHW[ ]\011/* 3 values pushed */
15925 -3853 21 
CALL[ ]\011/* CallFunction */
SPVFS[ ]\011/* SetPVectorFromStack */
PUSHB[ ]\011/* 1 value pushed */
55 
MDAP[0]\011/* MoveDirectAbsPt */
SFVTPV[ ]\011/* SetFVectorToPVector */
PUSHB[ ]\011/* 1 value pushed */
54 
MDRP[00000]\011/* MoveDirectRelPt */
SFVTCA[1]\011/* SetFVectorToAxis */
PUSHB[ ]\011/* 2 values pushed */
33 5 
MIRP[11001]\011/* MoveIndirectRelPt */
SFVTPV[ ]\011/* SetFVectorToPVector */
PUSHB[ ]\011/* 1 value pushed */
34 
MDRP[00000]\011/* MoveDirectRelPt */
SVTCA[0]\011/* SetFreedomAndProjectionVectorToAxis */
PUSHB[ ]\011/* 2 values pushed */
34 54 
MDAP[0]\011/* MoveDirectAbsPt */
MDAP[0]\011/* MoveDirectAbsPt */
SVTCA[1]\011/* SetFreedomAndProjectionVectorToAxis */
PUSHB[ ]\011/* 4 values pushed */
33 34 54 55 
MDAP[0]\011/* MoveDirectAbsPt */
MDAP[0]\011/* MoveDirectAbsPt */
MDAP[0]\011/* MoveDirectAbsPt */
MDAP[0]\011/* MoveDirectAbsPt */
PUSHB[ ]\011/* 1 value pushed */
64 
SMD[ ]\011/* SetMinimumDistance */
SVTCA[1]\011/* SetFreedomAndProjectionVectorToAxis */
PUSHB[ ]\011/* 2 values pushed */
51 18 
SRP1[ ]\011/* SetRefPoint1 */
SRP2[ ]\011/* SetRefPoint2 */
PUSHB[ ]\011/* 5 values pushed */
4 15 20 40 43 
DEPTH[ ]\011/* GetDepthStack */
SLOOP[ ]\011/* SetLoopVariable */
IP[ ]\011/* InterpolatePts */
SVTCA[0]\011/* SetFreedomAndProjectionVectorToAxis */
PUSHB[ ]\011/* 2 values pushed */
49 40 
SRP1[ ]\011/* SetRefPoint1 */
SRP2[ ]\011/* SetRefPoint2 */
PUSHB[ ]\011/* 1 value pushed */
43 
IP[ ]\011/* InterpolatePts */
PUSHB[ ]\011/* 1 value pushed */
56 
SRP1[ ]\011/* SetRefPoint1 */
PUSHB[ ]\011/* 2 values pushed */
37 46 
IP[ ]\011/* InterpolatePts */
IP[ ]\011/* InterpolatePts */
PUSHB[ ]\011/* 2 values pushed */
15 20 
SRP1[ ]\011/* SetRefPoint1 */
SRP2[ ]\011/* SetRefPoint2 */
PUSHB[ ]\011/* 2 values pushed */
28 30 
IP[ ]\011/* InterpolatePts */
IP[ ]\011/* InterpolatePts */
IUP[0]\011/* InterpolateUntPts */
IUP[1]\011/* InterpolateUntPts */";
};
width = 512;
}
);
leftKerningGroup = O;
rightKerningGroup = C;
unicode = 00C7;
},
{
color = 10;
glyphname = Ccircumflex;
layers = (
{
components = (
{
name = C;
},
{
name = circumflexcomb;
transform = "{1, 0, 0, 1, 141, 259}";
}
);
hints = (
{
place = "{76, 36}";
type = Stem;
},
{
place = "{431, 36}";
type = Stem;
},
{
horizontal = 1;
place = "{-6, 36}";
type = Stem;
},
{
horizontal = 1;
place = "{546, 185}";
type = Stem;
},
{
horizontal = 1;
place = "{695, 36}";
type = Stem;
},
{
horizontal = 1;
place = "{-6, 185}";
type = Stem;
},
{
horizontal = 1;
place = "{953, -20}";
target = down;
type = TopGhost;
}
);
layerId = UUID0;
width = 512;
},
{
background = {
paths = (
{
closed = 1;
nodes = (
"429 -6 OFFCURVE",
"537 70 OFFCURVE",
"537 203 CURVE SMOOTH",
"537 263 OFFCURVE",
"512 277 OFFCURVE",
"458 277 CURVE SMOOTH",
"418 277 OFFCURVE",
"384 267 OFFCURVE",
"381 230 CURVE SMOOTH",
"378 191 OFFCURVE",
"373 130 OFFCURVE",
"293 130 CURVE SMOOTH",
"235 130 OFFCURVE",
"202 162 OFFCURVE",
"202 230 CURVE SMOOTH",
"202 495 LINE SMOOTH",
"202 563 OFFCURVE",
"235 595 OFFCURVE",
"292 595 CURVE SMOOTH",
"377 595 OFFCURVE",
"380 531 OFFCURVE",
"381 505 CURVE SMOOTH",
"383 469 OFFCURVE",
"417 458 OFFCURVE",
"459 458 CURVE SMOOTH",
"512 458 OFFCURVE",
"537 472 OFFCURVE",
"537 532 CURVE SMOOTH",
"537 659 OFFCURVE",
"429 731 OFFCURVE",
"286 731 CURVE SMOOTH",
"155 731 OFFCURVE",
"46 667 OFFCURVE",
"46 495 CURVE SMOOTH",
"46 230 LINE SMOOTH",
"46 58 OFFCURVE",
"155 -6 OFFCURVE",
"286 -6 CURVE SMOOTH"
);
},
{
closed = 1;
nodes = (
"179 808 OFFCURVE",
"183 809 OFFCURVE",
"187 811 CURVE SMOOTH",
"291 867 LINE",
"395 811 LINE SMOOTH",
"399 809 OFFCURVE",
"403 808 OFFCURVE",
"406 808 CURVE SMOOTH",
"424 808 OFFCURVE",
"437 831 OFFCURVE",
"437 854 CURVE SMOOTH",
"437 871 OFFCURVE",
"430 888 OFFCURVE",
"412 898 CURVE SMOOTH",
"308 954 LINE SMOOTH",
"302 957 OFFCURVE",
"297 959 OFFCURVE",
"291 959 CURVE SMOOTH",
"285 959 OFFCURVE",
"280 957 OFFCURVE",
"274 954 CURVE SMOOTH",
"170 898 LINE SMOOTH",
"152 888 OFFCURVE",
"145 871 OFFCURVE",
"145 854 CURVE SMOOTH",
"145 831 OFFCURVE",
"158 808 OFFCURVE",
"176 808 CURVE SMOOTH"
);
}
);
};
components = (
{
name = C;
},
{
name = circumflexcomb;
transform = "{1, 0, 0, 1, 145, 238}";
}
);
hints = (
{
place = "{46, 156}";
type = Stem;
},
{
place = "{381, 156}";
type = Stem;
},
{
horizontal = 1;
place = "{-6, 136}";
type = Stem;
},
{
horizontal = 1;
place = "{595, 136}";
type = Stem;
},
{
horizontal = 1;
place = "{731, 77}";
type = Stem;
},
{
horizontal = 1;
place = "{277, 181}";
type = Stem;
},
{
horizontal = 1;
place = "{959, -20}";
target = down;
type = TopGhost;
}
);
layerId = "228CC867-ECE3-4F82-B853-1E58141B916C";
width = 562;
},
{
layerId = "F5CF7C91-484B-43F2-91EC-BD73E27C7962";
paths = (
{
closed = 1;
nodes = (
"46 108 OFFCURVE",
"179 -6 OFFCURVE",
"286 -6 QCURVE SMOOTH",
"396 -6 OFFCURVE",
"537 106 OFFCURVE",
"537 203 QCURVE SMOOTH",
"537 246 OFFCURVE",
"501 277 OFFCURVE",
"458 277 QCURVE SMOOTH",
"385 277 OFFCURVE",
"381 230 QCURVE SMOOTH",
"379 209 OFFCURVE",
"374 185 OFFCURVE",
"358 148 OFFCURVE",
"321 130 OFFCURVE",
"293 130 QCURVE SMOOTH",
"202 130 OFFCURVE",
"202 230 QCURVE SMOOTH",
"202 495 LINE SMOOTH",
"202 595 OFFCURVE",
"292 595 QCURVE SMOOTH",
"378 595 OFFCURVE",
"381 505 QCURVE SMOOTH",
"384 458 OFFCURVE",
"459 458 QCURVE SMOOTH",
"501 458 OFFCURVE",
"537 489 OFFCURVE",
"537 532 QCURVE SMOOTH",
"537 625 OFFCURVE",
"396 731 OFFCURVE",
"286 731 QCURVE SMOOTH",
"179 731 OFFCURVE",
"46 617 OFFCURVE",
"46 495 QCURVE SMOOTH",
"46 230 LINE SMOOTH"
);
},
{
closed = 1;
nodes = (
"145 836 OFFCURVE",
"163 808 OFFCURVE",
"176 808 QCURVE SMOOTH",
"181 808 OFFCURVE",
"187 811 QCURVE SMOOTH",
"291 867 LINE",
"395 811 LINE SMOOTH",
"401 808 OFFCURVE",
"406 808 QCURVE SMOOTH",
"419 808 OFFCURVE",
"437 836 OFFCURVE",
"437 854 QCURVE SMOOTH",
"437 884 OFFCURVE",
"412 898 QCURVE SMOOTH",
"308 954 LINE SMOOTH",
"298 959 OFFCURVE",
"284 959 OFFCURVE",
"274 954 QCURVE SMOOTH",
"170 898 LINE SMOOTH",
"145 884 OFFCURVE",
"145 854 QCURVE SMOOTH"
);
}
);
userData = {
assembly = "SVTCA[0]\011/* SetFreedomAndProjectionVectorToAxis */
PUSHB[ ]\011/* 3 values pushed */
32 1 0 
CALL[ ]\011/* CallFunction */
PUSHB[ ]\011/* 2 values pushed */
19 4 
MIRP[01001]\011/* MoveIndirectRelPt */
PUSHB[ ]\011/* 3 values pushed */
19 32 10 
CALL[ ]\011/* CallFunction */
PUSHB[ ]\011/* 4 values pushed */
0 19 26 9 
CALL[ ]\011/* CallFunction */
PUSHB[ ]\011/* 3 values pushed */
4 3 0 
CALL[ ]\011/* CallFunction */
PUSHB[ ]\011/* 2 values pushed */
14 4 
MIRP[01001]\011/* MoveIndirectRelPt */
PUSHB[ ]\011/* 3 values pushed */
14 4 10 
CALL[ ]\011/* CallFunction */
PUSHB[ ]\011/* 4 values pushed */
0 14 10 9 
CALL[ ]\011/* CallFunction */
PUSHB[ ]\011/* 1 value pushed */
50 
MDAP[1]\011/* MoveDirectAbsPt */
PUSHB[ ]\011/* 5 values pushed */
40 5 0 19 4 
CALL[ ]\011/* CallFunction */
PUSHB[ ]\011/* 3 values pushed */
50 40 10 
CALL[ ]\011/* CallFunction */
PUSHB[ ]\011/* 4 values pushed */
0 50 53 9 
CALL[ ]\011/* CallFunction */
PUSHB[ ]\011/* 1 value pushed */
47 
SHP[0]\011/* ShiftPointByLastPoint */
SVTCA[1]\011/* SetFreedomAndProjectionVectorToAxis */
PUSHB[ ]\011/* 1 value pushed */
56 
MDAP[1]\011/* MoveDirectAbsPt */
PUSHB[ ]\011/* 1 value pushed */
0 
MDRP[10110]\011/* MoveDirectRelPt */
PUSHB[ ]\011/* 2 values pushed */
17 6 
MIRP[01001]\011/* MoveIndirectRelPt */
PUSHB[ ]\011/* 1 value pushed */
17 
SRP0[ ]\011/* SetRefPoint0 */
PUSHB[ ]\011/* 2 values pushed */
24 1 
CALL[ ]\011/* CallFunction */
PUSHB[ ]\011/* 1 value pushed */
12 
SHP[0]\011/* ShiftPointByLastPoint */
PUSHB[ ]\011/* 2 values pushed */
29 6 
MIRP[01001]\011/* MoveIndirectRelPt */
PUSHB[ ]\011/* 1 value pushed */
7 
SHP[0]\011/* ShiftPointByLastPoint */
PUSHB[ ]\011/* 2 values pushed */
57 1 
CALL[ ]\011/* CallFunction */
PUSHB[ ]\011/* 2 values pushed */
17 0 
SRP1[ ]\011/* SetRefPoint1 */
SRP2[ ]\011/* SetRefPoint2 */
PUSHB[ ]\011/* 2 values pushed */
35 53 
IP[ ]\011/* InterpolatePts */
IP[ ]\011/* InterpolatePts */
PUSHB[ ]\011/* 1 value pushed */
24 
SRP1[ ]\011/* SetRefPoint1 */
PUSHB[ ]\011/* 5 values pushed */
4 32 39 40 50 
DEPTH[ ]\011/* GetDepthStack */
SLOOP[ ]\011/* SetLoopVariable */
IP[ ]\011/* InterpolatePts */
PUSHB[ ]\011/* 1 value pushed */
29 
SRP2[ ]\011/* SetRefPoint2 */
PUSHB[ ]\011/* 2 values pushed */
44 47 
IP[ ]\011/* InterpolatePts */
IP[ ]\011/* InterpolatePts */
SVTCA[0]\011/* SetFreedomAndProjectionVectorToAxis */
IUP[0]\011/* InterpolateUntPts */
IUP[1]\011/* InterpolateUntPts */";
};
width = 562;
},
{
layerId = "4CEE6D0C-6158-494B-B4A5-6E5394691F1E";
paths = (
{
closed = 1;
nodes = (
"76 94 OFFCURVE",
"185 -6 OFFCURVE",
"272 -6 QCURVE SMOOTH",
"363 -6 OFFCURVE",
"467 88 OFFCURVE",
"467 150 QCURVE SMOOTH",
"467 179 OFFCURVE",
"449 179 QCURVE SMOOTH",
"433 179 OFFCURVE",
"431 161 QCURVE SMOOTH",
"428 139 OFFCURVE",
"422 114 OFFCURVE",
"401 72 OFFCURVE",
"372 49 OFFCURVE",
"316 30 OFFCURVE",
"278 30 QCURVE SMOOTH",
"112 30 OFFCURVE",
"112 200 QCURVE SMOOTH",
"112 525 LINE SMOOTH",
"112 695 OFFCURVE",
"274 695 QCURVE SMOOTH",
"320 695 OFFCURVE",
"385 669 OFFCURVE",
"416 625 OFFCURVE",
"430 586 OFFCURVE",
"431 564 QCURVE",
"431 546 OFFCURVE",
"467 546 OFFCURVE",
"467 574 QCURVE SMOOTH",
"467 638 OFFCURVE",
"366 731 OFFCURVE",
"275 731 QCURVE SMOOTH",
"187 731 OFFCURVE",
"76 631 OFFCURVE",
"76 525 QCURVE SMOOTH",
"76 200 LINE SMOOTH"
);
},
{
closed = 1;
nodes = (
"141 870 OFFCURVE",
"152 859 OFFCURVE",
"159 859 QCURVE SMOOTH",
"160 859 OFFCURVE",
"166 862 OFFCURVE",
"167 862 QCURVE",
"271 918 LINE",
"375 863 LINE",
"384 860 LINE",
"391 860 OFFCURVE",
"401 869 OFFCURVE",
"401 876 QCURVE SMOOTH",
"401 888 OFFCURVE",
"392 893 QCURVE SMOOTH",
"288 948 LINE",
"280 953 OFFCURVE",
"262 953 OFFCURVE",
"254 948 QCURVE",
"150 892 LINE",
"141 888 OFFCURVE",
"141 878 QCURVE SMOOTH"
);
}
);
userData = {
assembly = "SVTCA[0]\011/* SetFreedomAndProjectionVectorToAxis */
PUSHB[ ]\011/* 3 values pushed */
33 1 0 
CALL[ ]\011/* CallFunction */
PUSHB[ ]\011/* 2 values pushed */
20 4 
MIRP[01001]\011/* MoveIndirectRelPt */
PUSHB[ ]\011/* 3 values pushed */
20 33 10 
CALL[ ]\011/* CallFunction */
PUSHB[ ]\011/* 4 values pushed */
0 20 28 9 
CALL[ ]\011/* CallFunction */
PUSHB[ ]\011/* 3 values pushed */
4 3 0 
CALL[ ]\011/* CallFunction */
PUSHB[ ]\011/* 2 values pushed */
15 4 
MIRP[01001]\011/* MoveIndirectRelPt */
PUSHB[ ]\011/* 3 values pushed */
15 4 10 
CALL[ ]\011/* CallFunction */
PUSHB[ ]\011/* 4 values pushed */
0 15 9 9 
CALL[ ]\011/* CallFunction */
SVTCA[1]\011/* SetFreedomAndProjectionVectorToAxis */
PUSHB[ ]\011/* 1 value pushed */
57 
MDAP[1]\011/* MoveDirectAbsPt */
PUSHB[ ]\011/* 1 value pushed */
0 
MDRP[10110]\011/* MoveDirectRelPt */
PUSHB[ ]\011/* 2 values pushed */
18 10 
MIRP[01001]\011/* MoveIndirectRelPt */
PUSHB[ ]\011/* 1 value pushed */
18 
SRP0[ ]\011/* SetRefPoint0 */
PUSHB[ ]\011/* 2 values pushed */
26 1 
CALL[ ]\011/* CallFunction */
PUSHB[ ]\011/* 1 value pushed */
10 
SHP[0]\011/* ShiftPointByLastPoint */
PUSHB[ ]\011/* 2 values pushed */
30 10 
MIRP[01001]\011/* MoveIndirectRelPt */
PUSHB[ ]\011/* 1 value pushed */
7 
SHP[0]\011/* ShiftPointByLastPoint */
PUSHB[ ]\011/* 2 values pushed */
58 1 
CALL[ ]\011/* CallFunction */
PUSHB[ ]\011/* 2 values pushed */
26 18 
SRP1[ ]\011/* SetRefPoint1 */
SRP2[ ]\011/* SetRefPoint2 */
PUSHB[ ]\011/* 4 values pushed */
4 33 36 45 
DEPTH[ ]\011/* GetDepthStack */
SLOOP[ ]\011/* SetLoopVariable */
IP[ ]\011/* InterpolatePts */
SVTCA[0]\011/* SetFreedomAndProjectionVectorToAxis */
IUP[0]\011/* InterpolateUntPts */
IUP[1]\011/* InterpolateUntPts */";
};
width = 512;
}
);
leftKerningGroup = O;
rightKerningGroup = C;
unicode = 0108;
},
{
color = 10;
glyphname = Cdotaccent;
layers = (
{
components = (
{
name = C;
},
{
name = dotaccentcomb;
transform = "{1, 0, 0, 1, 161, 259}";
}
);
hints = (
{
place = "{76, 36}";
type = Stem;
},
{
place = "{242, 59}";
type = Stem;
},
{
place = "{431, 36}";
type = Stem;
},
{
horizontal = 1;
place = "{-6, 36}";
type = Stem;
},
{
horizontal = 1;
place = "{546, 185}";
type = Stem;
},
{
horizontal = 1;
place = "{695, 36}";
type = Stem;
},
{
horizontal = 1;
place = "{859, 59}";
type = Stem;
},
{
horizontal = 1;
place = "{-6, 185}";
type = Stem;
}
);
layerId = UUID0;
width = 512;
},
{
background = {
paths = (
{
closed = 1;
nodes = (
"429 -6 OFFCURVE",
"537 70 OFFCURVE",
"537 203 CURVE SMOOTH",
"537 263 OFFCURVE",
"512 277 OFFCURVE",
"458 277 CURVE SMOOTH",
"418 277 OFFCURVE",
"384 267 OFFCURVE",
"381 230 CURVE SMOOTH",
"378 191 OFFCURVE",
"373 130 OFFCURVE",
"293 130 CURVE SMOOTH",
"235 130 OFFCURVE",
"202 162 OFFCURVE",
"202 230 CURVE SMOOTH",
"202 495 LINE SMOOTH",
"202 563 OFFCURVE",
"235 595 OFFCURVE",
"292 595 CURVE SMOOTH",
"377 595 OFFCURVE",
"380 531 OFFCURVE",
"381 505 CURVE SMOOTH",
"383 469 OFFCURVE",
"417 458 OFFCURVE",
"459 458 CURVE SMOOTH",
"512 458 OFFCURVE",
"537 472 OFFCURVE",
"537 532 CURVE SMOOTH",
"537 659 OFFCURVE",
"429 731 OFFCURVE",
"286 731 CURVE SMOOTH",
"155 731 OFFCURVE",
"46 667 OFFCURVE",
"46 495 CURVE SMOOTH",
"46 230 LINE SMOOTH",
"46 58 OFFCURVE",
"155 -6 OFFCURVE",
"286 -6 CURVE SMOOTH"
);
},
{
closed = 1;
nodes = (
"324 810 OFFCURVE",
"349 838 OFFCURVE",
"349 869 CURVE SMOOTH",
"349 900 OFFCURVE",
"324 927 OFFCURVE",
"293 927 CURVE SMOOTH",
"262 927 OFFCURVE",
"236 900 OFFCURVE",
"236 869 CURVE SMOOTH",
"236 838 OFFCURVE",
"262 810 OFFCURVE",
"293 810 CURVE SMOOTH"
);
}
);
};
components = (
{
name = C;
},
{
name = dotaccentcomb;
transform = "{1, 0, 0, 1, 196, 238}";
}
);
hints = (
{
place = "{46, 156}";
type = Stem;
},
{
place = "{236, 113}";
type = Stem;
},
{
place = "{381, 156}";
type = Stem;
},
{
horizontal = 1;
place = "{-6, 136}";
type = Stem;
},
{
horizontal = 1;
place = "{595, 136}";
type = Stem;
},
{
horizontal = 1;
place = "{810, 117}";
type = Stem;
}
);
layerId = "228CC867-ECE3-4F82-B853-1E58141B916C";
width = 562;
},
{
layerId = "F5CF7C91-484B-43F2-91EC-BD73E27C7962";
paths = (
{
closed = 1;
nodes = (
"46 108 OFFCURVE",
"179 -6 OFFCURVE",
"286 -6 QCURVE SMOOTH",
"396 -6 OFFCURVE",
"537 106 OFFCURVE",
"537 203 QCURVE SMOOTH",
"537 246 OFFCURVE",
"501 277 OFFCURVE",
"458 277 QCURVE SMOOTH",
"385 277 OFFCURVE",
"381 230 QCURVE SMOOTH",
"379 209 OFFCURVE",
"374 185 OFFCURVE",
"358 148 OFFCURVE",
"321 130 OFFCURVE",
"293 130 QCURVE SMOOTH",
"202 130 OFFCURVE",
"202 230 QCURVE SMOOTH",
"202 495 LINE SMOOTH",
"202 595 OFFCURVE",
"292 595 QCURVE SMOOTH",
"378 595 OFFCURVE",
"381 505 QCURVE SMOOTH",
"384 458 OFFCURVE",
"459 458 QCURVE SMOOTH",
"501 458 OFFCURVE",
"537 489 OFFCURVE",
"537 532 QCURVE SMOOTH",
"537 625 OFFCURVE",
"396 731 OFFCURVE",
"286 731 QCURVE SMOOTH",
"179 731 OFFCURVE",
"46 617 OFFCURVE",
"46 495 QCURVE SMOOTH",
"46 230 LINE SMOOTH"
);
},
{
closed = 1;
nodes = (
"349 892 OFFCURVE",
"316 927 OFFCURVE",
"270 927 OFFCURVE",
"236 892 OFFCURVE",
"236 846 OFFCURVE",
"270 810 OFFCURVE",
"316 810 OFFCURVE",
"349 845 OFFCURVE",
"349 869 QCURVE SMOOTH"
);
}
);
userData = {
assembly = "SVTCA[0]\011/* SetFreedomAndProjectionVectorToAxis */
PUSHB[ ]\011/* 3 values pushed */
32 1 0 
CALL[ ]\011/* CallFunction */
PUSHB[ ]\011/* 2 values pushed */
19 4 
MIRP[01001]\011/* MoveIndirectRelPt */
PUSHB[ ]\011/* 3 values pushed */
19 32 10 
CALL[ ]\011/* CallFunction */
PUSHB[ ]\011/* 4 values pushed */
0 19 26 9 
CALL[ ]\011/* CallFunction */
PUSHB[ ]\011/* 3 values pushed */
4 3 0 
CALL[ ]\011/* CallFunction */
PUSHB[ ]\011/* 2 values pushed */
14 4 
MIRP[01001]\011/* MoveIndirectRelPt */
PUSHB[ ]\011/* 3 values pushed */
14 4 10 
CALL[ ]\011/* CallFunction */
PUSHB[ ]\011/* 4 values pushed */
0 14 10 9 
CALL[ ]\011/* CallFunction */
PUSHB[ ]\011/* 1 value pushed */
43 
MDAP[1]\011/* MoveDirectAbsPt */
PUSHB[ ]\011/* 2 values pushed */
38 5 
MIRP[01001]\011/* MoveIndirectRelPt */
SVTCA[1]\011/* SetFreedomAndProjectionVectorToAxis */
PUSHB[ ]\011/* 1 value pushed */
44 
MDAP[1]\011/* MoveDirectAbsPt */
PUSHB[ ]\011/* 1 value pushed */
0 
MDRP[10110]\011/* MoveDirectRelPt */
PUSHB[ ]\011/* 2 values pushed */
17 6 
MIRP[01001]\011/* MoveIndirectRelPt */
PUSHB[ ]\011/* 1 value pushed */
17 
SRP0[ ]\011/* SetRefPoint0 */
PUSHB[ ]\011/* 2 values pushed */
36 1 
CALL[ ]\011/* CallFunction */
PUSHB[ ]\011/* 5 values pushed */
40 8 0 16 4 
CALL[ ]\011/* CallFunction */
PUSHB[ ]\011/* 1 value pushed */
40 
SRP0[ ]\011/* SetRefPoint0 */
PUSHB[ ]\011/* 2 values pushed */
24 1 
CALL[ ]\011/* CallFunction */
PUSHB[ ]\011/* 1 value pushed */
12 
SHP[0]\011/* ShiftPointByLastPoint */
PUSHB[ ]\011/* 2 values pushed */
29 6 
MIRP[01001]\011/* MoveIndirectRelPt */
PUSHB[ ]\011/* 1 value pushed */
7 
SHP[0]\011/* ShiftPointByLastPoint */
PUSHB[ ]\011/* 2 values pushed */
45 1 
CALL[ ]\011/* CallFunction */
PUSHB[ ]\011/* 2 values pushed */
40 36 
SRP1[ ]\011/* SetRefPoint1 */
SRP2[ ]\011/* SetRefPoint2 */
PUSHB[ ]\011/* 4 values pushed */
4 19 32 14 
DEPTH[ ]\011/* GetDepthStack */
SLOOP[ ]\011/* SetLoopVariable */
IP[ ]\011/* InterpolatePts */
SVTCA[0]\011/* SetFreedomAndProjectionVectorToAxis */
IUP[0]\011/* InterpolateUntPts */
IUP[1]\011/* InterpolateUntPts */";
};
width = 562;
},
{
layerId = "4CEE6D0C-6158-494B-B4A5-6E5394691F1E";
paths = (
{
closed = 1;
nodes = (
"76 94 OFFCURVE",
"185 -6 OFFCURVE",
"272 -6 QCURVE SMOOTH",
"363 -6 OFFCURVE",
"467 88 OFFCURVE",
"467 150 QCURVE SMOOTH",
"467 179 OFFCURVE",
"449 179 QCURVE SMOOTH",
"433 179 OFFCURVE",
"431 161 QCURVE SMOOTH",
"428 139 OFFCURVE",
"422 114 OFFCURVE",
"401 72 OFFCURVE",
"372 49 OFFCURVE",
"316 30 OFFCURVE",
"278 30 QCURVE SMOOTH",
"112 30 OFFCURVE",
"112 200 QCURVE SMOOTH",
"112 525 LINE SMOOTH",
"112 695 OFFCURVE",
"274 695 QCURVE SMOOTH",
"320 695 OFFCURVE",
"385 669 OFFCURVE",
"416 625 OFFCURVE",
"430 586 OFFCURVE",
"431 564 QCURVE",
"431 546 OFFCURVE",
"467 546 OFFCURVE",
"467 574 QCURVE SMOOTH",
"467 638 OFFCURVE",
"366 731 OFFCURVE",
"275 731 QCURVE SMOOTH",
"187 731 OFFCURVE",
"76 631 OFFCURVE",
"76 525 QCURVE SMOOTH",
"76 200 LINE SMOOTH"
);
},
{
closed = 1;
nodes = (
"285 859 OFFCURVE",
"301 876 OFFCURVE",
"301 902 OFFCURVE",
"285 918 OFFCURVE",
"259 918 OFFCURVE",
"242 902 OFFCURVE",
"242 876 OFFCURVE",
"259 859 OFFCURVE"
);
}
);
userData = {
assembly = "SVTCA[0]\011/* SetFreedomAndProjectionVectorToAxis */
PUSHB[ ]\011/* 3 values pushed */
33 1 0 
CALL[ ]\011/* CallFunction */
PUSHB[ ]\011/* 2 values pushed */
20 4 
MIRP[01001]\011/* MoveIndirectRelPt */
PUSHB[ ]\011/* 3 values pushed */
20 33 10 
CALL[ ]\011/* CallFunction */
PUSHB[ ]\011/* 4 values pushed */
0 20 28 9 
CALL[ ]\011/* CallFunction */
PUSHB[ ]\011/* 3 values pushed */
4 3 0 
CALL[ ]\011/* CallFunction */
PUSHB[ ]\011/* 2 values pushed */
15 4 
MIRP[01001]\011/* MoveIndirectRelPt */
PUSHB[ ]\011/* 3 values pushed */
15 4 10 
CALL[ ]\011/* CallFunction */
PUSHB[ ]\011/* 4 values pushed */
0 15 9 9 
CALL[ ]\011/* CallFunction */
PUSHB[ ]\011/* 1 value pushed */
43 
MDAP[1]\011/* MoveDirectAbsPt */
PUSHB[ ]\011/* 2 values pushed */
39 8 
MIRP[01001]\011/* MoveIndirectRelPt */
SVTCA[1]\011/* SetFreedomAndProjectionVectorToAxis */
PUSHB[ ]\011/* 1 value pushed */
44 
MDAP[1]\011/* MoveDirectAbsPt */
PUSHB[ ]\011/* 1 value pushed */
0 
MDRP[10110]\011/* MoveDirectRelPt */
PUSHB[ ]\011/* 2 values pushed */
18 10 
MIRP[01001]\011/* MoveIndirectRelPt */
PUSHB[ ]\011/* 1 value pushed */
18 
SRP0[ ]\011/* SetRefPoint0 */
PUSHB[ ]\011/* 2 values pushed */
37 1 
CALL[ ]\011/* CallFunction */
PUSHB[ ]\011/* 2 values pushed */
41 13 
MIRP[01001]\011/* MoveIndirectRelPt */
PUSHB[ ]\011/* 1 value pushed */
41 
SRP0[ ]\011/* SetRefPoint0 */
PUSHB[ ]\011/* 2 values pushed */
26 1 
CALL[ ]\011/* CallFunction */
PUSHB[ ]\011/* 1 value pushed */
10 
SHP[0]\011/* ShiftPointByLastPoint */
PUSHB[ ]\011/* 2 values pushed */
30 10 
MIRP[01001]\011/* MoveIndirectRelPt */
PUSHB[ ]\011/* 1 value pushed */
7 
SHP[0]\011/* ShiftPointByLastPoint */
PUSHB[ ]\011/* 2 values pushed */
45 1 
CALL[ ]\011/* CallFunction */
PUSHB[ ]\011/* 2 values pushed */
41 37 
SRP1[ ]\011/* SetRefPoint1 */
SRP2[ ]\011/* SetRefPoint2 */
PUSHB[ ]\011/* 4 values pushed */
4 20 15 33 
DEPTH[ ]\011/* GetDepthStack */
SLOOP[ ]\011/* SetLoopVariable */
IP[ ]\011/* InterpolatePts */
SVTCA[0]\011/* SetFreedomAndProjectionVectorToAxis */
IUP[0]\011/* InterpolateUntPts */
IUP[1]\011/* InterpolateUntPts */";
};
width = 512;
}
);
leftKerningGroup = O;
rightKerningGroup = C;
unicode = 010A;
},
{
color = 10;
glyphname = D;
layers = (
{
anchors = (
{
name = bottom;
position = "{275, 0}";
},
{
name = center;
position = "{275, 366}";
},
{
name = top;
position = "{275, 731}";
}
);
background = {
paths = (
{
closed = 1;
nodes = (
"101 731 LINE SMOOTH",
"90 731 OFFCURVE",
"83 723 OFFCURVE",
"83 714 CURVE SMOOTH",
"83 17 LINE SMOOTH",
"83 8 OFFCURVE",
"90 0 OFFCURVE",
"101 0 CURVE SMOOTH",
"278 0 LINE SMOOTH",
"388 0 OFFCURVE",
"474 56 OFFCURVE",
"474 206 CURVE SMOOTH",
"474 525 LINE SMOOTH",
"474 675 OFFCURVE",
"388 731 OFFCURVE",
"278 731 CURVE SMOOTH"
);
},
{
closed = 1;
nodes = (
"278 695 LINE SMOOTH",
"378 695 OFFCURVE",
"438 641 OFFCURVE",
"438 525 CURVE SMOOTH",
"438 206 LINE SMOOTH",
"438 90 OFFCURVE",
"378 36 OFFCURVE",
"278 36 CURVE SMOOTH",
"119 36 LINE",
"119 695 LINE"
);
}
);
};
hints = (
{
place = "{83, 36}";
type = Stem;
},
{
place = "{438, 36}";
type = Stem;
},
{
horizontal = 1;
place = "{0, 36}";
type = Stem;
},
{
horizontal = 1;
place = "{695, 36}";
type = Stem;
}
);
layerId = UUID0;
paths = (
{
closed = 1;
nodes = (
"278 0 LINE SMOOTH",
"388 0 OFFCURVE",
"474 56 OFFCURVE",
"474 206 CURVE SMOOTH",
"474 525 LINE SMOOTH",
"474 675 OFFCURVE",
"388 731 OFFCURVE",
"278 731 CURVE SMOOTH",
"101 731 LINE SMOOTH",
"90 731 OFFCURVE",
"83 723 OFFCURVE",
"83 714 CURVE SMOOTH",
"83 17 LINE SMOOTH",
"83 8 OFFCURVE",
"90 0 OFFCURVE",
"101 0 CURVE SMOOTH"
);
},
{
closed = 1;
nodes = (
"119 695 LINE",
"278 695 LINE SMOOTH",
"378 695 OFFCURVE",
"438 641 OFFCURVE",
"438 525 CURVE SMOOTH",
"438 206 LINE SMOOTH",
"438 90 OFFCURVE",
"378 36 OFFCURVE",
"278 36 CURVE SMOOTH",
"119 36 LINE"
);
}
);
width = 550;
},
{
anchors = (
{
name = bottom;
position = "{295, 0}";
},
{
name = center;
position = "{295, 366}";
},
{
name = top;
position = "{295, 731}";
}
);
background = {
paths = (
{
closed = 1;
nodes = (
"122 731 LINE SMOOTH",
"111 731 OFFCURVE",
"104 723 OFFCURVE",
"104 714 CURVE SMOOTH",
"104 17 LINE SMOOTH",
"104 8 OFFCURVE",
"111 0 OFFCURVE",
"122 0 CURVE SMOOTH",
"299 0 LINE SMOOTH",
"409 0 OFFCURVE",
"495 56 OFFCURVE",
"495 206 CURVE SMOOTH",
"495 525 LINE SMOOTH",
"495 675 OFFCURVE",
"409 731 OFFCURVE",
"299 731 CURVE SMOOTH"
);
},
{
closed = 1;
nodes = (
"299 695 LINE SMOOTH",
"399 695 OFFCURVE",
"459 641 OFFCURVE",
"459 525 CURVE SMOOTH",
"459 206 LINE SMOOTH",
"459 90 OFFCURVE",
"399 36 OFFCURVE",
"299 36 CURVE SMOOTH",
"140 36 LINE",
"140 695 LINE"
);
}
);
};
hints = (
{
place = "{54, 156}";
type = Stem;
},
{
place = "{389, 156}";
type = Stem;
},
{
horizontal = 1;
place = "{0, 136}";
type = Stem;
},
{
horizontal = 1;
place = "{595, 136}";
type = Stem;
}
);
layerId = "228CC867-ECE3-4F82-B853-1E58141B916C";
paths = (
{
closed = 1;
nodes = (
"299 0 LINE SMOOTH",
"437 0 OFFCURVE",
"545 64 OFFCURVE",
"545 236 CURVE SMOOTH",
"545 495 LINE SMOOTH",
"545 667 OFFCURVE",
"437 731 OFFCURVE",
"299 731 CURVE SMOOTH",
"122 731 LINE SMOOTH",
"81 731 OFFCURVE",
"54 709 OFFCURVE",
"54 684 CURVE SMOOTH",
"54 47 LINE SMOOTH",
"54 22 OFFCURVE",
"81 0 OFFCURVE",
"122 0 CURVE SMOOTH"
);
},
{
closed = 1;
nodes = (
"210 595 LINE",
"299 595 LINE SMOOTH",
"355 595 OFFCURVE",
"389 563 OFFCURVE",
"389 495 CURVE SMOOTH",
"389 236 LINE SMOOTH",
"389 168 OFFCURVE",
"355 136 OFFCURVE",
"299 136 CURVE SMOOTH",
"210 136 LINE"
);
}
);
width = 590;
},
{
layerId = "F5CF7C91-484B-43F2-91EC-BD73E27C7962";
paths = (
{
closed = 1;
nodes = (
"54 28 OFFCURVE",
"92 0 OFFCURVE",
"122 0 QCURVE SMOOTH",
"299 0 LINE SMOOTH",
"411 0 OFFCURVE",
"545 114 OFFCURVE",
"545 236 QCURVE SMOOTH",
"545 495 LINE SMOOTH",
"545 617 OFFCURVE",
"411 731 OFFCURVE",
"299 731 QCURVE SMOOTH",
"122 731 LINE SMOOTH",
"92 731 OFFCURVE",
"54 703 OFFCURVE",
"54 684 QCURVE SMOOTH",
"54 47 LINE SMOOTH"
);
},
{
closed = 1;
nodes = (
"210 595 LINE",
"299 595 LINE SMOOTH",
"389 595 OFFCURVE",
"389 495 QCURVE SMOOTH",
"389 236 LINE SMOOTH",
"389 136 OFFCURVE",
"299 136 QCURVE SMOOTH",
"210 136 LINE"
);
}
);
userData = {
assembly = "SVTCA[0]\011/* SetFreedomAndProjectionVectorToAxis */
PUSHB[ ]\011/* 3 values pushed */
13 1 0 
CALL[ ]\011/* CallFunction */
PUSHB[ ]\011/* 2 values pushed */
16 4 
MIRP[01001]\011/* MoveIndirectRelPt */
PUSHB[ ]\011/* 3 values pushed */
4 3 0 
CALL[ ]\011/* CallFunction */
PUSHB[ ]\011/* 2 values pushed */
23 4 
MIRP[01001]\011/* MoveIndirectRelPt */
SVTCA[1]\011/* SetFreedomAndProjectionVectorToAxis */
PUSHB[ ]\011/* 1 value pushed */
24 
MDAP[1]\011/* MoveDirectAbsPt */
PUSHB[ ]\011/* 1 value pushed */
0 
MDRP[10110]\011/* MoveDirectRelPt */
PUSHB[ ]\011/* 2 values pushed */
16 6 
MIRP[01001]\011/* MoveIndirectRelPt */
PUSHB[ ]\011/* 1 value pushed */
16 
SRP0[ ]\011/* SetRefPoint0 */
PUSHB[ ]\011/* 2 values pushed */
19 1 
CALL[ ]\011/* CallFunction */
PUSHB[ ]\011/* 2 values pushed */
9 6 
MIRP[01001]\011/* MoveIndirectRelPt */
PUSHB[ ]\011/* 2 values pushed */
25 1 
CALL[ ]\011/* CallFunction */
SVTCA[0]\011/* SetFreedomAndProjectionVectorToAxis */
IUP[0]\011/* InterpolateUntPts */
IUP[1]\011/* InterpolateUntPts */";
};
width = 590;
},
{
layerId = "4CEE6D0C-6158-494B-B4A5-6E5394691F1E";
paths = (
{
closed = 1;
nodes = (
"83 0 OFFCURVE",
"101 0 QCURVE SMOOTH",
"278 0 LINE SMOOTH",
"367 0 OFFCURVE",
"474 99 OFFCURVE",
"474 206 QCURVE SMOOTH",
"474 525 LINE SMOOTH",
"474 632 OFFCURVE",
"367 731 OFFCURVE",
"278 731 QCURVE SMOOTH",
"101 731 LINE SMOOTH",
"83 731 OFFCURVE",
"83 714 QCURVE SMOOTH",
"83 17 LINE SMOOTH"
);
},
{
closed = 1;
nodes = (
"119 695 LINE",
"278 695 LINE SMOOTH",
"355 695 OFFCURVE",
"438 610 OFFCURVE",
"438 525 QCURVE SMOOTH",
"438 206 LINE SMOOTH",
"438 121 OFFCURVE",
"355 36 OFFCURVE",
"278 36 QCURVE SMOOTH",
"119 36 LINE"
);
}
);
userData = {
assembly = "SVTCA[0]\011/* SetFreedomAndProjectionVectorToAxis */
PUSHB[ ]\011/* 3 values pushed */
12 1 0 
CALL[ ]\011/* CallFunction */
PUSHB[ ]\011/* 2 values pushed */
14 4 
MIRP[01001]\011/* MoveIndirectRelPt */
PUSHB[ ]\011/* 3 values pushed */
3 3 0 
CALL[ ]\011/* CallFunction */
PUSHB[ ]\011/* 2 values pushed */
23 4 
MIRP[01001]\011/* MoveIndirectRelPt */
SVTCA[1]\011/* SetFreedomAndProjectionVectorToAxis */
PUSHB[ ]\011/* 1 value pushed */
24 
MDAP[1]\011/* MoveDirectAbsPt */
PUSHB[ ]\011/* 1 value pushed */
0 
MDRP[10110]\011/* MoveDirectRelPt */
PUSHB[ ]\011/* 2 values pushed */
14 10 
MIRP[01001]\011/* MoveIndirectRelPt */
PUSHB[ ]\011/* 1 value pushed */
14 
SRP0[ ]\011/* SetRefPoint0 */
PUSHB[ ]\011/* 2 values pushed */
18 1 
CALL[ ]\011/* CallFunction */
PUSHB[ ]\011/* 2 values pushed */
8 10 
MIRP[01001]\011/* MoveIndirectRelPt */
PUSHB[ ]\011/* 2 values pushed */
25 1 
CALL[ ]\011/* CallFunction */
SVTCA[0]\011/* SetFreedomAndProjectionVectorToAxis */
IUP[0]\011/* InterpolateUntPts */
IUP[1]\011/* InterpolateUntPts */";
};
width = 550;
}
);
leftKerningGroup = I;
rightKerningGroup = O;
unicode = 0044;
},
{
color = 10;
glyphname = Eth;
layers = (
{
background = {
paths = (
{
closed = 1;
nodes = (
"3 374 OFFCURVE",
"10 367 OFFCURVE",
"20 367 CURVE SMOOTH",
"260 367 LINE SMOOTH",
"269 367 OFFCURVE",
"278 374 OFFCURVE",
"278 384 CURVE SMOOTH",
"278 394 OFFCURVE",
"269 402 OFFCURVE",
"260 402 CURVE SMOOTH",
"20 402 LINE SMOOTH",
"10 402 OFFCURVE",
"3 394 OFFCURVE",
"3 384 CURVE SMOOTH"
);
}
);
};
hints = (
{
place = "{93, 36}";
type = Stem;
},
{
place = "{448, 36}";
type = Stem;
},
{
horizontal = 1;
place = "{0, 36}";
type = Stem;
},
{
horizontal = 1;
place = "{367, 35}";
type = Stem;
},
{
horizontal = 1;
place = "{695, 36}";
type = Stem;
}
);
layerId = UUID0;
paths = (
{
closed = 1;
nodes = (
"288 0 LINE SMOOTH",
"398 0 OFFCURVE",
"484 56 OFFCURVE",
"484 206 CURVE SMOOTH",
"484 525 LINE SMOOTH",
"484 675 OFFCURVE",
"398 731 OFFCURVE",
"288 731 CURVE SMOOTH",
"111 731 LINE SMOOTH",
"100 731 OFFCURVE",
"93 723 OFFCURVE",
"93 714 CURVE SMOOTH",
"93 402 LINE",
"20 402 LINE SMOOTH",
"10 402 OFFCURVE",
"3 394 OFFCURVE",
"3 384 CURVE SMOOTH",
"3 374 OFFCURVE",
"10 367 OFFCURVE",
"20 367 CURVE SMOOTH",
"93 367 LINE",
"93 17 LINE SMOOTH",
"93 8 OFFCURVE",
"100 0 OFFCURVE",
"111 0 CURVE SMOOTH"
);
},
{
closed = 1;
nodes = (
"129 367 LINE",
"260 367 LINE SMOOTH",
"269 367 OFFCURVE",
"278 374 OFFCURVE",
"278 384 CURVE SMOOTH",
"278 394 OFFCURVE",
"269 402 OFFCURVE",
"260 402 CURVE SMOOTH",
"129 402 LINE",
"129 695 LINE",
"288 695 LINE SMOOTH",
"388 695 OFFCURVE",
"448 641 OFFCURVE",
"448 525 CURVE SMOOTH",
"448 206 LINE SMOOTH",
"448 90 OFFCURVE",
"388 36 OFFCURVE",
"288 36 CURVE SMOOTH",
"129 36 LINE"
);
}
);
width = 560;
},
{
background = {
paths = (
{
closed = 1;
nodes = (
"20 374 OFFCURVE",
"27 367 OFFCURVE",
"37 367 CURVE SMOOTH",
"277 367 LINE SMOOTH",
"286 367 OFFCURVE",
"295 374 OFFCURVE",
"295 384 CURVE SMOOTH",
"295 394 OFFCURVE",
"286 402 OFFCURVE",
"277 402 CURVE SMOOTH",
"37 402 LINE SMOOTH",
"27 402 OFFCURVE",
"20 394 OFFCURVE",
"20 384 CURVE SMOOTH"
);
}
);
};
hints = (
{
place = "{-10, 226}";
type = Stem;
},
{
place = "{60, 156}";
type = Stem;
},
{
place = "{395, 156}";
type = Stem;
},
{
horizontal = 1;
place = "{0, 136}";
type = Stem;
},
{
horizontal = 1;
place = "{327, 110}";
type = Stem;
},
{
horizontal = 1;
place = "{595, 136}";
type = Stem;
}
);
layerId = "228CC867-ECE3-4F82-B853-1E58141B916C";
paths = (
{
closed = 1;
nodes = (
"305 0 LINE SMOOTH",
"443 0 OFFCURVE",
"551 64 OFFCURVE",
"551 236 CURVE SMOOTH",
"551 495 LINE SMOOTH",
"551 667 OFFCURVE",
"443 731 OFFCURVE",
"305 731 CURVE SMOOTH",
"128 731 LINE SMOOTH",
"87 731 OFFCURVE",
"60 709 OFFCURVE",
"60 684 CURVE SMOOTH",
"60 437 LINE",
"28 437 LINE SMOOTH",
"3 437 OFFCURVE",
"-10 409 OFFCURVE",
"-10 382 CURVE SMOOTH",
"-10 354 OFFCURVE",
"3 327 OFFCURVE",
"28 327 CURVE SMOOTH",
"60 327 LINE",
"60 47 LINE SMOOTH",
"60 22 OFFCURVE",
"87 0 OFFCURVE",
"128 0 CURVE SMOOTH"
);
},
{
closed = 1;
nodes = (
"216 327 LINE",
"278 327 LINE SMOOTH",
"303 327 OFFCURVE",
"316 353 OFFCURVE",
"316 382 CURVE SMOOTH",
"316 409 OFFCURVE",
"303 437 OFFCURVE",
"278 437 CURVE SMOOTH",
"216 437 LINE",
"216 595 LINE",
"305 595 LINE SMOOTH",
"361 595 OFFCURVE",
"395 563 OFFCURVE",
"395 495 CURVE SMOOTH",
"395 236 LINE SMOOTH",
"395 168 OFFCURVE",
"361 136 OFFCURVE",
"305 136 CURVE SMOOTH",
"216 136 LINE"
);
}
);
width = 596;
},
{
layerId = "F5CF7C91-484B-43F2-91EC-BD73E27C7962";
paths = (
{
closed = 1;
nodes = (
"-10 359 OFFCURVE",
"10 327 OFFCURVE",
"28 327 QCURVE SMOOTH",
"60 327 LINE",
"60 47 LINE SMOOTH",
"60 28 OFFCURVE",
"98 0 OFFCURVE",
"128 0 QCURVE SMOOTH",
"305 0 LINE SMOOTH",
"417 0 OFFCURVE",
"551 114 OFFCURVE",
"551 236 QCURVE SMOOTH",
"551 495 LINE SMOOTH",
"551 617 OFFCURVE",
"417 731 OFFCURVE",
"305 731 QCURVE SMOOTH",
"128 731 LINE SMOOTH",
"98 731 OFFCURVE",
"60 703 OFFCURVE",
"60 684 QCURVE SMOOTH",
"60 437 LINE",
"28 437 LINE SMOOTH",
"10 437 OFFCURVE",
"-10 404 OFFCURVE",
"-10 382 QCURVE SMOOTH"
);
},
{
closed = 1;
nodes = (
"216 327 LINE",
"278 327 LINE SMOOTH",
"296 327 OFFCURVE",
"316 359 OFFCURVE",
"316 382 QCURVE SMOOTH",
"316 404 OFFCURVE",
"296 437 OFFCURVE",
"278 437 QCURVE SMOOTH",
"216 437 LINE",
"216 595 LINE",
"305 595 LINE SMOOTH",
"395 595 OFFCURVE",
"395 495 QCURVE SMOOTH",
"395 236 LINE SMOOTH",
"395 136 OFFCURVE",
"305 136 QCURVE SMOOTH",
"216 136 LINE"
);
}
);
userData = {
assembly = "SVTCA[0]\011/* SetFreedomAndProjectionVectorToAxis */
PUSHB[ ]\011/* 3 values pushed */
17 1 0 
CALL[ ]\011/* CallFunction */
PUSHB[ ]\011/* 2 values pushed */
25 4 
MIRP[01001]\011/* MoveIndirectRelPt */
PUSHB[ ]\011/* 3 values pushed */
8 3 0 
CALL[ ]\011/* CallFunction */
PUSHB[ ]\011/* 2 values pushed */
32 4 
MIRP[01001]\011/* MoveIndirectRelPt */
PUSHB[ ]\011/* 5 values pushed */
3 22 17 8 13 
CALL[ ]\011/* CallFunction */
PUSHB[ ]\011/* 1 value pushed */
40 
SHP[1]\011/* ShiftPointByLastPoint */
PUSHB[ ]\011/* 2 values pushed */
3 5 
MIRP[01001]\011/* MoveIndirectRelPt */
PUSHB[ ]\011/* 1 value pushed */
33 
SHP[0]\011/* ShiftPointByLastPoint */
SVTCA[1]\011/* SetFreedomAndProjectionVectorToAxis */
PUSHB[ ]\011/* 1 value pushed */
42 
MDAP[1]\011/* MoveDirectAbsPt */
PUSHB[ ]\011/* 1 value pushed */
20 
MDRP[10110]\011/* MoveDirectRelPt */
PUSHB[ ]\011/* 1 value pushed */
4 
SHP[0]\011/* ShiftPointByLastPoint */
PUSHB[ ]\011/* 2 values pushed */
25 6 
MIRP[01001]\011/* MoveIndirectRelPt */
PUSHB[ ]\011/* 1 value pushed */
32 
SHP[0]\011/* ShiftPointByLastPoint */
PUSHB[ ]\011/* 3 values pushed */
25 20 10 
CALL[ ]\011/* CallFunction */
PUSHB[ ]\011/* 4 values pushed */
64 25 37 9 
CALL[ ]\011/* CallFunction */
PUSHB[ ]\011/* 3 values pushed */
20 25 10 
CALL[ ]\011/* CallFunction */
PUSHB[ ]\011/* 4 values pushed */
64 20 0 9 
CALL[ ]\011/* CallFunction */
PUSHB[ ]\011/* 1 value pushed */
25 
SRP0[ ]\011/* SetRefPoint0 */
PUSHB[ ]\011/* 2 values pushed */
28 1 
CALL[ ]\011/* CallFunction */
PUSHB[ ]\011/* 2 values pushed */
13 6 
MIRP[01001]\011/* MoveIndirectRelPt */
PUSHB[ ]\011/* 2 values pushed */
43 1 
CALL[ ]\011/* CallFunction */
SVTCA[0]\011/* SetFreedomAndProjectionVectorToAxis */
IUP[0]\011/* InterpolateUntPts */
IUP[1]\011/* InterpolateUntPts */";
};
width = 596;
},
{
layerId = "4CEE6D0C-6158-494B-B4A5-6E5394691F1E";
paths = (
{
closed = 1;
nodes = (
"3 367 OFFCURVE",
"20 367 QCURVE SMOOTH",
"93 367 LINE",
"93 17 LINE SMOOTH",
"93 0 OFFCURVE",
"111 0 QCURVE SMOOTH",
"288 0 LINE SMOOTH",
"377 0 OFFCURVE",
"484 99 OFFCURVE",
"484 206 QCURVE SMOOTH",
"484 525 LINE SMOOTH",
"484 632 OFFCURVE",
"377 731 OFFCURVE",
"288 731 QCURVE SMOOTH",
"111 731 LINE SMOOTH",
"93 731 OFFCURVE",
"93 714 QCURVE SMOOTH",
"93 402 LINE",
"20 402 LINE SMOOTH",
"3 402 OFFCURVE",
"3 384 QCURVE SMOOTH"
);
},
{
closed = 1;
nodes = (
"129 367 LINE",
"260 367 LINE SMOOTH",
"267 367 OFFCURVE",
"278 377 OFFCURVE",
"278 391 OFFCURVE",
"267 402 OFFCURVE",
"260 402 QCURVE SMOOTH",
"129 402 LINE",
"129 695 LINE",
"288 695 LINE SMOOTH",
"365 695 OFFCURVE",
"448 610 OFFCURVE",
"448 525 QCURVE SMOOTH",
"448 206 LINE SMOOTH",
"448 121 OFFCURVE",
"365 36 OFFCURVE",
"288 36 QCURVE SMOOTH",
"129 36 LINE"
);
}
);
userData = {
assembly = "SVTCA[0]\011/* SetFreedomAndProjectionVectorToAxis */
PUSHB[ ]\011/* 3 values pushed */
15 1 0 
CALL[ ]\011/* CallFunction */
PUSHB[ ]\011/* 2 values pushed */
21 4 
MIRP[01001]\011/* MoveIndirectRelPt */
PUSHB[ ]\011/* 3 values pushed */
6 3 0 
CALL[ ]\011/* CallFunction */
PUSHB[ ]\011/* 2 values pushed */
30 4 
MIRP[01001]\011/* MoveIndirectRelPt */
PUSHB[ ]\011/* 5 values pushed */
2 19 15 6 13 
CALL[ ]\011/* CallFunction */
PUSHB[ ]\011/* 1 value pushed */
37 
SHP[1]\011/* ShiftPointByLastPoint */
PUSHB[ ]\011/* 2 values pushed */
2 6 
MIRP[01001]\011/* MoveIndirectRelPt */
PUSHB[ ]\011/* 1 value pushed */
31 
SHP[0]\011/* ShiftPointByLastPoint */
SVTCA[1]\011/* SetFreedomAndProjectionVectorToAxis */
PUSHB[ ]\011/* 1 value pushed */
39 
MDAP[1]\011/* MoveDirectAbsPt */
PUSHB[ ]\011/* 1 value pushed */
17 
MDRP[10110]\011/* MoveDirectRelPt */
PUSHB[ ]\011/* 1 value pushed */
3 
SHP[0]\011/* ShiftPointByLastPoint */
PUSHB[ ]\011/* 2 values pushed */
21 10 
MIRP[01001]\011/* MoveIndirectRelPt */
PUSHB[ ]\011/* 1 value pushed */
30 
SHP[0]\011/* ShiftPointByLastPoint */
PUSHB[ ]\011/* 3 values pushed */
21 17 10 
CALL[ ]\011/* CallFunction */
PUSHB[ ]\011/* 4 values pushed */
64 21 35 9 
CALL[ ]\011/* CallFunction */
PUSHB[ ]\011/* 3 values pushed */
17 21 10 
CALL[ ]\011/* CallFunction */
PUSHB[ ]\011/* 4 values pushed */
64 17 0 9 
CALL[ ]\011/* CallFunction */
PUSHB[ ]\011/* 1 value pushed */
21 
SRP0[ ]\011/* SetRefPoint0 */
PUSHB[ ]\011/* 2 values pushed */
25 1 
CALL[ ]\011/* CallFunction */
PUSHB[ ]\011/* 2 values pushed */
11 10 
MIRP[01001]\011/* MoveIndirectRelPt */
PUSHB[ ]\011/* 2 values pushed */
40 1 
CALL[ ]\011/* CallFunction */
SVTCA[0]\011/* SetFreedomAndProjectionVectorToAxis */
IUP[0]\011/* InterpolateUntPts */
IUP[1]\011/* InterpolateUntPts */";
};
width = 560;
}
);
leftKerningGroup = I;
rightKerningGroup = O;
unicode = 00D0;
},
